<mxfile modified="2023-08-29T00:36:15.423Z" host="app.diagrams.net" agent="Mozilla/5.0 (Windows NT 10.0; Win64; x64) AppleWebKit/537.36 (KHTML, like Gecko) Chrome/116.0.0.0 Safari/537.36 Edg/116.0.1938.54" etag="Audz0vp2VIORU5QIcFRm" version="21.6.6" type="google">
  <diagram id="WI9T0HZ2pTsCkuznbFz-" name="Page-1">
    <mxGraphModel grid="1" page="1" gridSize="10" guides="1" tooltips="1" connect="1" arrows="1" fold="1" pageScale="1" pageWidth="1169" pageHeight="827" math="0" shadow="0">
      <root>
        <mxCell id="0" />
        <mxCell id="1" parent="0" />
        <mxCell id="mIDjUX9PuWNVgNelnrzM-1" value="Data Factory" style="image;aspect=fixed;html=1;points=[];align=center;fontSize=12;image=img/lib/azure2/databases/Data_Factory.svg;" vertex="1" parent="1">
          <mxGeometry x="40" y="40" width="150" height="150" as="geometry" />
        </mxCell>
        <mxCell id="mIDjUX9PuWNVgNelnrzM-30" style="edgeStyle=none;curved=1;rounded=0;orthogonalLoop=1;jettySize=auto;html=1;endArrow=open;startSize=14;endSize=14;sourcePerimeterSpacing=8;targetPerimeterSpacing=8;" edge="1" parent="1" source="mIDjUX9PuWNVgNelnrzM-6" target="mIDjUX9PuWNVgNelnrzM-7">
          <mxGeometry relative="1" as="geometry" />
        </mxCell>
        <mxCell id="mIDjUX9PuWNVgNelnrzM-2" value="Copy data files local data to datalake on bronze" style="sketch=0;aspect=fixed;pointerEvents=1;shadow=0;dashed=0;html=1;strokeColor=none;labelPosition=center;verticalLabelPosition=bottom;verticalAlign=top;align=center;fillColor=#00188D;shape=mxgraph.mscae.enterprise.backup_local" vertex="1" parent="1">
          <mxGeometry x="204.5" y="280" width="49" height="50" as="geometry" />
        </mxCell>
        <mxCell id="mIDjUX9PuWNVgNelnrzM-12" style="edgeStyle=none;curved=1;rounded=0;orthogonalLoop=1;jettySize=auto;html=1;endArrow=open;startSize=14;endSize=14;sourcePerimeterSpacing=8;targetPerimeterSpacing=8;" edge="1" parent="1" source="mIDjUX9PuWNVgNelnrzM-7" target="mIDjUX9PuWNVgNelnrzM-11">
          <mxGeometry relative="1" as="geometry" />
        </mxCell>
        <mxCell id="mIDjUX9PuWNVgNelnrzM-7" value="Bronze" style="sketch=0;outlineConnect=0;fontColor=#232F3E;gradientColor=none;fillColor=#4D27AA;strokeColor=none;dashed=0;verticalLabelPosition=bottom;verticalAlign=top;align=center;html=1;fontSize=12;fontStyle=0;aspect=fixed;pointerEvents=1;shape=mxgraph.aws4.data_lake_resource_icon;" vertex="1" parent="1">
          <mxGeometry x="440" y="266" width="78" height="78" as="geometry" />
        </mxCell>
        <mxCell id="mIDjUX9PuWNVgNelnrzM-14" style="edgeStyle=none;curved=1;rounded=0;orthogonalLoop=1;jettySize=auto;html=1;endArrow=open;startSize=14;endSize=14;sourcePerimeterSpacing=8;targetPerimeterSpacing=8;" edge="1" parent="1" source="mIDjUX9PuWNVgNelnrzM-32" target="mIDjUX9PuWNVgNelnrzM-13">
          <mxGeometry relative="1" as="geometry" />
        </mxCell>
        <mxCell id="mIDjUX9PuWNVgNelnrzM-11" value="Join data files from bronze to silver" style="shape=image;verticalLabelPosition=bottom;labelBackgroundColor=#ffffff;verticalAlign=top;aspect=fixed;imageAspect=0;image=data:image/svg+xml,PHN2ZyB4bWxuczpkYz0iaHR0cDovL3B1cmwub3JnL2RjL2VsZW1lbnRzLzEuMS8iIHhtbG5zOmNjPSJodHRwOi8vY3JlYXRpdmVjb21tb25zLm9yZy9ucyMiIHhtbG5zOnJkZj0iaHR0cDovL3d3dy53My5vcmcvMTk5OS8wMi8yMi1yZGYtc3ludGF4LW5zIyIgeG1sbnM6c3ZnPSJodHRwOi8vd3d3LnczLm9yZy8yMDAwL3N2ZyIgeG1sbnM9Imh0dHA6Ly93d3cudzMub3JnLzIwMDAvc3ZnIiB4bWxuczpzb2RpcG9kaT0iaHR0cDovL3NvZGlwb2RpLnNvdXJjZWZvcmdlLm5ldC9EVEQvc29kaXBvZGktMC5kdGQiIHhtbG5zOmlua3NjYXBlPSJodHRwOi8vd3d3Lmlua3NjYXBlLm9yZy9uYW1lc3BhY2VzL2lua3NjYXBlIiB2ZXJzaW9uPSIxLjEiIGlkPSJzdmc0ODU5MiIgaW5rc2NhcGU6dmVyc2lvbj0iMC45Mi4zICgyNDA1NTQ2LCAyMDE4LTAzLTExKSIgc29kaXBvZGk6ZG9jbmFtZT0iYW5hbHlzaXNfc2VydmljZXMuc3ZnIiB4PSIwcHgiIHk9IjBweCIgdmlld0JveD0iMCAwIDExMS4yNyA4OS45OSIgc3R5bGU9ImVuYWJsZS1iYWNrZ3JvdW5kOm5ldyAwIDAgMTExLjI3IDg5Ljk5OyIgeG1sOnNwYWNlPSJwcmVzZXJ2ZSI+PG1ldGFkYXRhIGlkPSJtZXRhZGF0YTE2MTY0Ij48cmRmOlJERj48Y2M6V29yayByZGY6YWJvdXQ9IiI+PGRjOmZvcm1hdD5pbWFnZS9zdmcreG1sPC9kYzpmb3JtYXQ+PGRjOnR5cGUgcmRmOnJlc291cmNlPSJodHRwOi8vcHVybC5vcmcvZGMvZGNtaXR5cGUvU3RpbGxJbWFnZSIvPjxkYzp0aXRsZS8+PC9jYzpXb3JrPjwvcmRmOlJERj48L21ldGFkYXRhPjxkZWZzIGlkPSJkZWZzMTYxNjIiLz4mI3hhOzxmaWx0ZXIgaWQ9ImZpbHRlcl8yIj4mI3hhOwk8ZmVHYXVzc2lhbkJsdXIgaWQ9ImZlR2F1c3NpYW5CbHVyNDg0OTIiIHN0ZERldmlhdGlvbj0iMiIvPiYjeGE7PC9maWx0ZXI+JiN4YTs8c29kaXBvZGk6bmFtZWR2aWV3IGJvcmRlcmNvbG9yPSIjNjY2NjY2IiBib3JkZXJvcGFjaXR5PSIxIiBmaXQtbWFyZ2luLWJvdHRvbT0iMCIgZml0LW1hcmdpbi1sZWZ0PSIwIiBmaXQtbWFyZ2luLXJpZ2h0PSIwIiBmaXQtbWFyZ2luLXRvcD0iMCIgZ3JpZHRvbGVyYW5jZT0iMTAiIGd1aWRldG9sZXJhbmNlPSIxMCIgaWQ9Im5hbWVkdmlldzQ4NTk0IiBpbmtzY2FwZTpjdXJyZW50LWxheWVyPSJzdmc0ODU5MiIgaW5rc2NhcGU6Y3g9IjQ3LjU5NjU3MSIgaW5rc2NhcGU6Y3k9IjQwLjMwNjcxOCIgaW5rc2NhcGU6cGFnZW9wYWNpdHk9IjAiIGlua3NjYXBlOnBhZ2VzaGFkb3c9IjIiIGlua3NjYXBlOndpbmRvdy1oZWlnaHQ9IjEwMTciIGlua3NjYXBlOndpbmRvdy1tYXhpbWl6ZWQ9IjEiIGlua3NjYXBlOndpbmRvdy13aWR0aD0iMTkyMCIgaW5rc2NhcGU6d2luZG93LXg9Ii04IiBpbmtzY2FwZTp3aW5kb3cteT0iLTgiIGlua3NjYXBlOnpvb209IjguNDQxMjQ5MiIgb2JqZWN0dG9sZXJhbmNlPSIxMCIgcGFnZWNvbG9yPSIjZmZmZmZmIiBzaG93Z3JpZD0iZmFsc2UiPiYjeGE7CTwvc29kaXBvZGk6bmFtZWR2aWV3PiYjeGE7JiN4YTs8cmVjdCBpZD0icmVjdDQ4NTA3IiB5PSIwIiBzdHlsZT0iZmlsbDojMzk5OWM2IiB3aWR0aD0iNDUuODIiIGhlaWdodD0iMzYiIHg9IjAiLz4mI3hhOyYjeGE7PHJlY3QgaWQ9InJlY3Q0ODUxNSIgeD0iMy4yNzAwMDA1IiB5PSI2LjU1MDAwMDIiIHN0eWxlPSJmaWxsOiNmZmZmZmYiIHdpZHRoPSIzOS4yNyIgaGVpZ2h0PSIyNi4xOCIvPiYjeGE7JiN4YTs8cmVjdCBpZD0icmVjdDQ4NTI2IiB4PSI5LjgxOTk5OTciIHk9IjU0IiBzdHlsZT0iZmlsbDojMzk5OWM2IiB3aWR0aD0iNDUuODIiIGhlaWdodD0iMzYiLz4mI3hhOyYjeGE7PHJlY3QgaWQ9InJlY3Q0ODUzNCIgeD0iMTMuMDkiIHk9IjYwLjU0MDAwMSIgc3R5bGU9ImZpbGw6I2ZmZmZmZiIgd2lkdGg9IjM5LjI3IiBoZWlnaHQ9IjI2LjE4Ii8+JiN4YTsmI3hhOzxyZWN0IGlkPSJyZWN0NDg1NDUiIHg9IjY1LjQ0OTk5NyIgeT0iMjEuMjciIHN0eWxlPSJmaWxsOiMzOTk5YzYiIHdpZHRoPSI0NS44MiIgaGVpZ2h0PSIzNiIvPiYjeGE7JiN4YTs8cmVjdCBpZD0icmVjdDQ4NTUzIiB4PSI2OC43MjAwMDEiIHk9IjI3LjgyIiBzdHlsZT0iZmlsbDojZmZmZmZmIiB3aWR0aD0iMzkuMjciIGhlaWdodD0iMjYuMTgiLz4mI3hhOyYjeGE7PHBhdGggaWQ9InBhdGg0ODU2MiIgaW5rc2NhcGU6Y29ubmVjdG9yLWN1cnZhdHVyZT0iMCIgc3R5bGU9ImZpbGw6bm9uZTtzdHJva2U6IzM5OTlDNjtzdHJva2Utd2lkdGg6MztzdHJva2UtbGluZWNhcDpzcXVhcmU7c3Ryb2tlLW1pdGVybGltaXQ6MzsiIGQ9IiAgTTMzLjIyLDczLjk2TDIyLjkxLDE5LjY0bDY1LjQ1LDIxLjI3TDMzLjIyLDczLjk2eiIvPiYjeGE7JiN4YTs8Y2lyY2xlIGlkPSJlbGxpcHNlNDg1NzAiIHN0eWxlPSJmaWxsOiMzOTk5QzY7IiBjeD0iMjMuNCIgY3k9IjE5LjYzIiByPSI0LjkxIi8+JiN4YTsmI3hhOzxjaXJjbGUgaWQ9ImVsbGlwc2U0ODU3OCIgc3R5bGU9ImZpbGw6IzM5OTlDNjsiIGN4PSIzMy4yMiIgY3k9IjczLjYzIiByPSI0LjkxIi8+JiN4YTsmI3hhOzxjaXJjbGUgaWQ9ImVsbGlwc2U0ODU4NiIgc3R5bGU9ImZpbGw6IzM5OTlDNjsiIGN4PSI4OC44NSIgY3k9IjQwLjkxIiByPSI0LjkxIi8+JiN4YTs8L3N2Zz4=;" vertex="1" parent="1">
          <mxGeometry x="620" y="260" width="111" height="90" as="geometry" />
        </mxCell>
        <mxCell id="mIDjUX9PuWNVgNelnrzM-16" style="edgeStyle=none;curved=1;rounded=0;orthogonalLoop=1;jettySize=auto;html=1;endArrow=open;startSize=14;endSize=14;sourcePerimeterSpacing=8;targetPerimeterSpacing=8;" edge="1" parent="1" source="mIDjUX9PuWNVgNelnrzM-13" target="mIDjUX9PuWNVgNelnrzM-15">
          <mxGeometry relative="1" as="geometry" />
        </mxCell>
        <mxCell id="mIDjUX9PuWNVgNelnrzM-13" value="Silver" style="sketch=0;outlineConnect=0;fontColor=#232F3E;gradientColor=none;fillColor=#4D27AA;strokeColor=none;dashed=0;verticalLabelPosition=bottom;verticalAlign=top;align=center;html=1;fontSize=12;fontStyle=0;aspect=fixed;pointerEvents=1;shape=mxgraph.aws4.data_lake_resource_icon;" vertex="1" parent="1">
          <mxGeometry x="910" y="266" width="78" height="78" as="geometry" />
        </mxCell>
        <mxCell id="mIDjUX9PuWNVgNelnrzM-18" style="edgeStyle=none;curved=1;rounded=0;orthogonalLoop=1;jettySize=auto;html=1;endArrow=open;startSize=14;endSize=14;sourcePerimeterSpacing=8;targetPerimeterSpacing=8;" edge="1" parent="1" source="mIDjUX9PuWNVgNelnrzM-34" target="mIDjUX9PuWNVgNelnrzM-17">
          <mxGeometry relative="1" as="geometry" />
        </mxCell>
        <mxCell id="mIDjUX9PuWNVgNelnrzM-23" style="edgeStyle=none;curved=1;rounded=0;orthogonalLoop=1;jettySize=auto;html=1;endArrow=open;startSize=14;endSize=14;sourcePerimeterSpacing=8;targetPerimeterSpacing=8;" edge="1" parent="1" source="mIDjUX9PuWNVgNelnrzM-15" target="mIDjUX9PuWNVgNelnrzM-22">
          <mxGeometry relative="1" as="geometry" />
        </mxCell>
        <mxCell id="mIDjUX9PuWNVgNelnrzM-15" value="Transform data&lt;br&gt;Notebook" style="sketch=0;outlineConnect=0;fontColor=#232F3E;gradientColor=none;fillColor=#3F8624;strokeColor=none;dashed=0;verticalLabelPosition=bottom;verticalAlign=top;align=center;html=1;fontSize=12;fontStyle=0;aspect=fixed;pointerEvents=1;shape=mxgraph.aws4.notebook;" vertex="1" parent="1">
          <mxGeometry x="915" y="480" width="68" height="78" as="geometry" />
        </mxCell>
        <mxCell id="mIDjUX9PuWNVgNelnrzM-20" style="edgeStyle=none;curved=1;rounded=0;orthogonalLoop=1;jettySize=auto;html=1;entryX=1;entryY=0.5;entryDx=0;entryDy=0;entryPerimeter=0;endArrow=open;startSize=14;endSize=14;sourcePerimeterSpacing=8;targetPerimeterSpacing=8;" edge="1" parent="1" source="mIDjUX9PuWNVgNelnrzM-17" target="mIDjUX9PuWNVgNelnrzM-19">
          <mxGeometry relative="1" as="geometry" />
        </mxCell>
        <mxCell id="mIDjUX9PuWNVgNelnrzM-17" value="Gold" style="sketch=0;outlineConnect=0;fontColor=#232F3E;gradientColor=none;fillColor=#4D27AA;strokeColor=none;dashed=0;verticalLabelPosition=bottom;verticalAlign=top;align=center;html=1;fontSize=12;fontStyle=0;aspect=fixed;pointerEvents=1;shape=mxgraph.aws4.data_lake_resource_icon;" vertex="1" parent="1">
          <mxGeometry x="636.5" y="480" width="78" height="78" as="geometry" />
        </mxCell>
        <mxCell id="mIDjUX9PuWNVgNelnrzM-19" value="Analytics&lt;br&gt;ML&lt;br&gt;..." style="outlineConnect=0;dashed=0;verticalLabelPosition=bottom;verticalAlign=top;align=center;html=1;shape=mxgraph.aws3.machine_learning;fillColor=#2E73B8;gradientColor=none;" vertex="1" parent="1">
          <mxGeometry x="440" y="473" width="76.5" height="93" as="geometry" />
        </mxCell>
        <mxCell id="mIDjUX9PuWNVgNelnrzM-22" value="Cluster" style="sketch=0;outlineConnect=0;fontColor=#232F3E;gradientColor=none;strokeColor=#232F3E;fillColor=#ffffff;dashed=0;verticalLabelPosition=bottom;verticalAlign=top;align=center;html=1;fontSize=12;fontStyle=0;aspect=fixed;shape=mxgraph.aws4.resourceIcon;resIcon=mxgraph.aws4.cluster;" vertex="1" parent="1">
          <mxGeometry x="1020" y="620" width="120" height="120" as="geometry" />
        </mxCell>
        <mxCell id="mIDjUX9PuWNVgNelnrzM-24" value="Synapse" style="image;aspect=fixed;html=1;points=[];align=center;fontSize=12;image=img/lib/azure2/analytics/Azure_Synapse_Analytics.svg;" vertex="1" parent="1">
          <mxGeometry x="1100" y="690" width="60" height="69" as="geometry" />
        </mxCell>
        <mxCell id="mIDjUX9PuWNVgNelnrzM-26" value="Airports" style="shape=image;verticalLabelPosition=bottom;labelBackgroundColor=default;verticalAlign=top;aspect=fixed;imageAspect=0;image=data:image/png,iVBORw0KGgoAAAANSUhEUgAAAIAAAACtCAYAAAB4DHcjAAAAAXNSR0IArs4c6QAAAARnQU1BAACxjwv8YQUAAAAJcEhZcwAADsMAAA7DAcdvqGQAAGz4SURBVHhe7b0JuGVXcd9bZ75jz1LTmpHQwCgQkhBiEJjBDIZADNjGOJ4dDy+T4zjPcZLPGV4mJ9/7YjvJixOH2Aw2tomxQAhkJhkECAkJCc2z1OqWeu7bdzjzOe//q7Xr3nVPn3O7Wwh/3+Olzq27965aq1atqlrTHkv/+T//l+GgXLK+dWyhv9u+8vUbbGBL1m9PW726zYbVtvVLLfteh+FwaKVSyTEAWtCfbSgNu1YutW1Yqlq3X7ZKaca67YqdvesCu/ySK608LFupa9YQXwnNBn0y+f5A+ugIBU0U6QdKd/0ChgPpLWai6lcqK2365VDq9QfDloQeHey3Ox+/zv7r7/9Lm97UtGFrp1X7Z1mvfsR6lcUi+fcuDIeDZER3NpicnwKg7GmeTaiUmlavLFtvWLP2oG61ymm2dLRk5552ib356h+wN73sTVbtlqwuLJVVPiqVCYCh9aRPT4Shmip6mrPL+q3pDqskLA9xv3gEgCKiv66eStMfDIZtHRwdHrLrvvJf7c+u/12b26LIVACsHNli3cFRK6kX+N6HZJDxsL7VPDvQVQuVnWsVq8/NWqU2o1ZbtWqvblvU877nze+xN17+ZlMSOalm1ca8dZotq01Ny/l9OVMiCizJsasasiNMbtd/EhY0b/+eXjyCSlAaKACOtvs2mGrZH33uP9gXbvqYVRoLdsa2y2zn5svM+k2rlom0720oqxektcscshQWxEippTjtuwDul8bAWsNlu/fhu+ScntXVUjsLHZsdztnP/9jfspc87wqrl7fYoDtly82ezczOSp++WvTQnZgasvRGd7VuhCYHo7ucTCHSfzgYsCEyPN9aAPR7w0WNQb3asv3Bdf/Gbvz6/1KULdlbXv+T9rarf9YaSlRzKd/bQHuhhSQjuhW926Qlpa722YWB1YUNzbyW7NFDd9vv/8nv2KHFJ2yoBlfpDWxrfbtZc9re946ftKsu+37lUBDYlHV7ZlPSEZ+4E4kA6UvXThDgKkjlio8Lju58YeIRNCmwgVKv2x72qnVbliIfuu7f2Vdv/aSVq4sKgJ+yt1z90zajoqb6FU/8vQxhkGTECIBEo2d4tmFg09bp161VPmJ7j91vv/ex37QDiw9Ys3nITt++zY7sXbCZ8g71xBfbG9/wHnvppa+zqm22lW7XtlemrN6XboV+rq/+BvwDIIN0AJoIUCd+MR8Aok5lupNjS011Lys2VHRV5PBqqaFkRKiSDxpWGcx8z2OpN+Xbms2qG573bU5/trGmiZ96f5sub7KZ6rxVNRnstdWyqw17+WVXWrU+bbObN9ue/U/bp7/wafv6t79iB7RKK9VamhSyIsCLEtAX0kHJnziYXoufB4R4DF/8IJXUKxDoaahLvYKHw6a5aZufnrOpxpT1On1rrbQ15qirsTmrladUYE0Za5KQ0I+/i7haTuA4nvbLBSa6lkuO69M7Rp4xvDyfqY2VfNlV8e1QzWEIbSTPJEy6FToUZa3pt54HVOQXUcx6WoSv9KzbhDZvV135JnvfD/6MrSxTfsP2PLXXPvGpj9lDu2+Xr4+I1tK2o26/qxbOgpDuHY8L9edQ7HpLj46CX9HyYxgoVxUVRImPdFKkUtKstKZWT8UVH+o4tO6UjsrUU+aEKks0kOKfbVwth/2gF+X1FPWgl6+RaaAQht9V+q7qofmxHzu/4PVEA0MG9NCdPB1aiozh6aGrftQx9PDyJ6CW647soxfyRstKvKRf1AunMExryqfG1rGpKo1whx3ep/3yc+wVL36rff8b3mdbNp1p1VrNji7ts098+g/sW49/UfmXrDNsah3RUtmSVgSBOzf5130OpkVA+vX6fev1pJ3SVSrycLWahrlILH3SyQPGCh8vZBT9+voN6XYIWSH7Wjc4DhhjnmVUH+lIOUOtQJzuWqTjoXSA1nfnpH3Wx0k3jgv9PFBSnjWe8oie9KdOGuhohi4TeWs80peqSf4kpPxIz7HbSPm8LGHSD14qK2FKo/FVrbAtK2tJiO0H6h00PJT6m9TuT7dXXflWu+ZVb7ctc6dZQ73S3t0P2yc/+Uf29bu/rI5Ecup9W+ouWl9BMJCtSjVJwYkSLcE+HFRYCQiYH7iPfeXAnpLJfkxzHegBSk5AN2UuAiCq58ZwpamcKq84dON+FzAZJxmRYzegm7jgueH1Uxe42g1iTDdsOIbVsnQs8rBWJl+SlXhRljq9NZ4mQsGjnvB8fwL25by+8rBP2YE++RIX/ZIOBHRRL09Ly20JFQAlAgD7a+gZTFm5P6f+d6ttbpxhV156jb35dW+zTdPzNj9Vt0MHn7QP//EH7baHbrWVwaJVpiVCAdwddqzT0TxuILnyI75jKUgLdz+Kps1qAHCcAoDEniEh4ZNvo0eIgCBi/DQlNNV1tbd4FtGnMWzjOMrBtvHTvizrCI9IX/15XtE9PfKUN35F+timHON5lYLrfOjj0Pv5XJZ+vi+a6DnP5bEvHIKKLrcyRlaQlEqc3+spldb5UDQpPG3TDrvyJa+yN736bVo3aMJYnrOe0v3Bn37QbrnrZnJb2+T4ihxPLzZUcOE/b9j8y2uv8o/rATQTRIhnQh0RYwsdZSsorYoEUrFUSVWq4D+bSAPxMrJyXI+sPKev209pUr507AbXPk5yZ2hwD5kuq5Dr+TbgISPKHcU8vaOOcTiNnjLH8ZIusq5m/mmiicOYGXRkc7Dn1HqpbhXJ2Tp9ur3+qrfY2173LqsOtHwctG3/4lN27V98wm64+Xpb7qknqMqxVZXrkSd5+FGYWrrK1C+WtcBqD8BSwBVIZMe1HkGzVLUsTRXULUmujFTS7Kgig9SkYhUjY5xnGcuaLFEeDqnqGKypLNCdi2ELWujg6aUbiKHRL3SEht4g+aHl+sPX7Gw8T3LZTkLSBVaErh+2kjycN8qDBk8Dt0zNJNtP6RTDQkeoZZ6GhbKGloaGH+Ki3K3YbGWrvf2a99rVL3+jNdst27Jzsz2652G79jPX2r0P3WPtYUsrQg0lHgAEl3qDYqnnPoWRdf0gIFuLCIOfIoexyyPIIUUOW4ArTGT0oyyanm2IcqRSAsoCi9OX0GMZ4+i0Io/Au7gcBUle0j2M4VjkW+WP5nMDTgZSecoivUMhCziOJ0jlYXPtq3kRBJzbGyjw0FBccdIcQsO4tZtaKXQq1u/W7f3v+Gn7wHt+3PY9vte2bdqklUTPPvTR/2a33fV1K9WVR/OBvpYXDCID5hQefJzNTdLj5z4Wlsv1mWLUodfiR7FCKUlwpGWQfkoM+hIKPwgl22e6p4ySw1QLecOKaihkyzH0jiYyTN+cp67N+dr0oAvRz3Uo8rHv071CP9JSOb/6JbrnILCR5d1k4lHTrsZMsFxLPJ/de66URzb0fKFfpI/yXB75lL6nFthFP6erS5ZMz0d6dGeCKZnluhxTk72VTAkVHzMKCI3t/Vmlm1GamssfqLtQp2HTM3Utzae0VNwsJ87ZO694t/3E23/MZrolay8dtFb3aQ0Hf2g333+TLWtpuKjl3nKX4KKqCgAtc8t99SyDjmipgXsbkB30R8SByqDC3HB+BEAvjsQrcYFBCIVz5sE7ZZSstJ/kICmXx3lsMB0XaYToQJNI+eXcgu65RvRbz4MuhziPthUy1/JBn4QhZ7QcMF2ESUja9Xqs5U006gRNlKJsmh29LnT3g2hJEj0PE8OUDCwPNJPQUrGr3uDt3/eD9pY3vtO2bNpu1VrFnjqw2/7s+j+yb957kw1rK9aYZUbBeQcFX1/jSBeZ3jKEQJJaRo9UzfHgigroGmMGCfrcoeA9Ewg5OQTNT1AU3X1f0ZyXBR1M3egaBh3I6UDwkA0tlweNkyIbwdpYuqZjYMgLiHKA0GFcniHn3YuJn5UC1WxZCTAfwPmgAsilubqSRYvWSqCvnuI1r36rvemNf822bN3pvdVTBx61P772v9udj9xoS7ZXfcEBKzeke7Viyx3m++ptFGHICFQAnLwT11dgzcDPBJATkBsQ+jgjgnke4ER0EIAPxvE43kYwKX3Qg5frPQqRbzWvd8VdbTmPkRzvzlfnj/PlLqH3CXKUZxAqv8a4emXWBt2GzdROt1dc/gbHLVou1jTkLCzttT//9Aft1rtusGq9qSXionU0Ky1Pb1KQRAAUqN8JAyBXPK/sdwqrhijkxTan52UFPYdcLyDPE7w8X/Bzes7fCCJPnn5U3jheQBwHzU9MubOLnsCRlk+LL1BpXSJJHVWGnywym6rNKE7mbKay0666/I326qvfYHNzc1aqtGz3U3faDX/5MfvaPZ9VT3DY5yFacRZzDiQW6D0AtA0g7zrB6D7zyn6nEEYJiDKA3LihB/xROrTA0XxAzgOgUzdgtPxRyGWNkzfKCx0BaBznuJY2IV2xLO0OSTS2DEuchsyGp4LP/97KwKYko9yfsU3Vs+yNV/91e+3lb7eaJpLb5nfY03t228c//lG7977bFWLL1u52NEGlp6GuUV+XdYLK8ysqFpWmEkDQnwlMygs9Ny4ALdLnZePAcCIwqlsevMEDI1/O2wii7NgGkHccL8oBoIN5nRINvaVDONkdXaAc7ecGHEdB5Yg401Be+VMDvVW6sx4Eb37te+3db/1R666IJhk1rf/+4EO/a1/7xue1iuhrSFBd1cv46qYIhHJVE6C8EqDfCVMYyGfLheIYjQlTGG8jCMOOMwbYbredj6xajcumTFIGTocfZYBALgeIY/KATBaBPA/0Xk/Lr+IKGJPLmPBF/igLOvu5TPaBqHPIoyx4oSOQ54EW8kZlQQO5TNzrlKzVobtv+D6L+JmZTeqqkcmVOtmlrl2uHnPBCmS/tCxs+TmCGdFmVaVqr2xz5V32pqvfZ1e8+I3WWaooOfcYLNn1n/lj+8Yd11urd9B6XHuoyM79FetoaVisAp59iIrGPoARAkcDKRklOWIjIM1ovjxvGD54eXocNwlDr4CQC+Z6B4TcjSDShx5sAaerTTVq02ql09Zu9m16WuP57LwdW1zyy7Yt/VYGTWv2tN8bCPvWlMNa/UXxj9qgf0R6r/gtYj31BL22sGnWblXtx9/7i/bjH/ibtn//EZvfPGvHlp62T17/Ibvv0dutOViyo82Diuqe1dSL+Kng7xaEAQNyQ4aj2B9tORvBOJmRLzcyAA/IeZNwXCsdxwNGZZ0IIl3kQ1a3q95ETqtVpvwuoH5/YEtLOLdrm9QLINWvvtbVszXk4YZW9TX1mlW14HpXy7uOZvYtq8z0/IqgxJjESNeytYSvvPIN9p73vt+W28tWmx3YoaVH7WOf+KDdcufXbKD8mHlh5ciJJ4HPFPIKA2FAtmAYAuPSAvMgOBGEjMg3CiE356HLRhjlA+iQ65HLIm1ep8gzCYJ/XL7iVi5RbapRt36vI4cP7Dln7rB9K7vtcP8pO9TZY4eaT9rB5m470HrcDnSEvSeE+21/Z78daD8pfMQOdp7wtAfbT1mzdMSaw2U72luyl1xxub313e+w+ua6dest23dsj93w5U/b3Q/dYU0tDyt1DT/tbn/YqZStW1qwP/z0b9pXvvZJq1ba9tZrft7e8fr/w+oaj7iH4ZlAXuHYgmFg9sPwHOdG2ghCDghEXmAj3kaAHqQNDEDOOOcDUcYkCH7kC73A0kDDlWjt8ortXXrY/vOH/r09eeQRq2lQv/CCizW2b5Hd60IuFmkOU+7aoMyTRH2N7A1fx6fLigCyOdNf9SGhXKlZW+PB1EzJOoMFu+Pur1mre9jmamdaZ3HGdmiV8MPvfr9ddsHlVur0BsO2ZhPfjQAIA4waLY7XGUS0wI0gnAHkadkPWQHBH8cbBdIEBkRwAuOcnwfNJICXlxv7pb7yCXtTS3ZsuM8+8qn/Zjfe9hfW19S+XNLw2NcEUM4va2LIiaJBuWMD+YXrKKX+FrlcfbiCx0oa+MtCVgxDrtvOaX/ag6GjXmXAE0jTCqDKilYL8yb32+LBJXvNFdfYj7/vp6jXZOW/E5C59ZMBhVwoIXLTHTZyoLbpFjMdVzWb1syWLcd+GxhpJyKtoS85LGFAiSOvaAN4SsPlL2QmnpRJ1489zyT0NLQoBkUZ2XXnPD6nYgsH587Gkbljx8Fo+jygWAWWKXPYs2m12KuvvsouOP88NT5N5vpN1QNnt6xfBpsKAHBF+21jwcDTmm2laVeOWbt6QLjPOrV9tmL7rVdZ0oRRs3zJLtUbttTuadYvXWoKLHX7bU0uF1vHkj/60mhFOj2THmC1MllFASrakfIdRd1Sc8H27H3C2t1lGVUTnC2zduDA0+qeNGNxQ6uFpCmPsOjGB5wPx0iMkDoGM4OrNE++WqaT4XOcZOT6AJF3HPiJmK7GYs3K5zUBO/eMC6zTGlijMuOY1umSJ0RjP5lCw+EPvQZJNmWELfJhB3uAQPBcO5FwKN17R6PynoNP2MLiUXXjXevKaVrXKL3kuJ3S7W3pQpJ08sJ5bkzIfQQA+jFkCE29QUXLXrL3Bx1TjNndT9xqN93xeTu8+5i94kWvsV/+6X9oJY0AQzqQZysAwlGd6ood6D9tn/vC9XbrN7+qFtmzxeWDNj1btaOLh2x6Rooqi2JQuTBWOvHhFVNlPSwKmcBGDlwD5c/PnJ0kcMm0NuT5h5q9+PkvtR961wdstrRV5p/y6/D1sqbZRRCgM1fvivM4qoD0KgIgIA8A9A7nB4S9oEfasBu0qGsuBwge9EkQeQOiLOR8+s6P2Ie/9Nu28GTTrrz41fYrP/Pr6vhGMjxbwH01rYWePXLfbnv0gb12dL96hKWKDVp129Q43brLmpkK+8LeEtgoULQVLYtWxF/SpKbAHmlFY9tbrm2AlVPG7krZVha79tgjT9pjDz9phw8ueA2qVrepusZTNxGGFFVYKZzil3qzlh2GZouzAoMevHA0+8Co04A8fWDQOKE1CTmpBsYxS+BxS+SA7+g8QCgGUImoCLThoGSbprbZK1/+WnvZC6+S03fYdGmLO/zw3qZ6rVkrt+ccK515Ha9hrbtZdO0LrTlrpRZp5qza2ZTSFrzjUTKRe4pY6kxbv1W288660F764ivs9B1nyvlq/QqCfp96FYbTRnb0Pko1dufnDSiMHLbIbRu2CnsBcRzpwaDFCapecSYTHEcbxUiTp+t2NaQI+7xjYARKrU5v2NXM4ztdBaA8EBXUdMx63G6i7nJh8bAM1bGZ2YbG1IqtDJgPkF5pJX+ozhaUCbGrIpaurljjF8mQ68+4YygnToKNeBNAOtbwrAqi3dN79dolm6kp8IZ1ORoOLRA9Ugl++7h0ZDnmj2NNcH44FD6Q86CF3WIbkKcPCNuOps0h1wFgGzp8+tsfsY986XfWDwEh9DuBXKHYl0ms0pdTNbmaq83bjk07ba6y2fpdzllvtfnyNm2Fle02n2N1u8ZfeNttU/U021Tboe0O8XbY7Gr6dHw8bhNK9inirPRZWdEKQ3MAngksq/VPN+T8csOarU5hQK+WD/fR7cvlPhyEDXFs1D+MHgBvEh9absNReo6T6IFRRmAOKrHYWwO0L3ZPHSZVAppGHb8bFpPy2FNdLYkxtdSpWkNGrg2hTfu2NtD+oG71vlIIq/1GopFGK9e6Zr0cV/tTvp2ILk9pThW1bt46c7rVSxqS6PoVpN22ejB1//Ra5eicVD13JF2CDqgnLTVaMjjq5JwXGHkiTUDkyyHPF0CeSQhEWo6jLOeNcXX5+HvFtaWTKwrluUEqBYwW5MYQjhYEra+l3GDQVQsxq5JHMlkyNapaj3Aa1G+NlgKsT3XI8l3jhg25xOk8yRWd0wWJJ8P2tKOt354+CVFVW9I5FjS/XVvddZKlugVf+4lWdsf71E8BWymr6xedYTO1ekRhE+1QF/3nTF5u1XFOymmxn+y61iOE/diOQsjJeTltEo7Kc/qYCFAqFCqOHJLjc2VjH8iF5rw8AJwm61U4weL3vsloGE4VrioNXSgFa5WbtkrG+RdHWZsbbb3RSY7fFaO87DtKv0lIHmSFPF+uxzHyvMwkl3JQi2Mf9UsNm+KqSl+pFCzoWeFOGvGlbgoCPwojIy0ZLxyZw6odin0wdwo88gE5H8jlBS/PdyLMIQJtEpTTSYz1mXLw58tGFM8LGkf39KyXZP30goI0YdKecc7FX1+C5fEQzd7X/X3RB1apqoXLY1wYkTckD74mW/CUhzRMLMehe9T3aVXSo0CZIaF0kNkTDz28nFQHbqDwJ32UkhoFAl5TqiO9K9yxzKlaCBI5zllATt8IcrtFnpPJ92zBCc8DUKGITCBXOCrMfiw9QnleRjCUwfw5AJkwPZErHgYiOLRPd8rShOHCHc19ceF45eKhS4IHTCdflEd0PyM2Blk5UL4Hmpyc7v2ndIJQaVQWZSYauqCottSl6BECYVMT0rl+ykN6rzN0pfcXMIBFC8vtkTtzHAawT9o8YELGJHw2Yc2zEwBlAkYViArnCgedpkVHP9CW15qxTVhx5DZ1f+jEMbnQHSPr01v0ZRDoPHPv4UA6nFHsj0N/9h7HqCXnGMN9ej6fhotuiedXZekFVQ5DjQ5Uj4QeNJQonXwr+Y5KP9TcYiDkOGyU2wNYTT8BI10OkX9c+sBnE/I54IYwqkA+LACheICqJ5PxxJHW+HL4sFyVESuJpu52ACoghsjxvl2VVnak057YJ4hKvK1DmB5fK5D9cSjZXpa/iWM9+gxBvIScI+dUtILRdRFJ9fK5RgoNEQpEquYC6aJZYQP9VFmprGHD3yayvu7sY5+85xyFPE3kD9wo37MNqleMeuMBf486P1cy6KF80DAqjk6GLxxBEIjWk3cJCJxQ4W0ktbqVuS+wKpqCoVQ4qVLV0hG+tiDXuU+Imr1XKulCCFjWvpcjXrXaEEqm0wmsxPPyCEINWyU5u6pZaJWtjhnza3IyjvY3b+mPCaCfXi3KYJ+657aIU7Ab4WgAxDE4Ln3gswkldYt+MahXWrCPXvfv7Ctf+5Qq3lo9E8jrososqwS5o0GOAzgGgtYpd61V6thKZ9EOHz4kelfr6o5ajTrTfleOlVxliXxKUGzpmtlXGTLEKESo5mVLSKJHF3JcQKe0q2VlwNhL62epynyAlC4mxyhKW6YMrBLixQtcn4fh/4uE48qZDCloyEq+yMt8hUDmMC3F+x648zNbbOfcuVYZTHm6URjVweunfYLq+js/Yh/5wm/b0T1Nu/z5r7a//zO/fuIbQmosiSQTAQAFxKQFgB6Kg8FvVY/ZUdtnN9/2Ffv8Fz+rltW1ZvuoTc9o/O+v6JguNinpXbfKYUz2Z9mdnnijQFdMHX2c9r47VdZ7MhjQJkCSezyQAxfibJwaMn1HkOpKqnQcwJEbnPJlB4LCZTF/KOwzmufkQHOVbk+9Cz0LF39ksy4nSMzO3HG+/cr7/63NDU/341FAH7eH9AlfsOX4swqAP/zC79ihvU27TAHwyycTAHEtIDdeCIUGxj4Q++3Ksu1dedw+8ck/sS9+6Qabnqtaq3PMGtMyVIUHFrmWrTzkJwAYixUEBADd7iRI5chZcnS4OvRgJj8xAChqgjNwPBNOcrp4UqadE0I4OhqIA4Z3OyBvcl1OBN1uR/KHNjs76zIXl5Zsyubt9//dtbapsrNINR7QPwIAQL8b7vyofVQ9QATA3zuVABiFPAAiIACOKaxb7tix4VH75u0321e/dqO1uovW6S77naudrnoALelcSSGnY3iWHRHyQwqACfYPchomEkBDFh70IBgHYm8YANTB0whcpzVw2ROAk1qUuC4N9dAP2kZ5N4KBltT1et16Pa7qdX2JPT09Y+effaH95Dv/ls3YliLl8UCZ4XwQfzB8fPYODQGf/61nFgDhYCAqFds80qBRYF/r+Z7m/C119wcPPa3WvySn99UDVKzVXtbEL02cFJsylZzPZFG9QPICT8aOibp1MGpYGVx5R6nrYXxwQE2BOAnG50vwTPNtDJibCZ8/mKO1KjbmOv8mzQG213dZdcBLfCdD+IRtTB6fcQBMmgQGhPMDnKeur6OobXWaVm9Urcb5XQWEUuvXs65+kixkVlsEgCNmgzc+AApNxE8/jtNgELRnBuiSZANRytr/SZBKBNEipR1HO1XguR7OPXQ1Ya5pBcNxq9e0fndg843NVplw5xM+CmAfpEFOCoCTHqBCcB4EAM5nn0JA9j2t/mrDqgKorpUEV9wUsd2yPwUz6Ko6/RlFsXAo5OqgsDqcEk1p/VWq47Ha46qg9ocpTx10umii1wccj0f4E9HfiiwcSj7yBunqY7Wfjsfp4siVSs9D+gJXr0yOpD1JpLxhl6umc9YYztuwXbV+pyxbztqm6W1y2njnA9HqR30yCU5phhKCAyIoAOiBQF+z2F6rYzN1rb1F6yy3ra41+vzUJpuqzKhX0Vq8F6g1MWeBQXUS1YECZKB1+zgcxn5VSDohNEfRJmDFt5FuPVaESYcCuSDUk/H67G+gi7BCPYp05MnzwRuX58RYldNla+nBPvaaqSoY1Zi8HIbJCYBPwi+5P4A1b62BXwuILpwts04XUAgJYXQhjEFsocV5/+MKEQ05zOOmZuriKb8mMvWq5gXcltTh1aha03ocy2BUhuKFaY3Nvnb8OuzxWNaYCEoBvzzsl4i1D61E9DNejkHO+XKmb6i0g15P2PWtlFVedZPUhTLEd3nSgXZW01BWVhpkj0N0Ykt+Ah1MsiirJ/2EvKJFMiOP86lDVq8cS9K1ynKXpaDMw+iJbeoyKnnDN3kLx+b4hH1oQPgifMiE1f2ln39zgN+a68ZDODeEgQEurOAHL4JCOVT5lirfEp0ngbWOlXcJCILDr6qpdoqnVSyzrarCbElziuinbAs549DL1rbCmT4FJNuyr0bQKwUtZwFr4rHlGPo4WYEVWTDXIUc/m0hZRT0pK8rjKuW4PI5K26ir95Ae7ksucg00pe51tCLg6elk+9wn4Yvwx8mCwqfYmwAIJKIoLMeIPiCnA85TpUt+aTehP8QRl19lBM4D9BQYXWFv0PL9vu8LxeNe9lNGlykjjUPxugV/wCtmNdHkNa7QnC7Dkp9A5awlW5cn+qCvPBMQncfqIkQGZfm2oHm9JfNEdVSXIUMJi60HjezGPQrpukRqdGFzALufcgDQHWwMa/xw8mghQQ9lIhKV0vwt3CD74vkLmZW9XNMgoKVghVPCNVVKyKvT/IkeaOoGThVLoJrQWCz4qcziHL7rwPWHxE866bjYOm4kUziqwzpUWVwvyGWdLHY0+/cHRLTlcXF/6xnjgGyHlcPWYfew+alCcVPoRhnXImzVsSOFA8FL8uRoYbrUq26KPPQW9O+pL9RCEB4LnfRjYch/0Ne+5DtFXL20PAHVXrTlkrCOi/KhDaSyb4v867ah50Rcr0OOiTeSFrsUZW2EFb84RvBpzsV8gFaPbWW7cXaP/VOF1IdvkI+CRscYMMYeEMh5AOqVcHiZhxu5LMy1dxlFyblun674CTXVUvsvsPhpcC1p7XuqyJW/sVcIM0wfb4jLw+lqoPOqhRzpqx3fcsxVxFEZ6zGlG4vI8iuOWTlKHzLH5nFUPtkDu6U3inKOQtvCZrxLIA+A6PqDdirgj4YtK2O/fMw+8ql/a1wNrFXb9jZOBH3f39K6VC4S5uNLjD3hfB/zR/h9jVu9Et0X3RgPKDD+qYVzs6h+ZU1wUpgomuna2GerCld4MpazgqcIaJNkjYNkqPxhDrTliqNf2aNo0VdP7RY86uT1nGDcqPM4cHnauqwiHVsQcVw0mgR5aejHkOVP+yhoazbly1pWZNQJ8LKE6BplAHFM2utv/5D90Y3/yQ492bRLL7rKfvVv/oaVmu2unwkcVJf8TOBNX/+UZqIte8trfs7e/rpfMr4dophcLQhgubGh88Xv1Fu2YIfts1/6tH3jlq/aSuuYtdpLNrepoe6sby2+j+LO5z+y3Uw60KyZ3gDGM4DxbtoYvGTpn+4ESjSAKsXFnDBwwGqedPisQ9gXhXAeNuV+hLN2nGe/9lP/2uZK2xN/BNAp1UWNuvATxwQPl4M//IXftoW9Lbviklfb3/vpX0tzABCICPK4LejeOoRhgFDMeYXzgdW82sJjXD/SOmJ79u+2fYef0gjftOos38hbsH1HHtP2qDWFbKE1B4v+/pqWsMlxwT9VTPJODVfzKmRbFvvpeI2X0I/ZlsSDH7RnFY/YUu+gddQr9+or1q0u22LvkO2V3R568l5ZNl0aHgfhJzAAf7gPtZ/uXxBNqEUF/lvvRMfiippnHONgYJLzAfJx+pcvYO6cOdM2l7dZZaVhpcW61Ttztrlyus10N9tMb4tNd7dqfw2nnbZZ201/5TjVFfZS2Ww5znnTBc+3nlb7WZpnDzfbpvJpvi0vTwkbNjvYYjunz7Kzt53vZy4nAX4Y9QU4CfyOoLb4HUUzc4C/vOlaq9Xa6v5/0d6pOYBGGz8rNioU57Md53x4PXXzHWvb0soxW1w6okDqWbN9TJHDHb5a2xJ+ikOf3DAh84sbKaDSlHHy+PjdgKjLKITxJvES+XjeswHI50YQ7BlnYrdvPl3B8RzNk6aLVOsBXwC53pH/U9/6kH3oi79li3vadqWGgF/+qV9Lk8BWFgBf/uq1Gi/WAiBuCUMQiOAcw/lhIGgUyEy10+1ZvV5Vmo7xQBAneTh7hsuZCOL85HRmuXkApOcE/mohGWy9M4MWMI733XE+E2auAmKlgL5o1Urd+K5QSZPAcTDudHAcX3fHh48LAG+HRdA4xMwXIDMOjqhCCLzg57woJArm4Yl6iQ8gacnVEa2nJZUUH7Qr1m1KRk+8wO70enQ6278iVGuq9NFVhlXZgRxDrwxIk3Qd5ZF3rMzvCLkqOqued9oGLTUgYalTTzyVyfuCTwS5n6KB8huF4trCmoP9Uedi5hsOHm3dQARH8ML5pHHaQEsP0SvSwb9EqnGrNFAlBg2rlbj0OyPUlsuow7qWm+ri/P5DsK68DD5/RTiUI4ttdahg4PKubxO9zNtDtF+xER40pz/LKPnWTbaql+cca+VZpw9oTBsskcPxOY76KodyukJ0vEAyJocmx4ZzAQTR1QC50wMBzlmUG0qr7bA69HN8fcZ1LnBoWOA0Kj0+Z+G43wRphCG5OVXsZ+DGoJ+1K/jxEcmgY5cNecKc58/7FLye7OBptY/Oq2lFX+WRNucV8jdC0kQZoR/ljuoGUu/ugC+myBpVDa869hYkjHRcLWI5GL4YbaRxbiB8BLKf+5Bjf8JZgEgRfb+AtShJQTC51QOhCAA9eJyQoUI9bQcVKckjXwxbRWUcdehO174jxQjZX/eJmRHksytgfswLkP2TMWN4CeElfvAiLbxI5/xMzig6r8i7iiFvFAteyst2Tdc8ndNlCW8iTsNWmgV5vjX068Jg4aPcDwGr9i98AeKjQHlMuZWmyCrfJudOgvxEyLgufxJQnW5J7V7IVy2plH8IUshlYday/lo3VgXip9e1KaO3sLRSGIfpQ4zkkUF47FfIvl9H8Kt8x/NI7zzycscJpzbhZzz2kQ8/30IPXqC/cRs++Ud469BPoY6Ur31o8Wo6bIAtXG/lcZ4aynGyMuS6QvgBCOfij1E/rTl+PHCe56QAgYEAhW0kWCmlKKd9VSlFuMdRlpwbEnjok1DhYRE+k8LXMtJWhpuAqp6jP+GrPeKZfadz3bzgQXf+KA+aJCWeduDTHZJHaG5c6aytH4OFHC/feegYvON1DEy6aVfpQodUjjbkB728TD/xue4zTl5CpcJ2cjIQDg5f5D7KecEfhY2bv8OawIBJwnIghTd29pVe4ZLQ6y0jaMu+3w6qg+KpQXUOXfHEL2SMInlQOmR7XBWyVM20LdLk6Vd5kccx6ZFopNC+jkO/oPvZ0IynbGs8ofM2wNCJlGkb9VuzAzyvl9uK4wnoadcgd+4k5wOjPgzgHM+GsHqLmABhJxoyAvzlSRrUuXsVLIMx+Kvh8zw+5/y5FuiGRRFFdkmTFu+9NdMai/y09a+B0qCE6jXX5GnLcfBIR/o1XpZPkxT/+KN4/nFHpfOPO2bb1Q8/ZjTy+L7qmD4gmfijiHxGHNJ6GehAXtFdBx8NkBPlpLqtlTMGVabf/j7GwdErBOQ892Fy4zrwVcBG4FfPijTR7YOrQieAUslVUli/qn4eBFrqUWkqD93f0MmMDzEU4deK6QUwMIY4Hj2g+IVxkdWnHMoQstXxGg899AseclbzYvzE42NMLr9wUHIygZYw8SJvclD6jFvijcVIW5SRUHlEczusBgAaKjy0jcAeKy+w8EEgkAcAtGioOX+cv/ym0CCnRPiDfymDXy4tHB9CAoHRAlbp+iXH68DfF9SRj5mESVEtY/g6Ll+x6vdr4tXlqSnRatavTtmKDNEsV6xTrVhPs95OuWMdW9aKYtHavcPSelmz4bZ1+stpwld0SnxGvV1uWreqqVa1pjw1aw/SY+lcW9dsgzfAqIyedUptpWnboKYJGF/gKC9Kl0Utz7h3UXoNatKbNawyyFH+VQbxSgM+7dq1dr9tbc1hWOW0+l1N+EqiaavkzPKVUGVqBlSM+wzsPtdgK5sxeexK185QKJl4vd/vWLerfY9cJqYdyZOOPklkNqWB0tfXCtjC7jgdxO7QAgOO91MKErnHaUwboSaiw3pH4nzWlhxvVFieB1DYIMplc0Oj32dHyGNTORbbck1rRXVta9tV8rYCplup2ZJ6hbb4nKI+1m/6S5EHtY4cJ4fXVmypfcBWOoetXNfEqaI5tBzB/Lo9lAFltJY8xl118r2X01adW8KO9OGrG72yHFXrKd2S8d78fqUlpxyzco339sqpWEf5uGnYnd+RktzZ21tRxaR1Vce1oXUVI11F+KDGtQ+x5WjK42ONqyse8f0eBSGdHebnhpiBgnRYlx51ya2x9qdsySSwOgQkAaB688JoBRxLRcpQ5+HOA0b9kffQOQTdoXCRUhV5OCGzARAxFBIQBYTAUAAY5aUAYD/opJFCBSKWm1+Q3umpnda1p0rXG01F+5LtOfqA3fHA1+wvvvxJ+1/X/4n9+Wf/3P7kkx8X7S7rVOR0GZdH0Hs1WjyPU1dsxqatwb363aHJxukDzCqLJ5LbRtC0/AMM37j3y3bjNz9nf/G1z9hHP/kR+/j1n7C//OaXbffhx6xVPSrnamE2rbCakpAZ4TTnLwi0tj3y1EP20FP32t2P3mJP7HtYSzo5sNe0Wp21RZrNJ6fQeOjhRNHwxjsJOAHDZ2SRdXjpaXtk9/328O4H7e777/LPzjZmZox3JvC0NN8A8DNPikY/IVfYDXPnjS23+6rtxwGsEXZ6P4Bk9crxfoBPSumWve216Y6guo+FKcI8Q1YIShAA43hMAOlNlVmMYm1Oq1Ar5+5PnM+8j4tDbVqYHFlXi2qpRT55bLd97sYb7Fu3305D9Dd2dZotrRbKNj0169jrDe3Ci55vb3nrO23T9Fa5pWuz3brNc5XMv50SQaUAr9KFrtiBpSftlm/dZHfc80178qm9MjhOaVhzqWVb6jPW6XRtx85d9pxdZ9nVr3qtPf/cF9iBAwdtvj5tp23eakeOHrKjK4ft45/+uN3/xIPWGrbsyhe+xt7/7r9h9UrdpjR89bt97dekq3pNqs5Q1uaroGUFdl115aNNZdu/8Kh9/DP/w3Y//rQ1F/u267Tn2nvf9SN2/rnnez0HGk4UAsoXNuPrUbRkVY333ahGo3YHwx9g+Cd6AF4W/aEv/JYdfXLFXnHJa4o3hbqIybAWZ2sFjYNRHs4lr+cveOkHI61jqRpQVcuvqsUtDw7ZN771JfvX//4f2h333mj1maYtq7t/8ulH7OlDe4X77J6H7rN7H33QjrYX7YavfM5+9Z/9A/vCHZ+TXMZNyVPrd7FSoKKus6JxfmjH7JE937I/+MPfsc984U+1f7ct947YQvOw7Tuyz44uL9ihpUVbaC3aY/sftC9841P2f//3f2bXfuUPbfa0is1tnvXhanbLNpvdsUW0WTva3Wft2hG764FbbP/hPVbn1K0Gno66cAyuSitI1XvyTkJ6QdWfcZwzifS6R5YP2YO7v237jz1pB449ZRe+4AJ7ztlnKE7kaDWQ4RBUXbgfS3OSJFHgJkt2A3K7573CRHBV1vy0cf9fQBSSZ8SBebTlPBRxZbywYlxKHNHJx8sP1EK76pY1xmuap98xu+3Or9q1n/6YTc8M7emnHrZHHr7Xtm/fbD/yIz9kv/Zr/8h+5Vf+of3s3/wFe97FF9nhY0dsZvO0j9+fvOHj9uX7FQT0MnX1GR3NATSOal4pk6/YQzL0X371s/bQY3faUvOQDwdTUw278oqr7Kd/8ufsl37x79q7//oP2VWvfpVV1dXvOGPOavNt+9Tn/sS+fseN0o37mbp2tNWUP2p2zvnn2Kbt9DQrdujYXnvg4W/LuXzCoa/5GWGtlkfrcztgBA0Fmvd0e+oJ1AvyxPT9j9xt+xZ222L7kFVnSnbuBedYVRPXheUlW1wmaNUdeqvXhC/chEzZHDuO2j1a+4ZB4P5I6WNbZnxC4CQg3Whh4XxglBeKUHn3umOK38Sj9au10mL9lK/GcDnprvu/aZ//y+vs4NE9tnf3E/b8515iv/p3f9X++S//C3v7q95pLzr3UnvRBS+zN73yLfbrf/uf2I/96Aes0dDQ0Fu0Q0d32xf+8lq7/b5bJJcJpWbU6lEGmjwyybvj3lsde5pxLy0t2Gte+Wr7Z7/+L+wX3/u37fte8lZ79QvfaNe86s32gff9uH3gx37UZufrttI6rCFiyT72px+xPUf2SvuGNaY222xpi52rbvqsM3dpqOzI4R27855bVM4xD5NGVSsI7XU1g8ShrKIICBnIz4wy5C2uLCjPbQo29VKKo4teeKGdfsbpKqNsjWkNcdMawrA7Pz8/zlw92W71YxoT7L5hABSA3ABfBm4E0YIBhOcFjCqQo4NY7AXNT2DolyYyvPNGS0XFxtNHn/RXyTy250GbmqnamTvOsze+8u32yotfbxrVtTTinMG08XYMJkU1Ua+57DX2o+/7Idu5fQtrBzt6cI/d99Bddrh51AYybGlaY6/oRzRm3/fIvfb0gadcpTe87s325te9zbbbLsma0iSIewFmbFNlm/W1TLjqglfaD//gD9u5Z56rcqoan1v25S98xbtzf8JZs5JtszvsjG1navJeMx57f/TJB2zP/sfV22hWTzevunJDjL9Q0usq1JKQ6wCay9tTh560J/Y+6pNBXqh5oXo0vlTC9LGrOYSmImlsTqZds6dbM9k9YJ29BfCCluMqsBtyhSc8EZTfFBp3mQJx2THnxaXH4JGS5Bgj9TTq0MSrqZUMtKziGoCmn/bQIxrX5bzGXMUOLxy2d7/1R+yyC6/RjP40TUK3yu2n23xph9UGs9bgUW/9eIPGi86/xF7+4hfbrJZhXbWqR554wJ5c4LPpzNW72nasreXUvQ/fZ/ObNyvgGva88y6xXbM4d85KS2pt7Xmb6TRsSkEw1eeR84ZdePrF9oLzX6h5acW2Tm+3W796m3HbVINFfqesYNliLzjvxZo4blM9S7bcWbC77vuWwkV6qEwaDd8CdLsL0ytvtI7XZJhF6m133uwXhpgkzs9vtnPPea74yV6k1+gkGRwolzpK6ordsTW2DcidGzy2APToESKNv9ySQtMhifBTMb5MgDSOrS8oEBjlRVBE62fXLynTk0CkfCnCbcoYaqW7bPs1ueM28aPLRzULP81e8oIr7bT586w0mLNKNz3zz51FNW4qkQN6rb6csEmBMW+XveDlcsy0Vo9V27d3vx1ZPOy6LA9XVFTJji4u2nKro9XAtCabaumbdliz29OyvuR3LLFSGWpoZmk/5Td3+O2stmvzBbZt5gxbOaIE7ZIdlGxeljXNa+i6VTt/50V23unP969/9jWM3XLbze5cX+LJyNQPkO80/qcAoLdoDhbUU90pw6iX6k3ZRQqkM08/V+6vCSta4fDNHyXHeG5WCSAtJtU/bLYRjPMVELRRKAIgJRoH+XmAEJgLzXmrzi+AMtMEWHno07SFFutiLmseOnLYnnjyCY23arEKgouf/3zbtmmXjKPBUU7l02n+jADTcDmqUVKXPeDhiLq1tLzaMb/TZkrzNlvZbLVyw3j1rEwgc1Nh1u4Vraunrd1VeQMNC52BnDbny0hurWqoGF+u9jTLLxNsQttkF51zmb37bT9qP/03fsHe9bZ3285tOzx4OQXcGDbs9Pmz7Jwdl2ilUbOZ+YY9pJXJ7oO7NaRpQCre6IUpknnp+DVfkIAHH9Xk79ATIg4VgJvtBc97mW2qbpfr60rG9QJxaPU0FCKhxHJPuhb2c9zAX6P+SP5NgF1G4YSXg92JRfS4I0cyTOJBxW+uq9OFnOdGngKgrzGVrMeOLdp+rbXTHUIlu+iSi9x5rNGVnFUQw26S472f5sd0rzJVpTSnYDnH3v9Dv2A//zP/yH7xJ/6OXbzrPOtrtr6phCN5gUPFztp1tlpkXS2/bd+86zY7pKWl+ntbsAPW1Ky8PI9cRYBarVbrKmLadmw7317ywqvsqitfa697/etsy7ZZ67Wb1tPKhZZaVppLLrxcq4l5m56f8VO+37j1G1Kz4pc0aPkYAfsTjpwoGioIvn7Ll61c0yRRK5XT1ctdct7LXBZP+5TVK2EfTMGlcaLeL49zRlEMP4WcxG4IuU8CnDYm41p4bADh3FGB4ESeVPXeSmQvt1CKqOA0MWfIKmot7Y46zjafPlPCSsm2nbZdWfSrq7LcSaR83qrdMkqm7rSi2fWAt2gMpqyqWfklz3uFXfjcKzUuX2pnzp7mzp+VQXvqVXZt32UvuORFtrBwTF31wL517232p1pqPt3ebXU5vl9ftl5Dy7uylnHqvltNTdQkt17earPTO7S+15KwoXapFctAs3zeX8TduR0NCxee/1I7fecZXs70zJTdeuutfqqZFzzSEHl3hV9C0I93ESwp5O574C6rTkmKAuCicy61nZvPVc/WMF76xIUeJqLcBUYAlLWaKXsPkFo1JkwNfM3Wo5D7IuYAQKL77jooLgcXzhkDZAqhIRihIXwjXvQ+/rwdBXlhpJUT6ZrVir1COlZqOVfdfY07A7pyvqZx5RVb6S9Yp7Si9T7nxTtyIkNFW1k0ZpZnFRwz6tK3WaO8zayl1tvm3f+zVtFcob/Yta3VLXbVFa+wnbt2apKpbnbG7Iu3fM7+/X/9V3btzR+zR5t3q7RFjS1qcQq4ar2h4YEXXFVssSmOehPeYdDScrM+W7Ka1uw9LefQt1qZsue/4MV+do+zfPsPHrC77rrb6jV6kRTTPXUH2IIVxTdvu8WWm6pPv2mzM7P24ksu15C2SbMO6avuriYb0tj7ihpv+autH3Gyq+TQu2wE4QvKDF8E3QWNQJlEY6FwaDg2tkAInwSJlxSn60IF3tKt6siJcrawo1bEwgg+393h15BBCQpyqAp+xqxarws1UFfq1kaGeo2mlkrILGufr4D0Oe+v4xrnkmU0a/JJ1YptmdHSTt3qxc95if3kj/yClTszdujpRXXvO+3Q0QP2kT/+H/Zf/sdv2r/5vV+3v/j6n9nuo/fbcuWwDRstZe/6K+1mp6ZtujprrSXGdTlWgcHTvtOzM16HF17yck1ONf+oanVT79k9D9ws3RSoSs2Fm45aNTd9caLo69+80cp19SOalO7Y/hx77lnPk2H4YKWCVfFHg6nWOINIANB6wHQewMdT7Lo6QxwPuZ+iIYav4BBPABuGWIJ0nZNBn7EX+yjCliVer6eqaMsxs1yWHQiH5p8l84GPk2Xq3tVV9zW9prUwmg1ktIGcOOBKoHAoW3Jphe/idtWChrw3SBO+ckdyqTTW45kCzcy76u6ZQg2Vv6eye3KEB4DMOl3tafLWVA9+RD34IY3t6s6nFSDqiv02DN4eplX/C898lf36z/8He9PlP2i2oPlBr2HbN8/a/v0P2X2P32wf/Ox/sv/zd37J/p8//7/sqw/+uT3VukMlHFW9ljQhrWnJd4aZlo2m5WNVPQ9jekm90hmzF9klZ73GZhsNm9vUtLse/Avbt/SQ9RWLTZTUkq4jqx+2vfbYU3dJ46Y1l4d26QuvsF2nne4rA07w8OQUVxGZS9Qki7MOAxmJy+VDgk4BwNCgDtIbB3bHwXlPnE/6RukA6zBuKBFD8oXwnLMhHN/aOQ4ERgtf5QkVQkVAFYo5MrZzCxj7qZujF+grwHzG76oyIdNkC9mQEEd6CaipxUCi1bFONp6V4w1aXEVjncx6WN0w10z48hetjOcQdm07137k3T9hP/tjv2SvuPQ1tqm+w7vfGU0G+O4+en315q/YRz72QfvEJ//Ibr/v65KTbtpErVQWrUaalSu+5KNXuPKlr/YXX3H6ebl50O57UMs8Va7CeSNfDQ7spptv1FCx4m//nNIq5NIXv7ywEY5ijY+zdEzFVOe0g4XAdJz+r7d7YNg8HA/kPnEQHRm+W2DGHQ+FLIe8QCAK5ZiCgud0DVbMXehy+LiST2zIJpqfDlYAKJW2DAUKAhmKU6VoxPhKF875g0qZ2zm6ity2ZvRNjZVNOUyuUjeJaiuau/UUAK3+rOSoq9Y40VHvwTcDGEiI9J5mYwQXwjdPb7NLL7rcfvjdP25/5+d+zT7w13/ernjB6+3c0y62XVvOdX6vPbDbbr/F/uyTf2o3336TtTVHKKlX4bo9F3d4rSxdM0s3TPrCS17sw0pPS0zqf+ddt1uTdw5hI1VluX/U7vjWbb4S6Ur2OWedb+edccG6VjqKG0E4mHRhdyB6BGCU5z5xi62HEwYA7gBCUGyBUASADnpBBRLQtNWESqNjbvj0h1F0TEfESRMPBjHT6VIqQADAVyjQU2goqSoAqoOWTN7R+hlHcBsJ8aThSY1eS3PrKWAGZbV8WZ3wqtTlJK0mNHL42MpoymS0pICZLW+3c7ZdYtdc+gP2/h/4OfulH/tVe9s1P2gvUXBs3aR1ufraQ8f22ceu/QN7aC9dt4aCKQ1Xw5a6ZfVU6jHqJc1NNGGc0Try0heqRffLWhbO2GNPPKS1/iPecxAEjz5+jx09dlg9Vt2WFlp29ZWvS8Eje4QNw35AbteNIM8DrLN9wQt0mWPEnjAAPB//BKMRNVpApAMQzHVttj7xEKYeTvmgedekka7Gmy80J8BlSrjc5Kui4ngAqIWom61omVVR71At8d48mXTY1TicyqrN1Gyx45N/v7uoXJtWt12To+hXeFXtsmSlWTXr66EmjOUe3yic0zxgswbqOWt0dtiu2efZ1Ze+wd77zg/Y1a94jc1vmlPv3rV9xx63z3/tOjvU2SP9FIQKNOY/BDWqcEqKHuslL7zM5me3qQWW7NjSEXtszz3SfkGpFu3eB79lXQVsc6Vtc9Nb7crLXu3DE5DbEBi14zgYlz7yBC+ng54+ZVkHeOEEMFkZhOLIKGTd+IPzUYZDln88/+U8mUuKqIPXXnoV+vTMtJfCOe/9B/bLcCyz1MoZKvy5MY0PNPEhr02fkrcJHIJGy7Phgn3jri/Zl7/1Jfv8TTfYU/ueVk61UC3pSgqYVm9BQdNR2hVN3I5pDFbQSIF+S2O7FgtMEefKM1bl+8GLZTt99ky7/LIr7XkXXWDlxtB2nr3Nbr3za/b0kSclV72O5DLBpQ6MWNyCwM2eu7afYy96wWXWllwi/t4Hb7ej7T12pPu4PbH7fmu3V2z5WNuuuvwa21Z7jurfkD9Sg3LnYJnMjhtBNMRRm4/KOo43JgJOIgAShPAoICBoFDZaoP6xJ8/SkkG63xQccOjup7XMmpnGsXKKmsVBraVT16mllLp/v4jkN/fJ8ZrIEQA9XqMqAV11y/uOPmyf/tJH7aPX/pb92XUfsb379iof+du23D1sn/vSdfbx6z5sn7juD+3x3fdporbovQhrbpZfQG/ZtbQpdeVDde3PmdtlF178PLX4vh1ePGBHlw/5zZvo1e42VUfP5nXhlX5a88id83aFWnZf41FVwfnQo9+2/Uces70HHrCF5QMqV8Ej3ve95vttcaVjDQVd2M5tVUDYcSM4bmzPbJ7zRmXl5QScMAAiU77UgxZXnigAGkpwjAKrV6VYFqoLT+e0k+LwWL+3O12NglO2fdvpdtYZ5/g5gPmZzXbP3feprS7I1Mta86vrrmiGX+PzKBrB1WK5e7Q6NW+Hjx6SyI66/ydsoXW/dSqPWGNuRQGlJaNm237fsSZt19/wCfv8jdfZJz71R3bPg7dpZt7RsvKYlatd9S5a29ONI176hd682GJuTkMDSzttOx1R2kzquJGl6pPKxYV0NW+Gm04YVlSb5z/vpTbL7Wntrtb/K/b0wcftjntu1kR10VZWVnzyd/7Oi23T1FbVRo5XsdgNG4YT0SEuJAUv+GF39gMD4LnNBWFnMCB4kY40/gvGJIgyIhOQKwAGL2Q5nfEbhKT+co3Hv5I15NRjy0tqdTP2okteovFdAaAZ+GMPPa5Z9G220DzgXTVPFq+syFlM4mXsJm8bl6jNWzYpRA7bt+/9uiZ+R2yp9ZjtfM6sbdk0r3F2SsaloL6dcdbpttg8altOm7O9+x+z5c4RG1Q0kSsrSJjZ07Fo8rmy1LJynbrgzLIdW5DTFpt2+OCCHKzpQDm98Zz79pmzzGjuUVVs0rC5Z6ckLvcuXPHy1/h9hrz48qHH7tdkcI8HDncGvVJzC/oKXvjM8OFRNwGwIYDdAoHc7kDw4ngcDwjaKJzExaD1wsLR4wrKef5iRHW1fmu04sbfrKmyaDXq2bWVETRrbmgUPnvXc+3s55xnpW7NTt+2yz784f9pj2rc5C6bld6iWnfbRwDFgZXmypqY7WP0t8f3Pmxfuenz6pmOqVtv27ln7bLTtu6QkcvW7DR9gnbFK16hfW4U79kjTz5st911iy/LOpUle/rwIwoOje31JWtsHdpj+x+wQ82nhFrL33O/lpubFB9zdt6uC23b3E5JZR5C21VL1VyCQPQPTtEu5NSBQuCll77KSgqWZa1P77jrDtXjITt8WCsATU5fcfmrJEOBosD2PBtAbtvcrqM9Arzgb8SbBCccAqRKsU1dyzhFch7gfA8AbYV+d7NK8pm9kvsJFTnfT8CoZWybO83e+Nq32Hxji7cyTgp95oZP2U23ftFapaNWmW3bseEB684u2MLwKes0luy2B79hv/t7vytZCqROw84/48X2ypddo+51i3Wbmqhp0ljCIS+90s47/yJbarbtwMIRu+7zn7Ev3/Jl233wMatuHtrUvPSua3yvLdqmXXU70txvX/rLz9tdd95txw6t2LH9bXvD1W+znZvP0dxOug04Q6eRqD/QSkNL1ArRLILqo3me7TztPDvn7It8ls/5gl6vZ81W2174/JfY6VvOUMNIy1GGnpMBbLrOrpnNg5fzA3NepB8HlX/8T3/jNzjryv1zdz34VXviyQfkzL5deN7ldvFzr/Sxyhtx5nwgLyTnBZ9FGN23GELijLGLjP7nXU9V4zsG4oTPadu367hqe57co/nBsh049LTt3vuEHTz6lJzytO1beML2HnnUHnzyLrvx6zf4beMHDu33L33PT2+39/y1v2GXnfs6zeZnfbhoaHLZ0tJrfnqzzW6dk5zDdlgBcHRpwZ4+sM/uf+h+O3Bknx1rHbbdByR37712x/3ftBtuvN6+fc+driQ3g7zyZa+zd735h+20GTlvRfOPcsOHta5mf6XaQN25gkBO4UIW1zsqU1O22D5m9z1yt9Ua6onaS/6KnPe86/1+som3opS7zCNkA+yzAYR9gVEnBi/snsO4Vs/xw/u+bd9+9BvWXOzZGaedq7q91iq//k/+6W8M5IBJAcD78gmCcG4UhkAKAnN6bIkaP7lDXs8vhRzFEpv5CbR0gyj5B3b22Wfb1q1b7Ik9j6rDbtvRxYP2mPS55+Hb7NsP3Gy33X2Tfeueb4j2kF+Ba9Rn7dwzL7Ef+P4ftiue/wYbrsxYo9vQ2Kx1usbppiaavPh5x+k7bWbrvN8PcPDwITuyeNSOKCD2H3za7rz7drvzvtvtm3d/w+5+8Nt2aOGArTRbNju1yV7+oqvsfe/4UTtnh5aEg7oNW6pvVXWhGrIRS80Kk2LVqFTlBBQVq2ppumJ33HubZvtH/ZzAWTvPtXd8/7s1899kM5UtVupgE9lwgwDArjmM2j0gt3s4PXc+PQbH4PgA+Mf/5Dd4Vm9iAKhyqp4XgDAgCohIgxcIOA0H+w++UMsrxgFyKt4cSF0ua+yUXL7S2dMqY9cZz7ELLjzPZjdPq5U1rVta9rX+cueQlv9HZeC+bT9tuz333OfZ97/hXfb6q99hL3juVXLQFpvqyfnEkybRXbWwimbxLdZp0vO07TvtnAvOszPPOcumZxrqlrkHYGDHFAzN7orKWbGZeS1J52bsskuvsDdc81Z1/d9vz1HXP1ypaUKqoKLe9N+qyoBH0kpNzg4rEDQ3KCngun1/yTNThYOap6ysHLPp6bq9+srX2aUXvlxKacZT3Wz9lno/Ll/QtU6AcPKoXXPciAfEcMEx8h56+s7jAqDU7vaHbYxfmvTlUC0nNOghKKIJYXkUQs+DAx6VUw7lg88/5fGTQykI/JYs9RCymzLx9Ir5Grui2TMngVa6i3Zk4ZB6gUMav4/5PfXcSTwzo1n+7CbbPLvdtm3eqUkYL53ivi5N+aRCmdm1ZHUpWC2sO+yoaJauaMMJ4p4t8iDIwQNarjWt1Wyaf9FULXtWS76p6WnbsXWnzakHqPFSKP0vdWUD7udmAiuxaXLLaqRvdSaFqgTfPWzRr8ux3JJ66NhTKueI6F3JO93vJOYSIaePh5KHOH/jhwSGE7Fb7sCw+Tj+OJ7bXcdBi234hI9GffTzv20H966sfTVM/h9yn0uvfGz8o2Fqverp1kEIBEKRHEJJIFcICF5Pxgo5o2kjfV6hCDI/DVuUPQ4mlZvvB4QBQ//4JA4QtNAv0oUcaKH/JN6JINIHRD4QXmBALncSb5QOBM8/HEkA7Fm2lxEAP8ujYS5vsrIhK4SEQahwYNBHjRVGGcfLaUAoHhiAQ3AMJ2Wm1TrzkxuTIPKHbID9USSY/PKsJm6UgT5ArjsY+wGRn/SRJiCXD06CPF/IYgstL/9keKEH9FOFyU1pFdYqlysyWiD0QCDS5PScF7LiOBCISgGUQW8BcibyRJUMGQFRBtu4iYX9cWUCcUya0JEyo1yOA4GNeCcDo3koH3lsc15grvNGvJMFf1GkivWDcSDRaasCgCjgVAoalzaXF/ygheGhh4FzQ0+CXFYOyALJz2lrtpE2x7wMAgWMwAgIWQB5csh5wCg/hzztqLyN8o2DU02fg5awGxuV+9FDwTAckFcACOMFP3ciOMoDghd00kcXHzSA9NDppvMyJ0GeFwg94loG+9CQG3rmEHQg7EOaQAAZUaeNeBvBaPoA6JQPPZcF5rqN8nIdThZOHADM3Mcok3jrFQ2EFjy2OS+UzBUPCF5Ani9PtxFEutjm8tAnb9mkISBAjoMfedCRoAm9AgHywt+IFzqMA9KGfUibp8/lQQvM6eN4yDtVUJ6NM62Zb82oQCgR+wH5/iiEkqPpA4FJZQB5hSdhQOTDsNHqw/Hj5OY0jsMpQNgIegRMlDUqB4BGnryu8DbKA7AfednmeYGcBuQygVH+KCi1/5SIPx/eVdbGAeBZioLyAmI7TjloowbMW91onjxf5B1NAwRtEiAfnCR3FOGHbqO80D16BDCncwwvIM8LRJ5JEPICJqUPes6LcnJa7Ocyj4N1rJT+hH2GP8enSueKgLmTJkFuLBCg9dCtbgRRwXGInHD0JIyyIn0E30YwWp/QOWQB7I+WBeT6jcM8H/vQKC/KjHKCB47rZYIORPpcZvBOBTY4GZkgVyKvNBC8SRCKgVQWBaPiG0GUMw6ReTKQl0OeE+ULPaNOkYcyQxa8XFZs87w55vkCRul5OSEv+HnecfJymwQ/eCcLWgZu7IxnCigVXWSs4QkAFGY2vxGEUcZhbohJGIH2TI0ymj6XlyP00bQ5wAudIk+uVwD1GoVJcjeiT+JtBBqUi70JELpFAXkh4xQPgJdHJxi0uOVpEmDYSTjOEYG5sXMI/kaAblGfXOeN5IUTI+8kBEK3gFHbBALQgx/5Yz/oQJ4Hej4nOVk44RCQKxqVYD9XZBxEegDF4iwc+U4EUdlTxYAwRn7m70QwKieMCyIjENlRB3hAnjfH0CFsBbKf2wJabtdIE3wgygk6AC3ygZGP7alAqd0b+IcjT+ZqYCgYCIRysQ1er9wyXtDU6aYHOPL07KP0RCjSnirE6084ecVVx1jDum78FTqOA38BQ8EmHb84jpNh/ADnMjlWeX6FMwoagciHPK+v5IVuiOYiKUNwGoZllyKPS0R/bXtd0YcEX92mG7Nebp27EBFX1Icy8mAarWfwr+dq4Bd+2w7vWbHL42pgX6lXlL6rAPjDT/+mXw2sVtqrAeCXWPvJaSEs9oFRRwZ/X+txu+mBz9ihIwe962bcj26cFjCq5CpINB9ZnsBNZa8Vf/IggRPLFHgATAB/tH0C0IVOyhm2oNy8bJyhPtR6A0KKGwqwoVox15sFvCmEN4VWy9MKgIrVKrPWqM7ay172Cts6u912VDf5N5bGAfaNcgHKpTwPgG9/xD70xd+2hd1N/3Lo3//pf5QuB/NO3o0CgMvBo0LBvOsBg4cS337iq/YfP/pPbWn5mPGOvKnGlL/oYfUysEf48TBUEf5FjOJ4FPzyZaHHKQH6CscB0uIDmePAn2ko9nPwfCcKgAlcdzc3Sq46nyUcvQCoYaLSsG57KOfPWL9XtZXFrr3vve+3N7/2bTZvW6zar7ucUYhAo+zwU/jo+rs+ah9WABzdnd4USgCc8FQwkDs5BOddTdBBAN6g17F+e1m4ZK2lI7Z87KBvu81j1m8tWXv56ETsrCxMxPbK+DwnROUbJw9sg+PyBI6kz/P5/vJ4pL6t5SNeNvXuto55emjwUrlF+Y6URZlH5HD1nN1F67UXrNc6YnPTQ5uuc/5kuQiW8RB+yP0RftIOf8VuESitTm/YVQud1ANwQwifcvPEEhjOp5Xj+JiUAPCCv9B52h7Ye6t6AM0DOrw6TTL052Nmpez5J4G/mSwVeRx4i5rA2xBUX0ktDo6HMNY4WDXgKIg8ud8QFNm8gTAf0M8bh3q41PpZDZGILpZ7C1MvoALV9Q9sdnre2k3eaFb2B2ied/7FNj+zxRrDObXcySup3PGUB6BD9AAMAXw4kncFl1pdBYCcOCkA4suhAbkxouVHQAAcExSDctd4IbsWbonu/3EulU/j0iSY1FUDqW7PLAI2EPvMAkCwoSbK5mL1zwPXSSJKHgHAI+wcp7GfsRsbsi+qbF4p1zQM9NRoNO3j7Sk6riiPf1JngkroSl3APADwyaeZA3zht2zhyWZ6WfTP/uN0T2BHLXJyAGg50k9LjTDE6BIlAoBCoXsAqAl3FMXpaqLyEPBC9CFWNvB/ETKTwY16ilCoPhE2krlR3kmOAHKZISNoHHq7Ko7ZeCD4nICHTXj5hfaLJ5GwWWulbzPTldQ7erAcD/giD4AICHxy3Z0fXhcA/0ABoDlVpuVYSJrn0QREAREYOD56BIAXQkzXeIZeeTV09Vra8kJG8XiHPxPLccj7nnnWYhzvlBE5gZPowRul5TiaNzt2fSehTMed32XlyREaOJrev7Gk2T1Y4mENLQEH3Z61lzr+ucA5OZ92I8u7jcdBOB0MWPWxSE5Pfw7yGY5MB5GRbtpnvtrvadZO6yaCuH8ubsqABp/9UecTFAMeqBvysei28i5rJSCscYt2V2PaslI1x2JJWC431WO0FPl8dLqbtpJTLonn2DohIgfkidLhkInTimR0FJi81ZvyE5ZKK0qvtBsgZaMPMgIrBZ0PbXMTLenS06vio7/r21LZ0Je1XRIuFvukaysP9xp0VF/sRJ3REbkrstER0ZatUW/b1LTspjoYn7aRvkO1pNz2ud03Aj/HwO3IJMfPSn8Sr4lL3UkOESjghkA29fs88YOiiiy09NIiaMai8viYSXrvBrXVn08gVYH04qoxmP08rfTmJRV0p35bN+oUNEeVBT3KnISUT1efjpHtFXM65wioj9uJiV4x2SuocqLKrtasRuMRsl+WPfy8Qz5+pH4dv2hf5ZSr0lH9pbbKIJb0KMod9cmoP8bxJ8GJXxZdOCUERpe/kVCA++T7PSk+KD5+oG2vX1GPojGM5+s2QPhDzXJ57g8ZA/LwxjDR/WURE5A0pCXfgGPKHfIqFmHwivKh+avKkMlTP6vlHo/o3EceM29kkV7H0J2HXPGirL72Ey/ZwHVBlnik4x0C8Abq6kHXjY9nCXkrGFi2GVmRZ88brh/PFAy6mqyrM+A5hPBH+CG24as8CFb9NcZlJ7wWMFbQSQDfuxkMZQjFF2e9eLeezwAU1eWqDCXaJEyfsKeSa3l4goRWTksYlyehjKn06UsbtHiQUZN84kknf6MgM2kdw/d8an0E7CTk0W90cfQegxbJMXQFEFvVD17CxBsoAHk/MTN+JsWOA5bAyTarsgK9nlwpVbBQD3SlDuhKL1rhsbdpydaxIPwB5n6KbQ6T/EZHdFKQFwbkBY4FsehbuPeDx7SiJ6fDQURXk6FxyOtVSeNvhok8GUI7GfTXtD5LGLrk6LpkmJ4GzlA0bdalo15eD9G18a3EJ74OVsskHXT9w3ZuQyHH2C7hen8A0fpzWsAkX2lYo4VsDBsVNglKlZ6/jaPUWFEvq8mLJjNlHVujbcOaJkANTbDGoAkH4vNdwLLSlqdIq2PlH4pm5K1r0jUOG5oAOhby6gmtlrAsXSpTmmxJJrLJA31Y1cQt8ozB8lSSa7WWDaqkR16UlcoNHsi+66JyKtOhvyaElKf9VL72qwUqffCHmigPNfH1joDX4VW71iu1ra+JIp+681fVGS+cWO+TGKpzevBWG+sYd5V6g3QxaNJXw+JEUAhE0Ghh46BbXvSXJB09dlTjYM8nQJTfK1YPaSI1HnjHIJM0n1CRTkWklYnKD9oJIOnmO97ayOGGGJG5uozVZG2cgRKQfm3JC6w2ACHTWuZSnMCKcuDDS/nQhTa9xmPO51jIW+0SCgaTU7Lw4kxeLzc9NWNzvFCrNiv78KYS5hRrurBKQ3bcbue6Cbxu4oPpRBDXApbtyouLM4Enuho47tnAUaCwKBAjsUS8a8/X7D/9yT+3pZVjfvWPJSTv2eHt4My+I/048MoU+zlQ3b76SIyZl0klQeYILGvHQbJVMtgoUD0eXp4Eq+X4/wRRimoiZ6wPjvjaaqwWRu+6Qh6vfucFEtoThcDRPnWArzkDY0NrpWdzfKdIyETxve/5IbvyRVdbqTtn1cGM2xVbAZTdU0MDwuHQ0It9yvTPxn0xnQiKAODdBt8R5E4IIzhNS5wen3zVWripdS/PzPfVnZWn1YvNaRJUV1c2AXtK1x2D0G1KFZqR0QMljy00m5YODbXEMThs9K0v2ePQy6Vrjf0RHHp+GSrDoA3ULZMm5xn5eMWs9O2rO4999O+zT56qnFWX8/lYJvn5gmhD9ROWGDqnerZjFy+3mLKDC/vtgUcesN17dxufwYkAC7uH7QFsHz45GSjHOfxnAuOcD0Dn+vXW6TNtc/0M+WW7ldvzVmrOWrk1ZxXtN3pbJmK9u3kiVjubPH+1wEpxDNbEHycPrPe3jqWDU8KZrrBz6tjoJL0akj+leoLso8s6VBlRB47rXvZW6bVtFWvkE1b7W6zcmbPuUs06wh1bzrWrLn+9XXzBy7Q+2KQeWgNzEQDYPT8pd6pQWml3h/1a9RkNAVHgqPNRrltetmO235a6S/7iB7i8CFIJfAiIiD1VyCM9wEsuDBCGGYVIMw78JM94lsNGhu0OZHwNO36CSGUjxu0hJJ9PslVulO+yoLMEpasv7gegz+fDED4MKMns9KwPAcucBi5P2YyGgS3z2/0q4ebaJj9tTDm5Hb185WdLOdEw43jcEFBqKgB630EAUEhg0CiQL3l3jJcrMs5R3TRWsY87uFY4CdTBFXvHg6qk/8khSRY0yg4PJtrxUDhhDFAa5+YnXdhxp40BmUb1UAvUPnOBKJuS0FOWWK1LlB46p3MQrPOT8wPTnEBy+12brsxpryJLKc+wqiCrai4wFF0yC+fndg9/nEoAaPKbHPNMII9ACqAg0I81q6oO+NbfnGNV/3lzl38Eql+zxnB2MtpkrDH56U9pO201vrUDar/an1awjs+TcG58WSCfousL2Z4Ckm9qoPoN57xs9KgLkTk1nPd6p7JnMj1iH32mhDpWWt402lD3zrsG6/BKm+T2up9J5HsF2I3X3vNZGXwejgfC+YGnAuUyl+2eIaBEKBLORwGn9RUA3brGvppVe1Xt1zTu6VhLmDoOhDcBq13Sj8daL+WvI4eXPvuLnwuZyFd5Y1HljysLrCpfua9lqrbjkNOwY1FyuTWrLqSu1W7DKkJkQqNc6l7paFug73tdNBleh5UivWRQPwVRSXKGbXpgpZeNed0R7xfk/cl5w3smjg8o58KAEBTdRxZoxwFpc6evCwiJ8XsAdOhjrI45k0v/wDqf40lYnPGVXCHlgIgVIhNEjveWUh0e/Ri0KO84zPicjvNrIJxXgMY/BAhZDgY6TZbHOpMQQKYnlRxwVA+Oc/QyM/7osd9oKt2QWfPuvu/5Goo57MMJgrB9bv/kL2UmSeaPmCRSEGn5pUpLnt9+BbOA1d1V+hpvFFxYIQiIAosj6amChUz+hkwAYSl5Rb1O8Mbh2rlTIWtoIS+IkhBhoiOTd/1y2ZlXyvvt1RhgjDxQCV0nn2iBvk8AKI9+fLaCL/0wNwlMxxrjyxugl6sypNs6zMsfw1uNoFS9DJM87qnky6p17qkQ0vKrioi+JtToDuR+OynIkofXPKDCieFwfkCiR9JTBIxbVY0qmthUVemKnCST+h0VfquxthNwWJZTA5UPGrLAoFtOl7yS1vGUk8vJMclRPk+viRLvBS704PY1Xkyd1ubiF+tzjvvKM0T/Cag+e105J4tD5eNFmkNs5HKg85p71UNYratxiV/iDhJCsd/SCmDZOu0ltfrkG/xFq4+Wv24IziD3r6cnaIs05PCdAGfAE52MI+yTBhWj1tPRvAXjypB87q3ftBbLQuPLvnzaeTx2hm1HPx4mWo+vjAu7GQ+5yI82G/nHIXmavaZ/rr4zaElOy7euk9Pa1lNZqQ8otpQtelvpxiH5V/U8ZVTeEu8n5MP0IDohK+lR4nYiacE6gxtAyuptao2KzW2a0f5az4u/wOSr450fkKcv2rfTtHxVRkKqgBCofwXlmQHvCexr/dhTNA8Y1DSWlbkXTJHN8ml1wByHtQKLY146uTouF/wS7/rXfmmVL70ZNIs8o1hSnnJD8a585DENQ2zLdeklrKmPrTKmSkQgx7zAsqbtOPT0jNFZOSePFEDrB+UMYZkxXjz0WmouWaerIOkqKMBOU8NC24e96KFHIZwfPozjSQC3GAL8eC0jLAIjGM8AmFu0NT43VQlVQ62KHqGvFpPaWIr1CThM2FLkj/JaBY992pHaS7E9EdJH8BkK0qc2Hvt9/fzzdpKLdoF+LDpX3yYh/c748jZGbIJl1Jes/bx3U21kt6np9Oo6rqGAfKdATlEAMEfIunAFIX5a9V2BOYQf2fgdTuFWpSt15SmtNKTOgn3kU//WvvzVa/0+t7e/7hftnf6iSG5U3DiSxkFT3eq+xadteWXZxx2ubsXVN5TYMLhgFUV6MK4Wrx3lG83rFS7SnChokRcGkiQvi0tP3uMiJjMeslyVEYMGQE3vWU7HpwK8JXSgIYyrff7Tlo9gciGIbxKwUuL1tDKY7/Ol0W1bt9rM7JzmA5xxXLszG0BHEPuiN7ygsQ9yNTB/LmDt0TDJ6SoAuBy8GgDX/IJfDq5JGQLAjVEYNwQDOR0IJR46cI/90V980LsyTEUA9PhaKBVTZHNZ2HOt/sP6/pfkFfJxmBN9nwguylstM+niz+/BS5Skn5Oy9KQb4UFHJkGADILUy3Y6hiu5rqQ/Doo1m3/X+BRBblUvI7uqLHRmi1s9IBQEVY0J/tbzypSOq1bX9g3f90Z7yfNfrvnirAK27k71OiBPNgeB1ToLqCv7HgB3FgGwp2lXXKwA+Klfs1KneDp40qlgnygLR4W6EQU5HQhFbn3iRvtXH/4V6/Tb4pMuPQ0Ej8uYVb/+nvKSG2nJMcJM3ihE+nEQMtbrl8omX9DGQd5iwKjXxvmUVk0nTdZODXB338NOLRbU0FjWFuA8/0xj1lrLfauXZ6yrFrpyrGPvf/9P2OuvfpPtKJ9t9f606xwQegMRGBxj7zjmuQAC4Niell1x0avsl08mAGIICKMAsZ8f51vg/n3fsg9e/x9tYfGoJjDpEiZ8goBs/gJpQciBN07OKHj6Yn8Uitz+Xyk9HS5iX0JXOeMgXbsXFPI9bejj/ycBbXnjFOOAHAQBzkcG4eD7KtO/ntpnSKjZdG3epmqbrFGds3f8wLvshRe91GZsi1aS3ICa/BD2iv1nNQDi/QAIioJCYBQSBQFBb1UWbF/rUVvWENDr9fzGBfKFgvGaGNIGhPzYniqQL8pflYtuwuBtBOvyCcgDRt3Ggd+86iFzPHgtJlSFoCF0VnsA70XYQmNhwPgv2f2a9bvqG4S7dp5ljdqsONwtnK4Ghq1yp0c9QvfvegDkPGjwB2Xm5kuqkiaA+rHAotJhLGbPsc//sBNpJlpN4JzJbBdGWSE7GboITv9/PIQ48pA3gHzkz2nrAXeJp15yHGCTsMtxoCzpWYbUAxAACUmvnlKNplGd1pYVa8N7A+4KHnTlUA2hnmvEJ2530UZ9s1EATKpZBmuVyAWHcDDngQ79ig1bXCCZ1TAyZzXj4kZDnq9rf86mh5ttarjJpm2zcItv/Vj0GdNsdxIOt2i7EW5dlQdCm13NNyKrwOC7TpZ08i26QC9kHY+bxE95xyO8bWNxWjgl3UD0TftbV2mz1dOt2lNr784Ip6zcU6tvqUfocNIj+QAY9cmpwgkDIKKMQiLKosDRAAgeUB5WbKoyr95Ds1i/iVHBIHNzda3vy476GvY0HGTHo1fj1qNkTcCyyuGqnnVrNuxWC6yJpxnzgDTj5CUkL9thp2YDGZlt0JNe6DiK5JUD1HufMmruOGzJvrLFoKUWrcYyaKu7Fw6FRrkq33oMBdryLABl1bSclsnH+SR8dSpwEj1AAgoIBKKgOI4t4LxiCcVdL9zrzurK85d56MEXPI7MBbUyLK79cJxok1B/Y2mrWND6aiW8gmWVX2zzfI5Fviifr3qR1/UoOmRtZCl0X4/Qye95tXVZooFxHDxobu2Cj1xMJt8l5Mxk8UCJnxZkWNHSudJQy+esp/74XL0WC8qLRPIrT4FA+IRtHgirvvL/gmBRfrE7EcYVEggtbihhdh/LPE8ryZy65RQsdelI564K5nQtNL/vneAWT3XykynpVG6iTUSlY8vDs+TzL57pmHzplPAaUq7vF2liX8OqY5QLPWRpuuKnYvFB1AG9+SBUpAE5ht7lDKKaM5+l8Ys76FCRi3Ts10H4bnFVYzuNmDpry/eG0if1pCNIvVWOl1fI9/kH92oUeiiVlae400rljJx3WHWw7J77J8ciAf8U3EWvrp+L3gjC+WQY7fKDHscBUWgysPa5760MKm1RUTem8yVTPP/GUMFzp0zA+Bahy/IvNycjujwdcnLFDYRRnZdOuKTyiryRTzJUsvPQY5UuTEExVKtTCnREzjpd0BcnKTdXOoV8pXwgh+N0Ln5B4yolVy/5lrGffB62PU26mhnlCCWTk8sEx1B6gNjFT1Nrwtwries8NTB6H0H4JOwdPjkVwOQngCQwnE9BQD7e59vYV2o5hCphAOVzYxVbjFmcY18LjoTw/GNKEzDl0T7pcZi2tDbkcf4+yoNeIqhUJh934oPSazwZqwig4HnZ8AgQ14HU6fpAyEvlJ4RGGr9qxz56qfykA4GgVY70ch0ow686pCDgg1Orl4XLKXC4KjGQk0M/7EBQSgPl0U95BjifEUIBgP3zAMhtfypwEgEwHkYLO04BKVYC1d0w4tObYXM+UcLo6vycpyzB8xkC+2MweJ6+QO6eQRaDeqRxOlv3Z+SnzIy3Dik/0R2LtCFvvYw1OSxw0zKX8wFCdWPcDwmW1X9XhM7Tml5eVKwI1cWkvJz9E3IWEJmuB92ybKkfZiIe1db5J8C+QjYZRKP8rgRARBkQTo6C4OWF53T2UiXTeXYudNBYMByzPpljIo9OgeOxKKkpDw5TOdIt7cMrnKj8vPgAPpjypXJSnkRPW/KEHkle0oHLLSW/7OtnMTyd0iO72E/lias1emmgCZyWvmBFx1UN9mx5ySM0XurkKBr0igLFHT/ghHCShZ7ojdMVD/qnuvgvhUUKDOiT7X6qcMIA4MueeWF5179hgTJqVZUHK45Ev5TV0AduxKuolUzC1KaUp0hf1uDJflUtrDbkc9EFTz1s8EmPSxJPZeU88pECHRiINRqUNMNjn/S1Mo5UuZ4v6ZnKRB85Fuf2QDlXy1lO0Vb6kignw/NvDnKspVyNbxwOxScQ+gSMnC8TEmj0E7yNDd3U6/sMk/LSDaFoSPDQi8gnmux4Iyv8MTocnAoo+AvnEmNSgMPUDca4FmOMErP8Sb4XrQjRFKZOD4TGJgVKgUVSZLk8pwOxFRT8jDIG1uT51bui0nlR6B/3CHrCdTzKKHjKt8orIPEQrgMtZROkjJ5sNQsEIUkRlYvzhIKC57IKnkNx7J/TdTkqh0xRCS+fRNhcDmZJTVuF5qzEw76RjX3V2umeaBWBfH89cFOVC/ROhsimdXir12RFk5ayQrTCXS8CjJ0MTq2UWXTeAopwLvX6K+G54RGFGNjFYlLDRIqPLVMWtLLWtcxwfQUgmk+s6Le15AkeX+ckfZebMrTPrBg+EyUmbT45gh59P3fZKA2TKm4V41r7gJm5tkPlSTNx6eAz9OAjV/oKfXIpWZTPHUJelmgDTS47vZbfpIEOaQmrFqd9+H57mezEPX3+BVmhmrLqnHRHB793sIb+ykPdXHt0qKlMFSQHD4VYtSfbMu2Lpaivjgo7Ydv+gI9tK4uqix/CJ/ggXSoPZ0/C9aDgIpaLHz2Afikd8ZQyFNzjfs6mbKHf0FBEKj/4BCoXYkiXLsmuIVInoefRlnTpbRxJlqPK8v6j4IWsKCvFZuIHb61BRT7xsKLnk1NYP2p/EuayQNejwJBHY/beo3AKXanb1unSC3rBRwzlcyGJpjfQsEIWeoQkL+oluVI+IdngE+2+N/bnirBV3kiXjmN/PUgNKUJFikQYl0eXHaFp/JuIUpwzU+zL/fppLPQRTSia8zRWwoO2ytPecbJylFy2nkfNgFE/5PES5RSo8DS+io8856kH4yPV3EBR0XoJZNaADkONp0zIfBaxypMDlIdO6zgdMqyolaZy6NKkG/VGR2GVlzdyBk/p0IGbONxZzG0KHZ2Hg4XIC73dHujmsgoeuSQv5Yuy4FFLWcLLQo/xurqt2RbotNV9yRsBb/8J2CangyxKKBdy4hyPSujRnZZEKtq7oEKiR33iQXGe/1K+XM5xWPCRqWwJsrK8txEpzTESj/JST5SMuGoQGSsMoX7bj4PHMQHjQeW/ovwRjFvYoncNPYA0Dqe80FNTLvI6PfGSjiHTKas01x2eMGw4jpfLm4ietkiTbV3WGMAKxW7mfBW0GpRwXOgEhB9KcyQaSruRnBLOLwCejDRWVoHeRRfJQx47zveyYKyVlfhQYBRVypBw4bdqiKALCRZvicXxOHTwrf4V40nUywEetCJt0iLTr6A5Bm2VF3YS8i/Pl+fNbJjrNooJClsV2ySQ4+NBy9nVXAIloXzl4jZrjVj6aexiwjYBfRJWIBM+zqwxAeLMnE9gfGKWMJ11S7xxsgJpwMgjPZMwzoQxSUS+D4HjeNTUeb5Scj+BmuYpn+pUIEEdPIIceUy2fEI6okdgOhVMSfpRbqGLdzTwqE/QpFtuC36kIS1lQXeq8mAnjjyP617kE40LP2zdvsFTHTlxPU7HQMpK+hZY0DTWuDdHgRNQ0ordFB/spsxelJAKU8HjkVOa/h19ZtFsCzqnQ5lpB9/TMOsWzR/k8HPm62XlqMW2AgcdmCsXp1f93LpkcTp5HS+dd/fZdsFjJbBaDuVneUibbgZPOkDnCZzQbxx6fQLRI2Rqm07xFvXJy6LOlA/dVxqFbvBcZrox3VcpogUf+ZQTqxVflkU+rWROZDuvB2XH1mkcSzcCYQS0tE+TF4AlXUVLnGpdEw1fBqUK9sutDbHnT7asSLmmH8cjr4Ny22kdW3bslZuS21MZkjwiI8e2La2mH1Z5JBbnY3icl8oiHbyh8zBkKosnbXraH0AT8nat9PTNinUKXl/5BsK++N0Sy7iUr1teGYudknSpJF3Qf1BB5oq1h0uer1+RDaQrGOlByuZxtEGJpxKSDuQjPeXzNrB+IWvVRoU8t1816R48L2vEVqPodlK9XBfKqoqOfiqfx+j8yy09LTM1pPhbUn1Cpa4R6HY7ttJSQVqzezRKZa5iueLPAF3pMTQcPErfCMMAERjj0qxDf+Qqw6C5QzEkx4VRxfNtpBuDHljF/rryQ36OwSvShs6BQc/TjcM8zyiOSx+4Lo30wfEgNB6Lo59njpWW2ur3u73hcKk1sMps2/7nx/+l3XTHtVadX7Gzz77azj7zapvVoFDzEw2nBkxoiDLmGAnTcUzi4q7gEwJyiuEJ8HFsYlbSraVdB8rDOtxlFUnQJQECJ+vj8yTPlvQnbV6nSZBYa/x8vjXKG4V0cmc8bFim1nVUJezuSfWP3wP77rQHnrrTDj52zF5+4dX2j37hN1IArLSVcKZlv/9n/1wB8EmrbFb31d9li4tbrNprWk0x9P91wPScUJlku42MStB54IzAJPpJgbIx/I4D5Pq3AiaBO/TUoV9vWXVuaMf2tuyVL7jGftmfDFIAdDQHGNabdt3X/ot94vO/Z72pQxr/z7Be9zlW1VhSMY1Jpwge695C2JHC2qYGEC2H/fEQzshbzOquWBtkVd61PDlA9XP8Dmm7lpIlHc4YLzl0zfUh7VqdJkGq66jOa8GWU9cDF+EmwYbBqvKCTTpXT0To3KjCmefWgYG95ZXvtJ/4az9vpcte9tINq/C/4XsbxvdB/xv+fwJm/y9ChEvcPvgfjwAAAABJRU5ErkJggg==;" vertex="1" parent="1">
          <mxGeometry x="200" y="360" width="58" height="78.39" as="geometry" />
        </mxCell>
        <mxCell id="mIDjUX9PuWNVgNelnrzM-28" value="Weather" style="shape=image;verticalLabelPosition=bottom;labelBackgroundColor=default;verticalAlign=top;aspect=fixed;imageAspect=0;image=data:image/png,iVBORw0KGgoAAAANSUhEUgAAAIAAAACtCAYAAAB4DHcjAAAAAXNSR0IArs4c6QAAAARnQU1BAACxjwv8YQUAAAAJcEhZcwAADsMAAA7DAcdvqGQAAGz4SURBVHhe7b0JuGVXcd9bZ75jz1LTmpHQwCgQkhBiEJjBDIZADNjGOJ4dDy+T4zjPcZLPGV4mJ9/7YjvJixOH2Aw2tomxQAhkJhkECAkJCc2z1OqWeu7bdzjzOe//q7Xr3nVPn3O7Wwh/3+Olzq27965aq1atqlrTHkv/+T//l+GgXLK+dWyhv9u+8vUbbGBL1m9PW726zYbVtvVLLfteh+FwaKVSyTEAWtCfbSgNu1YutW1Yqlq3X7ZKaca67YqdvesCu/ySK608LFupa9YQXwnNBn0y+f5A+ugIBU0U6QdKd/0ChgPpLWai6lcqK2365VDq9QfDloQeHey3Ox+/zv7r7/9Lm97UtGFrp1X7Z1mvfsR6lcUi+fcuDIeDZER3NpicnwKg7GmeTaiUmlavLFtvWLP2oG61ymm2dLRk5552ib356h+wN73sTVbtlqwuLJVVPiqVCYCh9aRPT4Shmip6mrPL+q3pDqskLA9xv3gEgCKiv66eStMfDIZtHRwdHrLrvvJf7c+u/12b26LIVACsHNli3cFRK6kX+N6HZJDxsL7VPDvQVQuVnWsVq8/NWqU2o1ZbtWqvblvU877nze+xN17+ZlMSOalm1ca8dZotq01Ny/l9OVMiCizJsasasiNMbtd/EhY0b/+eXjyCSlAaKACOtvs2mGrZH33uP9gXbvqYVRoLdsa2y2zn5svM+k2rlom0720oqxektcscshQWxEippTjtuwDul8bAWsNlu/fhu+ScntXVUjsLHZsdztnP/9jfspc87wqrl7fYoDtly82ezczOSp++WvTQnZgasvRGd7VuhCYHo7ucTCHSfzgYsCEyPN9aAPR7w0WNQb3asv3Bdf/Gbvz6/1KULdlbXv+T9rarf9YaSlRzKd/bQHuhhSQjuhW926Qlpa722YWB1YUNzbyW7NFDd9vv/8nv2KHFJ2yoBlfpDWxrfbtZc9re946ftKsu+37lUBDYlHV7ZlPSEZ+4E4kA6UvXThDgKkjlio8Lju58YeIRNCmwgVKv2x72qnVbliIfuu7f2Vdv/aSVq4sKgJ+yt1z90zajoqb6FU/8vQxhkGTECIBEo2d4tmFg09bp161VPmJ7j91vv/ex37QDiw9Ys3nITt++zY7sXbCZ8g71xBfbG9/wHnvppa+zqm22lW7XtlemrN6XboV+rq/+BvwDIIN0AJoIUCd+MR8Aok5lupNjS011Lys2VHRV5PBqqaFkRKiSDxpWGcx8z2OpN+Xbms2qG573bU5/trGmiZ96f5sub7KZ6rxVNRnstdWyqw17+WVXWrU+bbObN9ue/U/bp7/wafv6t79iB7RKK9VamhSyIsCLEtAX0kHJnziYXoufB4R4DF/8IJXUKxDoaahLvYKHw6a5aZufnrOpxpT1On1rrbQ15qirsTmrladUYE0Za5KQ0I+/i7haTuA4nvbLBSa6lkuO69M7Rp4xvDyfqY2VfNlV8e1QzWEIbSTPJEy6FToUZa3pt54HVOQXUcx6WoSv9KzbhDZvV135JnvfD/6MrSxTfsP2PLXXPvGpj9lDu2+Xr4+I1tK2o26/qxbOgpDuHY8L9edQ7HpLj46CX9HyYxgoVxUVRImPdFKkUtKstKZWT8UVH+o4tO6UjsrUU+aEKks0kOKfbVwth/2gF+X1FPWgl6+RaaAQht9V+q7qofmxHzu/4PVEA0MG9NCdPB1aiozh6aGrftQx9PDyJ6CW647soxfyRstKvKRf1AunMExryqfG1rGpKo1whx3ep/3yc+wVL36rff8b3mdbNp1p1VrNji7ts098+g/sW49/UfmXrDNsah3RUtmSVgSBOzf5130OpkVA+vX6fev1pJ3SVSrycLWahrlILH3SyQPGCh8vZBT9+voN6XYIWSH7Wjc4DhhjnmVUH+lIOUOtQJzuWqTjoXSA1nfnpH3Wx0k3jgv9PFBSnjWe8oie9KdOGuhohi4TeWs80peqSf4kpPxIz7HbSPm8LGHSD14qK2FKo/FVrbAtK2tJiO0H6h00PJT6m9TuT7dXXflWu+ZVb7ctc6dZQ73S3t0P2yc/+Uf29bu/rI5Ecup9W+ouWl9BMJCtSjVJwYkSLcE+HFRYCQiYH7iPfeXAnpLJfkxzHegBSk5AN2UuAiCq58ZwpamcKq84dON+FzAZJxmRYzegm7jgueH1Uxe42g1iTDdsOIbVsnQs8rBWJl+SlXhRljq9NZ4mQsGjnvB8fwL25by+8rBP2YE++RIX/ZIOBHRRL09Ly20JFQAlAgD7a+gZTFm5P6f+d6ttbpxhV156jb35dW+zTdPzNj9Vt0MHn7QP//EH7baHbrWVwaJVpiVCAdwddqzT0TxuILnyI75jKUgLdz+Kps1qAHCcAoDEniEh4ZNvo0eIgCBi/DQlNNV1tbd4FtGnMWzjOMrBtvHTvizrCI9IX/15XtE9PfKUN35F+timHON5lYLrfOjj0Pv5XJZ+vi+a6DnP5bEvHIKKLrcyRlaQlEqc3+spldb5UDQpPG3TDrvyJa+yN736bVo3aMJYnrOe0v3Bn37QbrnrZnJb2+T4ihxPLzZUcOE/b9j8y2uv8o/rATQTRIhnQh0RYwsdZSsorYoEUrFUSVWq4D+bSAPxMrJyXI+sPKev209pUr507AbXPk5yZ2hwD5kuq5Dr+TbgISPKHcU8vaOOcTiNnjLH8ZIusq5m/mmiicOYGXRkc7Dn1HqpbhXJ2Tp9ur3+qrfY2173LqsOtHwctG3/4lN27V98wm64+Xpb7qknqMqxVZXrkSd5+FGYWrrK1C+WtcBqD8BSwBVIZMe1HkGzVLUsTRXULUmujFTS7Kgig9SkYhUjY5xnGcuaLFEeDqnqGKypLNCdi2ELWujg6aUbiKHRL3SEht4g+aHl+sPX7Gw8T3LZTkLSBVaErh+2kjycN8qDBk8Dt0zNJNtP6RTDQkeoZZ6GhbKGloaGH+Ki3K3YbGWrvf2a99rVL3+jNdst27Jzsz2652G79jPX2r0P3WPtYUsrQg0lHgAEl3qDYqnnPoWRdf0gIFuLCIOfIoexyyPIIUUOW4ArTGT0oyyanm2IcqRSAsoCi9OX0GMZ4+i0Io/Au7gcBUle0j2M4VjkW+WP5nMDTgZSecoivUMhCziOJ0jlYXPtq3kRBJzbGyjw0FBccdIcQsO4tZtaKXQq1u/W7f3v+Gn7wHt+3PY9vte2bdqklUTPPvTR/2a33fV1K9WVR/OBvpYXDCID5hQefJzNTdLj5z4Wlsv1mWLUodfiR7FCKUlwpGWQfkoM+hIKPwgl22e6p4ySw1QLecOKaihkyzH0jiYyTN+cp67N+dr0oAvRz3Uo8rHv071CP9JSOb/6JbrnILCR5d1k4lHTrsZMsFxLPJ/de66URzb0fKFfpI/yXB75lL6nFthFP6erS5ZMz0d6dGeCKZnluhxTk72VTAkVHzMKCI3t/Vmlm1GamssfqLtQp2HTM3Utzae0VNwsJ87ZO694t/3E23/MZrolay8dtFb3aQ0Hf2g333+TLWtpuKjl3nKX4KKqCgAtc8t99SyDjmipgXsbkB30R8SByqDC3HB+BEAvjsQrcYFBCIVz5sE7ZZSstJ/kICmXx3lsMB0XaYToQJNI+eXcgu65RvRbz4MuhziPthUy1/JBn4QhZ7QcMF2ESUja9Xqs5U006gRNlKJsmh29LnT3g2hJEj0PE8OUDCwPNJPQUrGr3uDt3/eD9pY3vtO2bNpu1VrFnjqw2/7s+j+yb957kw1rK9aYZUbBeQcFX1/jSBeZ3jKEQJJaRo9UzfHgigroGmMGCfrcoeA9Ewg5OQTNT1AU3X1f0ZyXBR1M3egaBh3I6UDwkA0tlweNkyIbwdpYuqZjYMgLiHKA0GFcniHn3YuJn5UC1WxZCTAfwPmgAsilubqSRYvWSqCvnuI1r36rvemNf822bN3pvdVTBx61P772v9udj9xoS7ZXfcEBKzeke7Viyx3m++ptFGHICFQAnLwT11dgzcDPBJATkBsQ+jgjgnke4ER0EIAPxvE43kYwKX3Qg5frPQqRbzWvd8VdbTmPkRzvzlfnj/PlLqH3CXKUZxAqv8a4emXWBt2GzdROt1dc/gbHLVou1jTkLCzttT//9Aft1rtusGq9qSXionU0Ky1Pb1KQRAAUqN8JAyBXPK/sdwqrhijkxTan52UFPYdcLyDPE7w8X/Bzes7fCCJPnn5U3jheQBwHzU9MubOLnsCRlk+LL1BpXSJJHVWGnywym6rNKE7mbKay0666/I326qvfYHNzc1aqtGz3U3faDX/5MfvaPZ9VT3DY5yFacRZzDiQW6D0AtA0g7zrB6D7zyn6nEEYJiDKA3LihB/xROrTA0XxAzgOgUzdgtPxRyGWNkzfKCx0BaBznuJY2IV2xLO0OSTS2DEuchsyGp4LP/97KwKYko9yfsU3Vs+yNV/91e+3lb7eaJpLb5nfY03t228c//lG7977bFWLL1u52NEGlp6GuUV+XdYLK8ysqFpWmEkDQnwlMygs9Ny4ALdLnZePAcCIwqlsevMEDI1/O2wii7NgGkHccL8oBoIN5nRINvaVDONkdXaAc7ecGHEdB5Yg401Be+VMDvVW6sx4Eb37te+3db/1R666IJhk1rf/+4EO/a1/7xue1iuhrSFBd1cv46qYIhHJVE6C8EqDfCVMYyGfLheIYjQlTGG8jCMOOMwbYbredj6xajcumTFIGTocfZYBALgeIY/KATBaBPA/0Xk/Lr+IKGJPLmPBF/igLOvu5TPaBqHPIoyx4oSOQ54EW8kZlQQO5TNzrlKzVobtv+D6L+JmZTeqqkcmVOtmlrl2uHnPBCmS/tCxs+TmCGdFmVaVqr2xz5V32pqvfZ1e8+I3WWaooOfcYLNn1n/lj+8Yd11urd9B6XHuoyM79FetoaVisAp59iIrGPoARAkcDKRklOWIjIM1ovjxvGD54eXocNwlDr4CQC+Z6B4TcjSDShx5sAaerTTVq02ql09Zu9m16WuP57LwdW1zyy7Yt/VYGTWv2tN8bCPvWlMNa/UXxj9qgf0R6r/gtYj31BL22sGnWblXtx9/7i/bjH/ibtn//EZvfPGvHlp62T17/Ibvv0dutOViyo82Diuqe1dSL+Kng7xaEAQNyQ4aj2B9tORvBOJmRLzcyAA/IeZNwXCsdxwNGZZ0IIl3kQ1a3q95ETqtVpvwuoH5/YEtLOLdrm9QLINWvvtbVszXk4YZW9TX1mlW14HpXy7uOZvYtq8z0/IqgxJjESNeytYSvvPIN9p73vt+W28tWmx3YoaVH7WOf+KDdcufXbKD8mHlh5ciJJ4HPFPIKA2FAtmAYAuPSAvMgOBGEjMg3CiE356HLRhjlA+iQ65HLIm1ep8gzCYJ/XL7iVi5RbapRt36vI4cP7Dln7rB9K7vtcP8pO9TZY4eaT9rB5m470HrcDnSEvSeE+21/Z78daD8pfMQOdp7wtAfbT1mzdMSaw2U72luyl1xxub313e+w+ua6dest23dsj93w5U/b3Q/dYU0tDyt1DT/tbn/YqZStW1qwP/z0b9pXvvZJq1ba9tZrft7e8fr/w+oaj7iH4ZlAXuHYgmFg9sPwHOdG2ghCDghEXmAj3kaAHqQNDEDOOOcDUcYkCH7kC73A0kDDlWjt8ortXXrY/vOH/r09eeQRq2lQv/CCizW2b5Hd60IuFmkOU+7aoMyTRH2N7A1fx6fLigCyOdNf9SGhXKlZW+PB1EzJOoMFu+Pur1mre9jmamdaZ3HGdmiV8MPvfr9ddsHlVur0BsO2ZhPfjQAIA4waLY7XGUS0wI0gnAHkadkPWQHBH8cbBdIEBkRwAuOcnwfNJICXlxv7pb7yCXtTS3ZsuM8+8qn/Zjfe9hfW19S+XNLw2NcEUM4va2LIiaJBuWMD+YXrKKX+FrlcfbiCx0oa+MtCVgxDrtvOaX/ag6GjXmXAE0jTCqDKilYL8yb32+LBJXvNFdfYj7/vp6jXZOW/E5C59ZMBhVwoIXLTHTZyoLbpFjMdVzWb1syWLcd+GxhpJyKtoS85LGFAiSOvaAN4SsPlL2QmnpRJ1489zyT0NLQoBkUZ2XXnPD6nYgsH587Gkbljx8Fo+jygWAWWKXPYs2m12KuvvsouOP88NT5N5vpN1QNnt6xfBpsKAHBF+21jwcDTmm2laVeOWbt6QLjPOrV9tmL7rVdZ0oRRs3zJLtUbttTuadYvXWoKLHX7bU0uF1vHkj/60mhFOj2THmC1MllFASrakfIdRd1Sc8H27H3C2t1lGVUTnC2zduDA0+qeNGNxQ6uFpCmPsOjGB5wPx0iMkDoGM4OrNE++WqaT4XOcZOT6AJF3HPiJmK7GYs3K5zUBO/eMC6zTGlijMuOY1umSJ0RjP5lCw+EPvQZJNmWELfJhB3uAQPBcO5FwKN17R6PynoNP2MLiUXXjXevKaVrXKL3kuJ3S7W3pQpJ08sJ5bkzIfQQA+jFkCE29QUXLXrL3Bx1TjNndT9xqN93xeTu8+5i94kWvsV/+6X9oJY0AQzqQZysAwlGd6ood6D9tn/vC9XbrN7+qFtmzxeWDNj1btaOLh2x6Rooqi2JQuTBWOvHhFVNlPSwKmcBGDlwD5c/PnJ0kcMm0NuT5h5q9+PkvtR961wdstrRV5p/y6/D1sqbZRRCgM1fvivM4qoD0KgIgIA8A9A7nB4S9oEfasBu0qGsuBwge9EkQeQOiLOR8+s6P2Ie/9Nu28GTTrrz41fYrP/Pr6vhGMjxbwH01rYWePXLfbnv0gb12dL96hKWKDVp129Q43brLmpkK+8LeEtgoULQVLYtWxF/SpKbAHmlFY9tbrm2AlVPG7krZVha79tgjT9pjDz9phw8ueA2qVrepusZTNxGGFFVYKZzil3qzlh2GZouzAoMevHA0+8Co04A8fWDQOKE1CTmpBsYxS+BxS+SA7+g8QCgGUImoCLThoGSbprbZK1/+WnvZC6+S03fYdGmLO/zw3qZ6rVkrt+ccK515Ha9hrbtZdO0LrTlrpRZp5qza2ZTSFrzjUTKRe4pY6kxbv1W288660F764ivs9B1nyvlq/QqCfp96FYbTRnb0Pko1dufnDSiMHLbIbRu2CnsBcRzpwaDFCapecSYTHEcbxUiTp+t2NaQI+7xjYARKrU5v2NXM4ztdBaA8EBXUdMx63G6i7nJh8bAM1bGZ2YbG1IqtDJgPkF5pJX+ozhaUCbGrIpaurljjF8mQ68+4YygnToKNeBNAOtbwrAqi3dN79dolm6kp8IZ1ORoOLRA9Ugl++7h0ZDnmj2NNcH44FD6Q86CF3WIbkKcPCNuOps0h1wFgGzp8+tsfsY986XfWDwEh9DuBXKHYl0ms0pdTNbmaq83bjk07ba6y2fpdzllvtfnyNm2Fle02n2N1u8ZfeNttU/U021Tboe0O8XbY7Gr6dHw8bhNK9inirPRZWdEKQ3MAngksq/VPN+T8csOarU5hQK+WD/fR7cvlPhyEDXFs1D+MHgBvEh9absNReo6T6IFRRmAOKrHYWwO0L3ZPHSZVAppGHb8bFpPy2FNdLYkxtdSpWkNGrg2hTfu2NtD+oG71vlIIq/1GopFGK9e6Zr0cV/tTvp2ILk9pThW1bt46c7rVSxqS6PoVpN22ejB1//Ra5eicVD13JF2CDqgnLTVaMjjq5JwXGHkiTUDkyyHPF0CeSQhEWo6jLOeNcXX5+HvFtaWTKwrluUEqBYwW5MYQjhYEra+l3GDQVQsxq5JHMlkyNapaj3Aa1G+NlgKsT3XI8l3jhg25xOk8yRWd0wWJJ8P2tKOt354+CVFVW9I5FjS/XVvddZKlugVf+4lWdsf71E8BWymr6xedYTO1ekRhE+1QF/3nTF5u1XFOymmxn+y61iOE/diOQsjJeTltEo7Kc/qYCFAqFCqOHJLjc2VjH8iF5rw8AJwm61U4weL3vsloGE4VrioNXSgFa5WbtkrG+RdHWZsbbb3RSY7fFaO87DtKv0lIHmSFPF+uxzHyvMwkl3JQi2Mf9UsNm+KqSl+pFCzoWeFOGvGlbgoCPwojIy0ZLxyZw6odin0wdwo88gE5H8jlBS/PdyLMIQJtEpTTSYz1mXLw58tGFM8LGkf39KyXZP30goI0YdKecc7FX1+C5fEQzd7X/X3RB1apqoXLY1wYkTckD74mW/CUhzRMLMehe9T3aVXSo0CZIaF0kNkTDz28nFQHbqDwJ32UkhoFAl5TqiO9K9yxzKlaCBI5zllATt8IcrtFnpPJ92zBCc8DUKGITCBXOCrMfiw9QnleRjCUwfw5AJkwPZErHgYiOLRPd8rShOHCHc19ceF45eKhS4IHTCdflEd0PyM2Blk5UL4Hmpyc7v2ndIJQaVQWZSYauqCottSl6BECYVMT0rl+ykN6rzN0pfcXMIBFC8vtkTtzHAawT9o8YELGJHw2Yc2zEwBlAkYViArnCgedpkVHP9CW15qxTVhx5DZ1f+jEMbnQHSPr01v0ZRDoPHPv4UA6nFHsj0N/9h7HqCXnGMN9ej6fhotuiedXZekFVQ5DjQ5Uj4QeNJQonXwr+Y5KP9TcYiDkOGyU2wNYTT8BI10OkX9c+sBnE/I54IYwqkA+LACheICqJ5PxxJHW+HL4sFyVESuJpu52ACoghsjxvl2VVnak057YJ4hKvK1DmB5fK5D9cSjZXpa/iWM9+gxBvIScI+dUtILRdRFJ9fK5RgoNEQpEquYC6aJZYQP9VFmprGHD3yayvu7sY5+85xyFPE3kD9wo37MNqleMeuMBf486P1cy6KF80DAqjk6GLxxBEIjWk3cJCJxQ4W0ktbqVuS+wKpqCoVQ4qVLV0hG+tiDXuU+Imr1XKulCCFjWvpcjXrXaEEqm0wmsxPPyCEINWyU5u6pZaJWtjhnza3IyjvY3b+mPCaCfXi3KYJ+657aIU7Ab4WgAxDE4Ln3gswkldYt+MahXWrCPXvfv7Ctf+5Qq3lo9E8jrososqwS5o0GOAzgGgtYpd61V6thKZ9EOHz4kelfr6o5ajTrTfleOlVxliXxKUGzpmtlXGTLEKESo5mVLSKJHF3JcQKe0q2VlwNhL62epynyAlC4mxyhKW6YMrBLixQtcn4fh/4uE48qZDCloyEq+yMt8hUDmMC3F+x648zNbbOfcuVYZTHm6URjVweunfYLq+js/Yh/5wm/b0T1Nu/z5r7a//zO/fuIbQmosiSQTAQAFxKQFgB6Kg8FvVY/ZUdtnN9/2Ffv8Fz+rltW1ZvuoTc9o/O+v6JguNinpXbfKYUz2Z9mdnnijQFdMHX2c9r47VdZ7MhjQJkCSezyQAxfibJwaMn1HkOpKqnQcwJEbnPJlB4LCZTF/KOwzmufkQHOVbk+9Cz0LF39ksy4nSMzO3HG+/cr7/63NDU/341FAH7eH9AlfsOX4swqAP/zC79ihvU27TAHwyycTAHEtIDdeCIUGxj4Q++3Ksu1dedw+8ck/sS9+6Qabnqtaq3PMGtMyVIUHFrmWrTzkJwAYixUEBADd7iRI5chZcnS4OvRgJj8xAChqgjNwPBNOcrp4UqadE0I4OhqIA4Z3OyBvcl1OBN1uR/KHNjs76zIXl5Zsyubt9//dtbapsrNINR7QPwIAQL8b7vyofVQ9QATA3zuVABiFPAAiIACOKaxb7tix4VH75u0321e/dqO1uovW6S77naudrnoALelcSSGnY3iWHRHyQwqACfYPchomEkBDFh70IBgHYm8YANTB0whcpzVw2ROAk1qUuC4N9dAP2kZ5N4KBltT1et16Pa7qdX2JPT09Y+effaH95Dv/ls3YliLl8UCZ4XwQfzB8fPYODQGf/61nFgDhYCAqFds80qBRYF/r+Z7m/C119wcPPa3WvySn99UDVKzVXtbEL02cFJsylZzPZFG9QPICT8aOibp1MGpYGVx5R6nrYXxwQE2BOAnG50vwTPNtDJibCZ8/mKO1KjbmOv8mzQG213dZdcBLfCdD+IRtTB6fcQBMmgQGhPMDnKeur6OobXWaVm9Urcb5XQWEUuvXs65+kixkVlsEgCNmgzc+AApNxE8/jtNgELRnBuiSZANRytr/SZBKBNEipR1HO1XguR7OPXQ1Ya5pBcNxq9e0fndg843NVplw5xM+CmAfpEFOCoCTHqBCcB4EAM5nn0JA9j2t/mrDqgKorpUEV9wUsd2yPwUz6Ko6/RlFsXAo5OqgsDqcEk1p/VWq47Ha46qg9ocpTx10umii1wccj0f4E9HfiiwcSj7yBunqY7Wfjsfp4siVSs9D+gJXr0yOpD1JpLxhl6umc9YYztuwXbV+pyxbztqm6W1y2njnA9HqR30yCU5phhKCAyIoAOiBQF+z2F6rYzN1rb1F6yy3ra41+vzUJpuqzKhX0Vq8F6g1MWeBQXUS1YECZKB1+zgcxn5VSDohNEfRJmDFt5FuPVaESYcCuSDUk/H67G+gi7BCPYp05MnzwRuX58RYldNla+nBPvaaqSoY1Zi8HIbJCYBPwi+5P4A1b62BXwuILpwts04XUAgJYXQhjEFsocV5/+MKEQ05zOOmZuriKb8mMvWq5gXcltTh1aha03ocy2BUhuKFaY3Nvnb8OuzxWNaYCEoBvzzsl4i1D61E9DNejkHO+XKmb6i0g15P2PWtlFVedZPUhTLEd3nSgXZW01BWVhpkj0N0Ykt+Ah1MsiirJ/2EvKJFMiOP86lDVq8cS9K1ynKXpaDMw+iJbeoyKnnDN3kLx+b4hH1oQPgifMiE1f2ln39zgN+a68ZDODeEgQEurOAHL4JCOVT5lirfEp0ngbWOlXcJCILDr6qpdoqnVSyzrarCbElziuinbAs549DL1rbCmT4FJNuyr0bQKwUtZwFr4rHlGPo4WYEVWTDXIUc/m0hZRT0pK8rjKuW4PI5K26ir95Ae7ksucg00pe51tCLg6elk+9wn4Yvwx8mCwqfYmwAIJKIoLMeIPiCnA85TpUt+aTehP8QRl19lBM4D9BQYXWFv0PL9vu8LxeNe9lNGlykjjUPxugV/wCtmNdHkNa7QnC7Dkp9A5awlW5cn+qCvPBMQncfqIkQGZfm2oHm9JfNEdVSXIUMJi60HjezGPQrpukRqdGFzALufcgDQHWwMa/xw8mghQQ9lIhKV0vwt3CD74vkLmZW9XNMgoKVghVPCNVVKyKvT/IkeaOoGThVLoJrQWCz4qcziHL7rwPWHxE866bjYOm4kUziqwzpUWVwvyGWdLHY0+/cHRLTlcXF/6xnjgGyHlcPWYfew+alCcVPoRhnXImzVsSOFA8FL8uRoYbrUq26KPPQW9O+pL9RCEB4LnfRjYch/0Ne+5DtFXL20PAHVXrTlkrCOi/KhDaSyb4v867ah50Rcr0OOiTeSFrsUZW2EFb84RvBpzsV8gFaPbWW7cXaP/VOF1IdvkI+CRscYMMYeEMh5AOqVcHiZhxu5LMy1dxlFyblun674CTXVUvsvsPhpcC1p7XuqyJW/sVcIM0wfb4jLw+lqoPOqhRzpqx3fcsxVxFEZ6zGlG4vI8iuOWTlKHzLH5nFUPtkDu6U3inKOQtvCZrxLIA+A6PqDdirgj4YtK2O/fMw+8ql/a1wNrFXb9jZOBH3f39K6VC4S5uNLjD3hfB/zR/h9jVu9Et0X3RgPKDD+qYVzs6h+ZU1wUpgomuna2GerCld4MpazgqcIaJNkjYNkqPxhDrTliqNf2aNo0VdP7RY86uT1nGDcqPM4cHnauqwiHVsQcVw0mgR5aejHkOVP+yhoazbly1pWZNQJ8LKE6BplAHFM2utv/5D90Y3/yQ492bRLL7rKfvVv/oaVmu2unwkcVJf8TOBNX/+UZqIte8trfs7e/rpfMr4dophcLQhgubGh88Xv1Fu2YIfts1/6tH3jlq/aSuuYtdpLNrepoe6sby2+j+LO5z+y3Uw60KyZ3gDGM4DxbtoYvGTpn+4ESjSAKsXFnDBwwGqedPisQ9gXhXAeNuV+hLN2nGe/9lP/2uZK2xN/BNAp1UWNuvATxwQPl4M//IXftoW9Lbviklfb3/vpX0tzABCICPK4LejeOoRhgFDMeYXzgdW82sJjXD/SOmJ79u+2fYef0gjftOos38hbsH1HHtP2qDWFbKE1B4v+/pqWsMlxwT9VTPJODVfzKmRbFvvpeI2X0I/ZlsSDH7RnFY/YUu+gddQr9+or1q0u22LvkO2V3R568l5ZNl0aHgfhJzAAf7gPtZ/uXxBNqEUF/lvvRMfiippnHONgYJLzAfJx+pcvYO6cOdM2l7dZZaVhpcW61Ttztrlyus10N9tMb4tNd7dqfw2nnbZZ201/5TjVFfZS2Ww5znnTBc+3nlb7WZpnDzfbpvJpvi0vTwkbNjvYYjunz7Kzt53vZy4nAX4Y9QU4CfyOoLb4HUUzc4C/vOlaq9Xa6v5/0d6pOYBGGz8rNioU57Md53x4PXXzHWvb0soxW1w6okDqWbN9TJHDHb5a2xJ+ikOf3DAh84sbKaDSlHHy+PjdgKjLKITxJvES+XjeswHI50YQ7BlnYrdvPl3B8RzNk6aLVOsBXwC53pH/U9/6kH3oi79li3vadqWGgF/+qV9Lk8BWFgBf/uq1Gi/WAiBuCUMQiOAcw/lhIGgUyEy10+1ZvV5Vmo7xQBAneTh7hsuZCOL85HRmuXkApOcE/mohGWy9M4MWMI733XE+E2auAmKlgL5o1Urd+K5QSZPAcTDudHAcX3fHh48LAG+HRdA4xMwXIDMOjqhCCLzg57woJArm4Yl6iQ8gacnVEa2nJZUUH7Qr1m1KRk+8wO70enQ6278iVGuq9NFVhlXZgRxDrwxIk3Qd5ZF3rMzvCLkqOqued9oGLTUgYalTTzyVyfuCTwS5n6KB8huF4trCmoP9Uedi5hsOHm3dQARH8ML5pHHaQEsP0SvSwb9EqnGrNFAlBg2rlbj0OyPUlsuow7qWm+ri/P5DsK68DD5/RTiUI4ttdahg4PKubxO9zNtDtF+xER40pz/LKPnWTbaql+cca+VZpw9oTBsskcPxOY76KodyukJ0vEAyJocmx4ZzAQTR1QC50wMBzlmUG0qr7bA69HN8fcZ1LnBoWOA0Kj0+Z+G43wRphCG5OVXsZ+DGoJ+1K/jxEcmgY5cNecKc58/7FLye7OBptY/Oq2lFX+WRNucV8jdC0kQZoR/ljuoGUu/ugC+myBpVDa869hYkjHRcLWI5GL4YbaRxbiB8BLKf+5Bjf8JZgEgRfb+AtShJQTC51QOhCAA9eJyQoUI9bQcVKckjXwxbRWUcdehO174jxQjZX/eJmRHksytgfswLkP2TMWN4CeElfvAiLbxI5/xMzig6r8i7iiFvFAteyst2Tdc8ndNlCW8iTsNWmgV5vjX068Jg4aPcDwGr9i98AeKjQHlMuZWmyCrfJudOgvxEyLgufxJQnW5J7V7IVy2plH8IUshlYday/lo3VgXip9e1KaO3sLRSGIfpQ4zkkUF47FfIvl9H8Kt8x/NI7zzycscJpzbhZzz2kQ8/30IPXqC/cRs++Ud469BPoY6Ur31o8Wo6bIAtXG/lcZ4aynGyMuS6QvgBCOfij1E/rTl+PHCe56QAgYEAhW0kWCmlKKd9VSlFuMdRlpwbEnjok1DhYRE+k8LXMtJWhpuAqp6jP+GrPeKZfadz3bzgQXf+KA+aJCWeduDTHZJHaG5c6aytH4OFHC/feegYvON1DEy6aVfpQodUjjbkB728TD/xue4zTl5CpcJ2cjIQDg5f5D7KecEfhY2bv8OawIBJwnIghTd29pVe4ZLQ6y0jaMu+3w6qg+KpQXUOXfHEL2SMInlQOmR7XBWyVM20LdLk6Vd5kccx6ZFopNC+jkO/oPvZ0IynbGs8ofM2wNCJlGkb9VuzAzyvl9uK4wnoadcgd+4k5wOjPgzgHM+GsHqLmABhJxoyAvzlSRrUuXsVLIMx+Kvh8zw+5/y5FuiGRRFFdkmTFu+9NdMai/y09a+B0qCE6jXX5GnLcfBIR/o1XpZPkxT/+KN4/nFHpfOPO2bb1Q8/ZjTy+L7qmD4gmfijiHxGHNJ6GehAXtFdBx8NkBPlpLqtlTMGVabf/j7GwdErBOQ892Fy4zrwVcBG4FfPijTR7YOrQieAUslVUli/qn4eBFrqUWkqD93f0MmMDzEU4deK6QUwMIY4Hj2g+IVxkdWnHMoQstXxGg899AseclbzYvzE42NMLr9wUHIygZYw8SJvclD6jFvijcVIW5SRUHlEczusBgAaKjy0jcAeKy+w8EEgkAcAtGioOX+cv/ym0CCnRPiDfymDXy4tHB9CAoHRAlbp+iXH68DfF9SRj5mESVEtY/g6Ll+x6vdr4tXlqSnRatavTtmKDNEsV6xTrVhPs95OuWMdW9aKYtHavcPSelmz4bZ1+stpwld0SnxGvV1uWreqqVa1pjw1aw/SY+lcW9dsgzfAqIyedUptpWnboKYJGF/gKC9Kl0Utz7h3UXoNatKbNawyyFH+VQbxSgM+7dq1dr9tbc1hWOW0+l1N+EqiaavkzPKVUGVqBlSM+wzsPtdgK5sxeexK185QKJl4vd/vWLerfY9cJqYdyZOOPklkNqWB0tfXCtjC7jgdxO7QAgOO91MKErnHaUwboSaiw3pH4nzWlhxvVFieB1DYIMplc0Oj32dHyGNTORbbck1rRXVta9tV8rYCplup2ZJ6hbb4nKI+1m/6S5EHtY4cJ4fXVmypfcBWOoetXNfEqaI5tBzB/Lo9lAFltJY8xl118r2X01adW8KO9OGrG72yHFXrKd2S8d78fqUlpxyzco339sqpWEf5uGnYnd+RktzZ21tRxaR1Vce1oXUVI11F+KDGtQ+x5WjK42ONqyse8f0eBSGdHebnhpiBgnRYlx51ya2x9qdsySSwOgQkAaB688JoBRxLRcpQ5+HOA0b9kffQOQTdoXCRUhV5OCGzARAxFBIQBYTAUAAY5aUAYD/opJFCBSKWm1+Q3umpnda1p0rXG01F+5LtOfqA3fHA1+wvvvxJ+1/X/4n9+Wf/3P7kkx8X7S7rVOR0GZdH0Hs1WjyPU1dsxqatwb363aHJxukDzCqLJ5LbRtC0/AMM37j3y3bjNz9nf/G1z9hHP/kR+/j1n7C//OaXbffhx6xVPSrnamE2rbCakpAZ4TTnLwi0tj3y1EP20FP32t2P3mJP7HtYSzo5sNe0Wp21RZrNJ6fQeOjhRNHwxjsJOAHDZ2SRdXjpaXtk9/328O4H7e777/LPzjZmZox3JvC0NN8A8DNPikY/IVfYDXPnjS23+6rtxwGsEXZ6P4Bk9crxfoBPSumWve216Y6guo+FKcI8Q1YIShAA43hMAOlNlVmMYm1Oq1Ar5+5PnM+8j4tDbVqYHFlXi2qpRT55bLd97sYb7Fu3305D9Dd2dZotrRbKNj0169jrDe3Ci55vb3nrO23T9Fa5pWuz3brNc5XMv50SQaUAr9KFrtiBpSftlm/dZHfc80178qm9MjhOaVhzqWVb6jPW6XRtx85d9pxdZ9nVr3qtPf/cF9iBAwdtvj5tp23eakeOHrKjK4ft45/+uN3/xIPWGrbsyhe+xt7/7r9h9UrdpjR89bt97dekq3pNqs5Q1uaroGUFdl115aNNZdu/8Kh9/DP/w3Y//rQ1F/u267Tn2nvf9SN2/rnnez0HGk4UAsoXNuPrUbRkVY333ahGo3YHwx9g+Cd6AF4W/aEv/JYdfXLFXnHJa4o3hbqIybAWZ2sFjYNRHs4lr+cveOkHI61jqRpQVcuvqsUtDw7ZN771JfvX//4f2h333mj1maYtq7t/8ulH7OlDe4X77J6H7rN7H33QjrYX7YavfM5+9Z/9A/vCHZ+TXMZNyVPrd7FSoKKus6JxfmjH7JE937I/+MPfsc984U+1f7ct947YQvOw7Tuyz44uL9ihpUVbaC3aY/sftC9841P2f//3f2bXfuUPbfa0is1tnvXhanbLNpvdsUW0WTva3Wft2hG764FbbP/hPVbn1K0Gno66cAyuSitI1XvyTkJ6QdWfcZwzifS6R5YP2YO7v237jz1pB449ZRe+4AJ7ztlnKE7kaDWQ4RBUXbgfS3OSJFHgJkt2A3K7573CRHBV1vy0cf9fQBSSZ8SBebTlPBRxZbywYlxKHNHJx8sP1EK76pY1xmuap98xu+3Or9q1n/6YTc8M7emnHrZHHr7Xtm/fbD/yIz9kv/Zr/8h+5Vf+of3s3/wFe97FF9nhY0dsZvO0j9+fvOHj9uX7FQT0MnX1GR3NATSOal4pk6/YQzL0X371s/bQY3faUvOQDwdTUw278oqr7Kd/8ufsl37x79q7//oP2VWvfpVV1dXvOGPOavNt+9Tn/sS+fseN0o37mbp2tNWUP2p2zvnn2Kbt9DQrdujYXnvg4W/LuXzCoa/5GWGtlkfrcztgBA0Fmvd0e+oJ1AvyxPT9j9xt+xZ222L7kFVnSnbuBedYVRPXheUlW1wmaNUdeqvXhC/chEzZHDuO2j1a+4ZB4P5I6WNbZnxC4CQg3Whh4XxglBeKUHn3umOK38Sj9au10mL9lK/GcDnprvu/aZ//y+vs4NE9tnf3E/b8515iv/p3f9X++S//C3v7q95pLzr3UnvRBS+zN73yLfbrf/uf2I/96Aes0dDQ0Fu0Q0d32xf+8lq7/b5bJJcJpWbU6lEGmjwyybvj3lsde5pxLy0t2Gte+Wr7Z7/+L+wX3/u37fte8lZ79QvfaNe86s32gff9uH3gx37UZufrttI6rCFiyT72px+xPUf2SvuGNaY222xpi52rbvqsM3dpqOzI4R27855bVM4xD5NGVSsI7XU1g8ShrKIICBnIz4wy5C2uLCjPbQo29VKKo4teeKGdfsbpKqNsjWkNcdMawrA7Pz8/zlw92W71YxoT7L5hABSA3ABfBm4E0YIBhOcFjCqQo4NY7AXNT2DolyYyvPNGS0XFxtNHn/RXyTy250GbmqnamTvOsze+8u32yotfbxrVtTTinMG08XYMJkU1Ua+57DX2o+/7Idu5fQtrBzt6cI/d99Bddrh51AYybGlaY6/oRzRm3/fIvfb0gadcpTe87s325te9zbbbLsma0iSIewFmbFNlm/W1TLjqglfaD//gD9u5Z56rcqoan1v25S98xbtzf8JZs5JtszvsjG1navJeMx57f/TJB2zP/sfV22hWTzevunJDjL9Q0usq1JKQ6wCay9tTh560J/Y+6pNBXqh5oXo0vlTC9LGrOYSmImlsTqZds6dbM9k9YJ29BfCCluMqsBtyhSc8EZTfFBp3mQJx2THnxaXH4JGS5Bgj9TTq0MSrqZUMtKziGoCmn/bQIxrX5bzGXMUOLxy2d7/1R+yyC6/RjP40TUK3yu2n23xph9UGs9bgUW/9eIPGi86/xF7+4hfbrJZhXbWqR554wJ5c4LPpzNW72nasreXUvQ/fZ/ObNyvgGva88y6xXbM4d85KS2pt7Xmb6TRsSkEw1eeR84ZdePrF9oLzX6h5acW2Tm+3W796m3HbVINFfqesYNliLzjvxZo4blM9S7bcWbC77vuWwkV6qEwaDd8CdLsL0ytvtI7XZJhF6m133uwXhpgkzs9vtnPPea74yV6k1+gkGRwolzpK6ordsTW2DcidGzy2APToESKNv9ySQtMhifBTMb5MgDSOrS8oEBjlRVBE62fXLynTk0CkfCnCbcoYaqW7bPs1ueM28aPLRzULP81e8oIr7bT586w0mLNKNz3zz51FNW4qkQN6rb6csEmBMW+XveDlcsy0Vo9V27d3vx1ZPOy6LA9XVFTJji4u2nKro9XAtCabaumbdliz29OyvuR3LLFSGWpoZmk/5Td3+O2stmvzBbZt5gxbOaIE7ZIdlGxeljXNa+i6VTt/50V23unP969/9jWM3XLbze5cX+LJyNQPkO80/qcAoLdoDhbUU90pw6iX6k3ZRQqkM08/V+6vCSta4fDNHyXHeG5WCSAtJtU/bLYRjPMVELRRKAIgJRoH+XmAEJgLzXmrzi+AMtMEWHno07SFFutiLmseOnLYnnjyCY23arEKgouf/3zbtmmXjKPBUU7l02n+jADTcDmqUVKXPeDhiLq1tLzaMb/TZkrzNlvZbLVyw3j1rEwgc1Nh1u4Vraunrd1VeQMNC52BnDbny0hurWqoGF+u9jTLLxNsQttkF51zmb37bT9qP/03fsHe9bZ3285tOzx4OQXcGDbs9Pmz7Jwdl2ilUbOZ+YY9pJXJ7oO7NaRpQCre6IUpknnp+DVfkIAHH9Xk79ATIg4VgJvtBc97mW2qbpfr60rG9QJxaPU0FCKhxHJPuhb2c9zAX6P+SP5NgF1G4YSXg92JRfS4I0cyTOJBxW+uq9OFnOdGngKgrzGVrMeOLdp+rbXTHUIlu+iSi9x5rNGVnFUQw26S472f5sd0rzJVpTSnYDnH3v9Dv2A//zP/yH7xJ/6OXbzrPOtrtr6phCN5gUPFztp1tlpkXS2/bd+86zY7pKWl+ntbsAPW1Ky8PI9cRYBarVbrKmLadmw7317ywqvsqitfa697/etsy7ZZ67Wb1tPKhZZaVppLLrxcq4l5m56f8VO+37j1G1Kz4pc0aPkYAfsTjpwoGioIvn7Ll61c0yRRK5XT1ctdct7LXBZP+5TVK2EfTMGlcaLeL49zRlEMP4WcxG4IuU8CnDYm41p4bADh3FGB4ESeVPXeSmQvt1CKqOA0MWfIKmot7Y46zjafPlPCSsm2nbZdWfSrq7LcSaR83qrdMkqm7rSi2fWAt2gMpqyqWfklz3uFXfjcKzUuX2pnzp7mzp+VQXvqVXZt32UvuORFtrBwTF31wL517232p1pqPt3ebXU5vl9ftl5Dy7uylnHqvltNTdQkt17earPTO7S+15KwoXapFctAs3zeX8TduR0NCxee/1I7fecZXs70zJTdeuutfqqZFzzSEHl3hV9C0I93ESwp5O574C6rTkmKAuCicy61nZvPVc/WMF76xIUeJqLcBUYAlLWaKXsPkFo1JkwNfM3Wo5D7IuYAQKL77jooLgcXzhkDZAqhIRihIXwjXvQ+/rwdBXlhpJUT6ZrVir1COlZqOVfdfY07A7pyvqZx5RVb6S9Yp7Si9T7nxTtyIkNFW1k0ZpZnFRwz6tK3WaO8zayl1tvm3f+zVtFcob/Yta3VLXbVFa+wnbt2apKpbnbG7Iu3fM7+/X/9V3btzR+zR5t3q7RFjS1qcQq4ar2h4YEXXFVssSmOehPeYdDScrM+W7Ka1uw9LefQt1qZsue/4MV+do+zfPsPHrC77rrb6jV6kRTTPXUH2IIVxTdvu8WWm6pPv2mzM7P24ksu15C2SbMO6avuriYb0tj7ihpv+autH3Gyq+TQu2wE4QvKDF8E3QWNQJlEY6FwaDg2tkAInwSJlxSn60IF3tKt6siJcrawo1bEwgg+393h15BBCQpyqAp+xqxarws1UFfq1kaGeo2mlkrILGufr4D0Oe+v4xrnkmU0a/JJ1YptmdHSTt3qxc95if3kj/yClTszdujpRXXvO+3Q0QP2kT/+H/Zf/sdv2r/5vV+3v/j6n9nuo/fbcuWwDRstZe/6K+1mp6ZtujprrSXGdTlWgcHTvtOzM16HF17yck1ONf+oanVT79k9D9ws3RSoSs2Fm45aNTd9caLo69+80cp19SOalO7Y/hx77lnPk2H4YKWCVfFHg6nWOINIANB6wHQewMdT7Lo6QxwPuZ+iIYav4BBPABuGWIJ0nZNBn7EX+yjCliVer6eqaMsxs1yWHQiH5p8l84GPk2Xq3tVV9zW9prUwmg1ktIGcOOBKoHAoW3Jphe/idtWChrw3SBO+ckdyqTTW45kCzcy76u6ZQg2Vv6eye3KEB4DMOl3tafLWVA9+RD34IY3t6s6nFSDqiv02DN4eplX/C898lf36z/8He9PlP2i2oPlBr2HbN8/a/v0P2X2P32wf/Ox/sv/zd37J/p8//7/sqw/+uT3VukMlHFW9ljQhrWnJd4aZlo2m5WNVPQ9jekm90hmzF9klZ73GZhsNm9vUtLse/Avbt/SQ9RWLTZTUkq4jqx+2vfbYU3dJ46Y1l4d26QuvsF2nne4rA07w8OQUVxGZS9Qki7MOAxmJy+VDgk4BwNCgDtIbB3bHwXlPnE/6RukA6zBuKBFD8oXwnLMhHN/aOQ4ERgtf5QkVQkVAFYo5MrZzCxj7qZujF+grwHzG76oyIdNkC9mQEEd6CaipxUCi1bFONp6V4w1aXEVjncx6WN0w10z48hetjOcQdm07137k3T9hP/tjv2SvuPQ1tqm+w7vfGU0G+O4+en315q/YRz72QfvEJ//Ibr/v65KTbtpErVQWrUaalSu+5KNXuPKlr/YXX3H6ebl50O57UMs8Va7CeSNfDQ7spptv1FCx4m//nNIq5NIXv7ywEY5ijY+zdEzFVOe0g4XAdJz+r7d7YNg8HA/kPnEQHRm+W2DGHQ+FLIe8QCAK5ZiCgud0DVbMXehy+LiST2zIJpqfDlYAKJW2DAUKAhmKU6VoxPhKF875g0qZ2zm6ity2ZvRNjZVNOUyuUjeJaiuau/UUAK3+rOSoq9Y40VHvwTcDGEiI9J5mYwQXwjdPb7NLL7rcfvjdP25/5+d+zT7w13/ernjB6+3c0y62XVvOdX6vPbDbbr/F/uyTf2o3336TtTVHKKlX4bo9F3d4rSxdM0s3TPrCS17sw0pPS0zqf+ddt1uTdw5hI1VluX/U7vjWbb4S6Ur2OWedb+edccG6VjqKG0E4mHRhdyB6BGCU5z5xi62HEwYA7gBCUGyBUASADnpBBRLQtNWESqNjbvj0h1F0TEfESRMPBjHT6VIqQADAVyjQU2goqSoAqoOWTN7R+hlHcBsJ8aThSY1eS3PrKWAGZbV8WZ3wqtTlJK0mNHL42MpoymS0pICZLW+3c7ZdYtdc+gP2/h/4OfulH/tVe9s1P2gvUXBs3aR1ufraQ8f22ceu/QN7aC9dt4aCKQ1Xw5a6ZfVU6jHqJc1NNGGc0Try0heqRffLWhbO2GNPPKS1/iPecxAEjz5+jx09dlg9Vt2WFlp29ZWvS8Eje4QNw35AbteNIM8DrLN9wQt0mWPEnjAAPB//BKMRNVpApAMQzHVttj7xEKYeTvmgedekka7Gmy80J8BlSrjc5Kui4ngAqIWom61omVVR71At8d48mXTY1TicyqrN1Gyx45N/v7uoXJtWt12To+hXeFXtsmSlWTXr66EmjOUe3yic0zxgswbqOWt0dtiu2efZ1Ze+wd77zg/Y1a94jc1vmlPv3rV9xx63z3/tOjvU2SP9FIQKNOY/BDWqcEqKHuslL7zM5me3qQWW7NjSEXtszz3SfkGpFu3eB79lXQVsc6Vtc9Nb7crLXu3DE5DbEBi14zgYlz7yBC+ng54+ZVkHeOEEMFkZhOLIKGTd+IPzUYZDln88/+U8mUuKqIPXXnoV+vTMtJfCOe/9B/bLcCyz1MoZKvy5MY0PNPEhr02fkrcJHIJGy7Phgn3jri/Zl7/1Jfv8TTfYU/ueVk61UC3pSgqYVm9BQdNR2hVN3I5pDFbQSIF+S2O7FgtMEefKM1bl+8GLZTt99ky7/LIr7XkXXWDlxtB2nr3Nbr3za/b0kSclV72O5DLBpQ6MWNyCwM2eu7afYy96wWXWllwi/t4Hb7ej7T12pPu4PbH7fmu3V2z5WNuuuvwa21Z7jurfkD9Sg3LnYJnMjhtBNMRRm4/KOo43JgJOIgAShPAoICBoFDZaoP6xJ8/SkkG63xQccOjup7XMmpnGsXKKmsVBraVT16mllLp/v4jkN/fJ8ZrIEQA9XqMqAV11y/uOPmyf/tJH7aPX/pb92XUfsb379iof+du23D1sn/vSdfbx6z5sn7juD+3x3fdporbovQhrbpZfQG/ZtbQpdeVDde3PmdtlF178PLX4vh1ePGBHlw/5zZvo1e42VUfP5nXhlX5a88id83aFWnZf41FVwfnQo9+2/Uces70HHrCF5QMqV8Ej3ve95vttcaVjDQVd2M5tVUDYcSM4bmzPbJ7zRmXl5QScMAAiU77UgxZXnigAGkpwjAKrV6VYFqoLT+e0k+LwWL+3O12NglO2fdvpdtYZ5/g5gPmZzXbP3feprS7I1Mta86vrrmiGX+PzKBrB1WK5e7Q6NW+Hjx6SyI66/ydsoXW/dSqPWGNuRQGlJaNm237fsSZt19/wCfv8jdfZJz71R3bPg7dpZt7RsvKYlatd9S5a29ONI176hd682GJuTkMDSzttOx1R2kzquJGl6pPKxYV0NW+Gm04YVlSb5z/vpTbL7Wntrtb/K/b0wcftjntu1kR10VZWVnzyd/7Oi23T1FbVRo5XsdgNG4YT0SEuJAUv+GF39gMD4LnNBWFnMCB4kY40/gvGJIgyIhOQKwAGL2Q5nfEbhKT+co3Hv5I15NRjy0tqdTP2okteovFdAaAZ+GMPPa5Z9G220DzgXTVPFq+syFlM4mXsJm8bl6jNWzYpRA7bt+/9uiZ+R2yp9ZjtfM6sbdk0r3F2SsaloL6dcdbpttg8altOm7O9+x+z5c4RG1Q0kSsrSJjZ07Fo8rmy1LJynbrgzLIdW5DTFpt2+OCCHKzpQDm98Zz79pmzzGjuUVVs0rC5Z6ckLvcuXPHy1/h9hrz48qHH7tdkcI8HDncGvVJzC/oKXvjM8OFRNwGwIYDdAoHc7kDw4ngcDwjaKJzExaD1wsLR4wrKef5iRHW1fmu04sbfrKmyaDXq2bWVETRrbmgUPnvXc+3s55xnpW7NTt+2yz784f9pj2rc5C6bld6iWnfbRwDFgZXmypqY7WP0t8f3Pmxfuenz6pmOqVtv27ln7bLTtu6QkcvW7DR9gnbFK16hfW4U79kjTz5st911iy/LOpUle/rwIwoOje31JWtsHdpj+x+wQ82nhFrL33O/lpubFB9zdt6uC23b3E5JZR5C21VL1VyCQPQPTtEu5NSBQuCll77KSgqWZa1P77jrDtXjITt8WCsATU5fcfmrJEOBosD2PBtAbtvcrqM9Arzgb8SbBCccAqRKsU1dyzhFch7gfA8AbYV+d7NK8pm9kvsJFTnfT8CoZWybO83e+Nq32Hxji7cyTgp95oZP2U23ftFapaNWmW3bseEB684u2MLwKes0luy2B79hv/t7vytZCqROw84/48X2ypddo+51i3Wbmqhp0ljCIS+90s47/yJbarbtwMIRu+7zn7Ev3/Jl233wMatuHtrUvPSua3yvLdqmXXU70txvX/rLz9tdd95txw6t2LH9bXvD1W+znZvP0dxOug04Q6eRqD/QSkNL1ArRLILqo3me7TztPDvn7It8ls/5gl6vZ81W2174/JfY6VvOUMNIy1GGnpMBbLrOrpnNg5fzA3NepB8HlX/8T3/jNzjryv1zdz34VXviyQfkzL5deN7ldvFzr/Sxyhtx5nwgLyTnBZ9FGN23GELijLGLjP7nXU9V4zsG4oTPadu367hqe57co/nBsh049LTt3vuEHTz6lJzytO1beML2HnnUHnzyLrvx6zf4beMHDu33L33PT2+39/y1v2GXnfs6zeZnfbhoaHLZ0tJrfnqzzW6dk5zDdlgBcHRpwZ4+sM/uf+h+O3Bknx1rHbbdByR37712x/3ftBtuvN6+fc+driQ3g7zyZa+zd735h+20GTlvRfOPcsOHta5mf6XaQN25gkBO4UIW1zsqU1O22D5m9z1yt9Ua6onaS/6KnPe86/1+som3opS7zCNkA+yzAYR9gVEnBi/snsO4Vs/xw/u+bd9+9BvWXOzZGaedq7q91iq//k/+6W8M5IBJAcD78gmCcG4UhkAKAnN6bIkaP7lDXs8vhRzFEpv5CbR0gyj5B3b22Wfb1q1b7Ik9j6rDbtvRxYP2mPS55+Hb7NsP3Gy33X2Tfeueb4j2kF+Ba9Rn7dwzL7Ef+P4ftiue/wYbrsxYo9vQ2Kx1usbppiaavPh5x+k7bWbrvN8PcPDwITuyeNSOKCD2H3za7rz7drvzvtvtm3d/w+5+8Nt2aOGArTRbNju1yV7+oqvsfe/4UTtnh5aEg7oNW6pvVXWhGrIRS80Kk2LVqFTlBBQVq2ppumJ33HubZvtH/ZzAWTvPtXd8/7s1899kM5UtVupgE9lwgwDArjmM2j0gt3s4PXc+PQbH4PgA+Mf/5Dd4Vm9iAKhyqp4XgDAgCohIgxcIOA0H+w++UMsrxgFyKt4cSF0ua+yUXL7S2dMqY9cZz7ELLjzPZjdPq5U1rVta9rX+cueQlv9HZeC+bT9tuz333OfZ97/hXfb6q99hL3juVXLQFpvqyfnEkybRXbWwimbxLdZp0vO07TvtnAvOszPPOcumZxrqlrkHYGDHFAzN7orKWbGZeS1J52bsskuvsDdc81Z1/d9vz1HXP1ypaUKqoKLe9N+qyoBH0kpNzg4rEDQ3KCngun1/yTNThYOap6ysHLPp6bq9+srX2aUXvlxKacZT3Wz9lno/Ll/QtU6AcPKoXXPciAfEcMEx8h56+s7jAqDU7vaHbYxfmvTlUC0nNOghKKIJYXkUQs+DAx6VUw7lg88/5fGTQykI/JYs9RCymzLx9Ir5Grui2TMngVa6i3Zk4ZB6gUMav4/5PfXcSTwzo1n+7CbbPLvdtm3eqUkYL53ivi5N+aRCmdm1ZHUpWC2sO+yoaJauaMMJ4p4t8iDIwQNarjWt1Wyaf9FULXtWS76p6WnbsXWnzakHqPFSKP0vdWUD7udmAiuxaXLLaqRvdSaFqgTfPWzRr8ux3JJ66NhTKueI6F3JO93vJOYSIaePh5KHOH/jhwSGE7Fb7sCw+Tj+OJ7bXcdBi234hI9GffTzv20H966sfTVM/h9yn0uvfGz8o2Fqverp1kEIBEKRHEJJIFcICF5Pxgo5o2kjfV6hCDI/DVuUPQ4mlZvvB4QBQ//4JA4QtNAv0oUcaKH/JN6JINIHRD4QXmBALncSb5QOBM8/HEkA7Fm2lxEAP8ujYS5vsrIhK4SEQahwYNBHjRVGGcfLaUAoHhiAQ3AMJ2Wm1TrzkxuTIPKHbID9USSY/PKsJm6UgT5ArjsY+wGRn/SRJiCXD06CPF/IYgstL/9keKEH9FOFyU1pFdYqlysyWiD0QCDS5PScF7LiOBCISgGUQW8BcibyRJUMGQFRBtu4iYX9cWUCcUya0JEyo1yOA4GNeCcDo3koH3lsc15grvNGvJMFf1GkivWDcSDRaasCgCjgVAoalzaXF/ygheGhh4FzQ0+CXFYOyALJz2lrtpE2x7wMAgWMwAgIWQB5csh5wCg/hzztqLyN8o2DU02fg5awGxuV+9FDwTAckFcACOMFP3ciOMoDghd00kcXHzSA9NDppvMyJ0GeFwg94loG+9CQG3rmEHQg7EOaQAAZUaeNeBvBaPoA6JQPPZcF5rqN8nIdThZOHADM3Mcok3jrFQ2EFjy2OS+UzBUPCF5Ani9PtxFEutjm8tAnb9mkISBAjoMfedCRoAm9AgHywt+IFzqMA9KGfUibp8/lQQvM6eN4yDtVUJ6NM62Zb82oQCgR+wH5/iiEkqPpA4FJZQB5hSdhQOTDsNHqw/Hj5OY0jsMpQNgIegRMlDUqB4BGnryu8DbKA7AfednmeYGcBuQygVH+KCi1/5SIPx/eVdbGAeBZioLyAmI7TjloowbMW91onjxf5B1NAwRtEiAfnCR3FOGHbqO80D16BDCncwwvIM8LRJ5JEPICJqUPes6LcnJa7Ocyj4N1rJT+hH2GP8enSueKgLmTJkFuLBCg9dCtbgRRwXGInHD0JIyyIn0E30YwWp/QOWQB7I+WBeT6jcM8H/vQKC/KjHKCB47rZYIORPpcZvBOBTY4GZkgVyKvNBC8SRCKgVQWBaPiG0GUMw6ReTKQl0OeE+ULPaNOkYcyQxa8XFZs87w55vkCRul5OSEv+HnecfJymwQ/eCcLWgZu7IxnCigVXWSs4QkAFGY2vxGEUcZhbohJGIH2TI0ymj6XlyP00bQ5wAudIk+uVwD1GoVJcjeiT+JtBBqUi70JELpFAXkh4xQPgJdHJxi0uOVpEmDYSTjOEYG5sXMI/kaAblGfXOeN5IUTI+8kBEK3gFHbBALQgx/5Yz/oQJ4Hej4nOVk44RCQKxqVYD9XZBxEegDF4iwc+U4EUdlTxYAwRn7m70QwKieMCyIjENlRB3hAnjfH0CFsBbKf2wJabtdIE3wgygk6AC3ygZGP7alAqd0b+IcjT+ZqYCgYCIRysQ1er9wyXtDU6aYHOPL07KP0RCjSnirE6084ecVVx1jDum78FTqOA38BQ8EmHb84jpNh/ADnMjlWeX6FMwoagciHPK+v5IVuiOYiKUNwGoZllyKPS0R/bXtd0YcEX92mG7Nebp27EBFX1Icy8mAarWfwr+dq4Bd+2w7vWbHL42pgX6lXlL6rAPjDT/+mXw2sVtqrAeCXWPvJaSEs9oFRRwZ/X+txu+mBz9ihIwe962bcj26cFjCq5CpINB9ZnsBNZa8Vf/IggRPLFHgATAB/tH0C0IVOyhm2oNy8bJyhPtR6A0KKGwqwoVox15sFvCmEN4VWy9MKgIrVKrPWqM7ay172Cts6u912VDf5N5bGAfaNcgHKpTwPgG9/xD70xd+2hd1N/3Lo3//pf5QuB/NO3o0CgMvBo0LBvOsBg4cS337iq/YfP/pPbWn5mPGOvKnGlL/oYfUysEf48TBUEf5FjOJ4FPzyZaHHKQH6CscB0uIDmePAn2ko9nPwfCcKgAlcdzc3Sq46nyUcvQCoYaLSsG57KOfPWL9XtZXFrr3vve+3N7/2bTZvW6zar7ucUYhAo+zwU/jo+rs+ah9WABzdnd4USgCc8FQwkDs5BOddTdBBAN6g17F+e1m4ZK2lI7Z87KBvu81j1m8tWXv56ETsrCxMxPbK+DwnROUbJw9sg+PyBI6kz/P5/vJ4pL6t5SNeNvXuto55emjwUrlF+Y6URZlH5HD1nN1F67UXrNc6YnPTQ5uuc/5kuQiW8RB+yP0RftIOf8VuESitTm/YVQud1ANwQwifcvPEEhjOp5Xj+JiUAPCCv9B52h7Ye6t6AM0DOrw6TTL052Nmpez5J4G/mSwVeRx4i5rA2xBUX0ktDo6HMNY4WDXgKIg8ud8QFNm8gTAf0M8bh3q41PpZDZGILpZ7C1MvoALV9Q9sdnre2k3eaFb2B2ied/7FNj+zxRrDObXcySup3PGUB6BD9AAMAXw4kncFl1pdBYCcOCkA4suhAbkxouVHQAAcExSDctd4IbsWbonu/3EulU/j0iSY1FUDqW7PLAI2EPvMAkCwoSbK5mL1zwPXSSJKHgHAI+wcp7GfsRsbsi+qbF4p1zQM9NRoNO3j7Sk6riiPf1JngkroSl3APADwyaeZA3zht2zhyWZ6WfTP/uN0T2BHLXJyAGg50k9LjTDE6BIlAoBCoXsAqAl3FMXpaqLyEPBC9CFWNvB/ETKTwY16ilCoPhE2krlR3kmOAHKZISNoHHq7Ko7ZeCD4nICHTXj5hfaLJ5GwWWulbzPTldQ7erAcD/giD4AICHxy3Z0fXhcA/0ABoDlVpuVYSJrn0QREAREYOD56BIAXQkzXeIZeeTV09Vra8kJG8XiHPxPLccj7nnnWYhzvlBE5gZPowRul5TiaNzt2fSehTMed32XlyREaOJrev7Gk2T1Y4mENLQEH3Z61lzr+ucA5OZ92I8u7jcdBOB0MWPWxSE5Pfw7yGY5MB5GRbtpnvtrvadZO6yaCuH8ubsqABp/9UecTFAMeqBvysei28i5rJSCscYt2V2PaslI1x2JJWC431WO0FPl8dLqbtpJTLonn2DohIgfkidLhkInTimR0FJi81ZvyE5ZKK0qvtBsgZaMPMgIrBZ0PbXMTLenS06vio7/r21LZ0Je1XRIuFvukaysP9xp0VF/sRJ3REbkrstER0ZatUW/b1LTspjoYn7aRvkO1pNz2ud03Aj/HwO3IJMfPSn8Sr4lL3UkOESjghkA29fs88YOiiiy09NIiaMai8viYSXrvBrXVn08gVYH04qoxmP08rfTmJRV0p35bN+oUNEeVBT3KnISUT1efjpHtFXM65wioj9uJiV4x2SuocqLKrtasRuMRsl+WPfy8Qz5+pH4dv2hf5ZSr0lH9pbbKIJb0KMod9cmoP8bxJ8GJXxZdOCUERpe/kVCA++T7PSk+KD5+oG2vX1GPojGM5+s2QPhDzXJ57g8ZA/LwxjDR/WURE5A0pCXfgGPKHfIqFmHwivKh+avKkMlTP6vlHo/o3EceM29kkV7H0J2HXPGirL72Ey/ZwHVBlnik4x0C8Abq6kHXjY9nCXkrGFi2GVmRZ88brh/PFAy6mqyrM+A5hPBH+CG24as8CFb9NcZlJ7wWMFbQSQDfuxkMZQjFF2e9eLeezwAU1eWqDCXaJEyfsKeSa3l4goRWTksYlyehjKn06UsbtHiQUZN84kknf6MgM2kdw/d8an0E7CTk0W90cfQegxbJMXQFEFvVD17CxBsoAHk/MTN+JsWOA5bAyTarsgK9nlwpVbBQD3SlDuhKL1rhsbdpydaxIPwB5n6KbQ6T/EZHdFKQFwbkBY4FsehbuPeDx7SiJ6fDQURXk6FxyOtVSeNvhok8GUI7GfTXtD5LGLrk6LpkmJ4GzlA0bdalo15eD9G18a3EJ74OVsskHXT9w3ZuQyHH2C7hen8A0fpzWsAkX2lYo4VsDBsVNglKlZ6/jaPUWFEvq8mLJjNlHVujbcOaJkANTbDGoAkH4vNdwLLSlqdIq2PlH4pm5K1r0jUOG5oAOhby6gmtlrAsXSpTmmxJJrLJA31Y1cQt8ozB8lSSa7WWDaqkR16UlcoNHsi+66JyKtOhvyaElKf9VL72qwUqffCHmigPNfH1joDX4VW71iu1ra+JIp+681fVGS+cWO+TGKpzevBWG+sYd5V6g3QxaNJXw+JEUAhE0Ghh46BbXvSXJB09dlTjYM8nQJTfK1YPaSI1HnjHIJM0n1CRTkWklYnKD9oJIOnmO97ayOGGGJG5uozVZG2cgRKQfm3JC6w2ACHTWuZSnMCKcuDDS/nQhTa9xmPO51jIW+0SCgaTU7Lw4kxeLzc9NWNzvFCrNiv78KYS5hRrurBKQ3bcbue6Cbxu4oPpRBDXApbtyouLM4Enuho47tnAUaCwKBAjsUS8a8/X7D/9yT+3pZVjfvWPJSTv2eHt4My+I/048MoU+zlQ3b76SIyZl0klQeYILGvHQbJVMtgoUD0eXp4Eq+X4/wRRimoiZ6wPjvjaaqwWRu+6Qh6vfucFEtoThcDRPnWArzkDY0NrpWdzfKdIyETxve/5IbvyRVdbqTtn1cGM2xVbAZTdU0MDwuHQ0It9yvTPxn0xnQiKAODdBt8R5E4IIzhNS5wen3zVWripdS/PzPfVnZWn1YvNaRJUV1c2AXtK1x2D0G1KFZqR0QMljy00m5YODbXEMThs9K0v2ePQy6Vrjf0RHHp+GSrDoA3ULZMm5xn5eMWs9O2rO4999O+zT56qnFWX8/lYJvn5gmhD9ROWGDqnerZjFy+3mLKDC/vtgUcesN17dxufwYkAC7uH7QFsHz45GSjHOfxnAuOcD0Dn+vXW6TNtc/0M+WW7ldvzVmrOWrk1ZxXtN3pbJmK9u3kiVjubPH+1wEpxDNbEHycPrPe3jqWDU8KZrrBz6tjoJL0akj+leoLso8s6VBlRB47rXvZW6bVtFWvkE1b7W6zcmbPuUs06wh1bzrWrLn+9XXzBy7Q+2KQeWgNzEQDYPT8pd6pQWml3h/1a9RkNAVHgqPNRrltetmO235a6S/7iB7i8CFIJfAiIiD1VyCM9wEsuDBCGGYVIMw78JM94lsNGhu0OZHwNO36CSGUjxu0hJJ9PslVulO+yoLMEpasv7gegz+fDED4MKMns9KwPAcucBi5P2YyGgS3z2/0q4ebaJj9tTDm5Hb185WdLOdEw43jcEFBqKgB630EAUEhg0CiQL3l3jJcrMs5R3TRWsY87uFY4CdTBFXvHg6qk/8khSRY0yg4PJtrxUDhhDFAa5+YnXdhxp40BmUb1UAvUPnOBKJuS0FOWWK1LlB46p3MQrPOT8wPTnEBy+12brsxpryJLKc+wqiCrai4wFF0yC+fndg9/nEoAaPKbHPNMII9ACqAg0I81q6oO+NbfnGNV/3lzl38Eql+zxnB2MtpkrDH56U9pO201vrUDar/an1awjs+TcG58WSCfousL2Z4Ckm9qoPoN57xs9KgLkTk1nPd6p7JnMj1iH32mhDpWWt402lD3zrsG6/BKm+T2up9J5HsF2I3X3vNZGXwejgfC+YGnAuUyl+2eIaBEKBLORwGn9RUA3brGvppVe1Xt1zTu6VhLmDoOhDcBq13Sj8daL+WvI4eXPvuLnwuZyFd5Y1HljysLrCpfua9lqrbjkNOwY1FyuTWrLqSu1W7DKkJkQqNc6l7paFug73tdNBleh5UivWRQPwVRSXKGbXpgpZeNed0R7xfk/cl5w3smjg8o58KAEBTdRxZoxwFpc6evCwiJ8XsAdOhjrI45k0v/wDqf40lYnPGVXCHlgIgVIhNEjveWUh0e/Ri0KO84zPicjvNrIJxXgMY/BAhZDgY6TZbHOpMQQKYnlRxwVA+Oc/QyM/7osd9oKt2QWfPuvu/5Goo57MMJgrB9bv/kL2UmSeaPmCRSEGn5pUpLnt9+BbOA1d1V+hpvFFxYIQiIAosj6amChUz+hkwAYSl5Rb1O8Mbh2rlTIWtoIS+IkhBhoiOTd/1y2ZlXyvvt1RhgjDxQCV0nn2iBvk8AKI9+fLaCL/0wNwlMxxrjyxugl6sypNs6zMsfw1uNoFS9DJM87qnky6p17qkQ0vKrioi+JtToDuR+OynIkofXPKDCieFwfkCiR9JTBIxbVY0qmthUVemKnCST+h0VfquxthNwWJZTA5UPGrLAoFtOl7yS1vGUk8vJMclRPk+viRLvBS704PY1Xkyd1ubiF+tzjvvKM0T/Cag+e105J4tD5eNFmkNs5HKg85p71UNYratxiV/iDhJCsd/SCmDZOu0ltfrkG/xFq4+Wv24IziD3r6cnaIs05PCdAGfAE52MI+yTBhWj1tPRvAXjypB87q3ftBbLQuPLvnzaeTx2hm1HPx4mWo+vjAu7GQ+5yI82G/nHIXmavaZ/rr4zaElOy7euk9Pa1lNZqQ8otpQtelvpxiH5V/U8ZVTeEu8n5MP0IDohK+lR4nYiacE6gxtAyuptao2KzW2a0f5az4u/wOSr450fkKcv2rfTtHxVRkKqgBCofwXlmQHvCexr/dhTNA8Y1DSWlbkXTJHN8ml1wByHtQKLY146uTouF/wS7/rXfmmVL70ZNIs8o1hSnnJD8a585DENQ2zLdeklrKmPrTKmSkQgx7zAsqbtOPT0jNFZOSePFEDrB+UMYZkxXjz0WmouWaerIOkqKMBOU8NC24e96KFHIZwfPozjSQC3GAL8eC0jLAIjGM8AmFu0NT43VQlVQ62KHqGvFpPaWIr1CThM2FLkj/JaBY992pHaS7E9EdJH8BkK0qc2Hvt9/fzzdpKLdoF+LDpX3yYh/c748jZGbIJl1Jes/bx3U21kt6np9Oo6rqGAfKdATlEAMEfIunAFIX5a9V2BOYQf2fgdTuFWpSt15SmtNKTOgn3kU//WvvzVa/0+t7e/7hftnf6iSG5U3DiSxkFT3eq+xadteWXZxx2ubsXVN5TYMLhgFUV6MK4Wrx3lG83rFS7SnChokRcGkiQvi0tP3uMiJjMeslyVEYMGQE3vWU7HpwK8JXSgIYyrff7Tlo9gciGIbxKwUuL1tDKY7/Ol0W1bt9rM7JzmA5xxXLszG0BHEPuiN7ygsQ9yNTB/LmDt0TDJ6SoAuBy8GgDX/IJfDq5JGQLAjVEYNwQDOR0IJR46cI/90V980LsyTEUA9PhaKBVTZHNZ2HOt/sP6/pfkFfJxmBN9nwguylstM+niz+/BS5Skn5Oy9KQb4UFHJkGADILUy3Y6hiu5rqQ/Doo1m3/X+BRBblUvI7uqLHRmi1s9IBQEVY0J/tbzypSOq1bX9g3f90Z7yfNfrvnirAK27k71OiBPNgeB1ToLqCv7HgB3FgGwp2lXXKwA+Klfs1KneDp40qlgnygLR4W6EQU5HQhFbn3iRvtXH/4V6/Tb4pMuPQ0Ej8uYVb/+nvKSG2nJMcJM3ihE+nEQMtbrl8omX9DGQd5iwKjXxvmUVk0nTdZODXB338NOLRbU0FjWFuA8/0xj1lrLfauXZ6yrFrpyrGPvf/9P2OuvfpPtKJ9t9f606xwQegMRGBxj7zjmuQAC4Niell1x0avsl08mAGIICKMAsZ8f51vg/n3fsg9e/x9tYfGoJjDpEiZ8goBs/gJpQciBN07OKHj6Yn8Uitz+Xyk9HS5iX0JXOeMgXbsXFPI9bejj/ycBbXnjFOOAHAQBzkcG4eD7KtO/ntpnSKjZdG3epmqbrFGds3f8wLvshRe91GZsi1aS3ICa/BD2iv1nNQDi/QAIioJCYBQSBQFBb1UWbF/rUVvWENDr9fzGBfKFgvGaGNIGhPzYniqQL8pflYtuwuBtBOvyCcgDRt3Ggd+86iFzPHgtJlSFoCF0VnsA70XYQmNhwPgv2f2a9bvqG4S7dp5ljdqsONwtnK4Ghq1yp0c9QvfvegDkPGjwB2Xm5kuqkiaA+rHAotJhLGbPsc//sBNpJlpN4JzJbBdGWSE7GboITv9/PIQ48pA3gHzkz2nrAXeJp15yHGCTsMtxoCzpWYbUAxAACUmvnlKNplGd1pYVa8N7A+4KHnTlUA2hnmvEJ2530UZ9s1EATKpZBmuVyAWHcDDngQ79ig1bXCCZ1TAyZzXj4kZDnq9rf86mh5ttarjJpm2zcItv/Vj0GdNsdxIOt2i7EW5dlQdCm13NNyKrwOC7TpZ08i26QC9kHY+bxE95xyO8bWNxWjgl3UD0TftbV2mz1dOt2lNr784Ip6zcU6tvqUfocNIj+QAY9cmpwgkDIKKMQiLKosDRAAgeUB5WbKoyr95Ds1i/iVHBIHNzda3vy476GvY0HGTHo1fj1qNkTcCyyuGqnnVrNuxWC6yJpxnzgDTj5CUkL9thp2YDGZlt0JNe6DiK5JUD1HufMmruOGzJvrLFoKUWrcYyaKu7Fw6FRrkq33oMBdryLABl1bSclsnH+SR8dSpwEj1AAgoIBKKgOI4t4LxiCcVdL9zrzurK85d56MEXPI7MBbUyLK79cJxok1B/Y2mrWND6aiW8gmWVX2zzfI5Fviifr3qR1/UoOmRtZCl0X4/Qye95tXVZooFxHDxobu2Cj1xMJt8l5Mxk8UCJnxZkWNHSudJQy+esp/74XL0WC8qLRPIrT4FA+IRtHgirvvL/gmBRfrE7EcYVEggtbihhdh/LPE8ryZy65RQsdelI564K5nQtNL/vneAWT3XykynpVG6iTUSlY8vDs+TzL57pmHzplPAaUq7vF2liX8OqY5QLPWRpuuKnYvFB1AG9+SBUpAE5ht7lDKKaM5+l8Ys76FCRi3Ts10H4bnFVYzuNmDpry/eG0if1pCNIvVWOl1fI9/kH92oUeiiVlae400rljJx3WHWw7J77J8ciAf8U3EWvrp+L3gjC+WQY7fKDHscBUWgysPa5760MKm1RUTem8yVTPP/GUMFzp0zA+Bahy/IvNycjujwdcnLFDYRRnZdOuKTyiryRTzJUsvPQY5UuTEExVKtTCnREzjpd0BcnKTdXOoV8pXwgh+N0Ln5B4yolVy/5lrGffB62PU26mhnlCCWTk8sEx1B6gNjFT1Nrwtwries8NTB6H0H4JOwdPjkVwOQngCQwnE9BQD7e59vYV2o5hCphAOVzYxVbjFmcY18LjoTw/GNKEzDl0T7pcZi2tDbkcf4+yoNeIqhUJh934oPSazwZqwig4HnZ8AgQ14HU6fpAyEvlJ4RGGr9qxz56qfykA4GgVY70ch0ow686pCDgg1Orl4XLKXC4KjGQk0M/7EBQSgPl0U95BjifEUIBgP3zAMhtfypwEgEwHkYLO04BKVYC1d0w4tObYXM+UcLo6vycpyzB8xkC+2MweJ6+QO6eQRaDeqRxOlv3Z+SnzIy3Dik/0R2LtCFvvYw1OSxw0zKX8wFCdWPcDwmW1X9XhM7Tml5eVKwI1cWkvJz9E3IWEJmuB92ybKkfZiIe1db5J8C+QjYZRKP8rgRARBkQTo6C4OWF53T2UiXTeXYudNBYMByzPpljIo9OgeOxKKkpDw5TOdIt7cMrnKj8vPgAPpjypXJSnkRPW/KEHkle0oHLLSW/7OtnMTyd0iO72E/lias1emmgCZyWvmBFx1UN9mx5ySM0XurkKBr0igLFHT/ghHCShZ7ojdMVD/qnuvgvhUUKDOiT7X6qcMIA4MueeWF5179hgTJqVZUHK45Ev5TV0AduxKuolUzC1KaUp0hf1uDJflUtrDbkc9EFTz1s8EmPSxJPZeU88pECHRiINRqUNMNjn/S1Mo5UuZ4v6ZnKRB85Fuf2QDlXy1lO0Vb6kignw/NvDnKspVyNbxwOxScQ+gSMnC8TEmj0E7yNDd3U6/sMk/LSDaFoSPDQi8gnmux4Iyv8MTocnAoo+AvnEmNSgMPUDca4FmOMErP8Sb4XrQjRFKZOD4TGJgVKgUVSZLk8pwOxFRT8jDIG1uT51bui0nlR6B/3CHrCdTzKKHjKt8orIPEQrgMtZROkjJ5sNQsEIUkRlYvzhIKC57IKnkNx7J/TdTkqh0xRCS+fRNhcDmZJTVuF5qzEw76RjX3V2umeaBWBfH89cFOVC/ROhsimdXir12RFk5ayQrTCXS8CjJ0MTq2UWXTeAopwLvX6K+G54RGFGNjFYlLDRIqPLVMWtLLWtcxwfQUgmk+s6Le15AkeX+ckfZebMrTPrBg+EyUmbT45gh59P3fZKA2TKm4V41r7gJm5tkPlSTNx6eAz9OAjV/oKfXIpWZTPHUJelmgDTS47vZbfpIEOaQmrFqd9+H57mezEPX3+BVmhmrLqnHRHB793sIb+ykPdXHt0qKlMFSQHD4VYtSfbMu2Lpaivjgo7Ydv+gI9tK4uqix/CJ/ggXSoPZ0/C9aDgIpaLHz2Afikd8ZQyFNzjfs6mbKHf0FBEKj/4BCoXYkiXLsmuIVInoefRlnTpbRxJlqPK8v6j4IWsKCvFZuIHb61BRT7xsKLnk1NYP2p/EuayQNejwJBHY/beo3AKXanb1unSC3rBRwzlcyGJpjfQsEIWeoQkL+oluVI+IdngE+2+N/bnirBV3kiXjmN/PUgNKUJFikQYl0eXHaFp/JuIUpwzU+zL/fppLPQRTSia8zRWwoO2ytPecbJylFy2nkfNgFE/5PES5RSo8DS+io8856kH4yPV3EBR0XoJZNaADkONp0zIfBaxypMDlIdO6zgdMqyolaZy6NKkG/VGR2GVlzdyBk/p0IGbONxZzG0KHZ2Hg4XIC73dHujmsgoeuSQv5Yuy4FFLWcLLQo/xurqt2RbotNV9yRsBb/8J2CangyxKKBdy4hyPSujRnZZEKtq7oEKiR33iQXGe/1K+XM5xWPCRqWwJsrK8txEpzTESj/JST5SMuGoQGSsMoX7bj4PHMQHjQeW/ovwRjFvYoncNPYA0Dqe80FNTLvI6PfGSjiHTKas01x2eMGw4jpfLm4ietkiTbV3WGMAKxW7mfBW0GpRwXOgEhB9KcyQaSruRnBLOLwCejDRWVoHeRRfJQx47zveyYKyVlfhQYBRVypBw4bdqiKALCRZvicXxOHTwrf4V40nUywEetCJt0iLTr6A5Bm2VF3YS8i/Pl+fNbJjrNooJClsV2ySQ4+NBy9nVXAIloXzl4jZrjVj6aexiwjYBfRJWIBM+zqwxAeLMnE9gfGKWMJ11S7xxsgJpwMgjPZMwzoQxSUS+D4HjeNTUeb5Scj+BmuYpn+pUIEEdPIIceUy2fEI6okdgOhVMSfpRbqGLdzTwqE/QpFtuC36kIS1lQXeq8mAnjjyP617kE40LP2zdvsFTHTlxPU7HQMpK+hZY0DTWuDdHgRNQ0ordFB/spsxelJAKU8HjkVOa/h19ZtFsCzqnQ5lpB9/TMOsWzR/k8HPm62XlqMW2AgcdmCsXp1f93LpkcTp5HS+dd/fZdsFjJbBaDuVneUibbgZPOkDnCZzQbxx6fQLRI2Rqm07xFvXJy6LOlA/dVxqFbvBcZrox3VcpogUf+ZQTqxVflkU+rWROZDuvB2XH1mkcSzcCYQS0tE+TF4AlXUVLnGpdEw1fBqUK9sutDbHnT7asSLmmH8cjr4Ny22kdW3bslZuS21MZkjwiI8e2La2mH1Z5JBbnY3icl8oiHbyh8zBkKosnbXraH0AT8nat9PTNinUKXl/5BsK++N0Sy7iUr1teGYudknSpJF3Qf1BB5oq1h0uer1+RDaQrGOlByuZxtEGJpxKSDuQjPeXzNrB+IWvVRoU8t1816R48L2vEVqPodlK9XBfKqoqOfiqfx+j8yy09LTM1pPhbUn1Cpa4R6HY7ttJSQVqzezRKZa5iueLPAF3pMTQcPErfCMMAERjj0qxDf+Qqw6C5QzEkx4VRxfNtpBuDHljF/rryQ36OwSvShs6BQc/TjcM8zyiOSx+4Lo30wfEgNB6Lo59njpWW2ur3u73hcKk1sMps2/7nx/+l3XTHtVadX7Gzz77azj7zapvVoFDzEw2nBkxoiDLmGAnTcUzi4q7gEwJyiuEJ8HFsYlbSraVdB8rDOtxlFUnQJQECJ+vj8yTPlvQnbV6nSZBYa/x8vjXKG4V0cmc8bFim1nVUJezuSfWP3wP77rQHnrrTDj52zF5+4dX2j37hN1IArLSVcKZlv/9n/1wB8EmrbFb31d9li4tbrNprWk0x9P91wPScUJlku42MStB54IzAJPpJgbIx/I4D5Pq3AiaBO/TUoV9vWXVuaMf2tuyVL7jGftmfDFIAdDQHGNabdt3X/ot94vO/Z72pQxr/z7Be9zlW1VhSMY1Jpwge695C2JHC2qYGEC2H/fEQzshbzOquWBtkVd61PDlA9XP8Dmm7lpIlHc4YLzl0zfUh7VqdJkGq66jOa8GWU9cDF+EmwYbBqvKCTTpXT0To3KjCmefWgYG95ZXvtJ/4az9vpcte9tINq/C/4XsbxvdB/xv+fwJm/y9ChEvcPvgfjwAAAABJRU5ErkJggg==;" vertex="1" parent="1">
          <mxGeometry x="120" y="360" width="58" height="78.39" as="geometry" />
        </mxCell>
        <mxCell id="mIDjUX9PuWNVgNelnrzM-29" value="Fligths" style="shape=image;verticalLabelPosition=bottom;labelBackgroundColor=default;verticalAlign=top;aspect=fixed;imageAspect=0;image=data:image/png,iVBORw0KGgoAAAANSUhEUgAAAIAAAACtCAYAAAB4DHcjAAAAAXNSR0IArs4c6QAAAARnQU1BAACxjwv8YQUAAAAJcEhZcwAADsMAAA7DAcdvqGQAAGz4SURBVHhe7b0JuGVXcd9bZ75jz1LTmpHQwCgQkhBiEJjBDIZADNjGOJ4dDy+T4zjPcZLPGV4mJ9/7YjvJixOH2Aw2tomxQAhkJhkECAkJCc2z1OqWeu7bdzjzOe//q7Xr3nVPn3O7Wwh/3+Olzq27965aq1atqlrTHkv/+T//l+GgXLK+dWyhv9u+8vUbbGBL1m9PW726zYbVtvVLLfteh+FwaKVSyTEAWtCfbSgNu1YutW1Yqlq3X7ZKaca67YqdvesCu/ySK608LFupa9YQXwnNBn0y+f5A+ugIBU0U6QdKd/0ChgPpLWai6lcqK2365VDq9QfDloQeHey3Ox+/zv7r7/9Lm97UtGFrp1X7Z1mvfsR6lcUi+fcuDIeDZER3NpicnwKg7GmeTaiUmlavLFtvWLP2oG61ymm2dLRk5552ib356h+wN73sTVbtlqwuLJVVPiqVCYCh9aRPT4Shmip6mrPL+q3pDqskLA9xv3gEgCKiv66eStMfDIZtHRwdHrLrvvJf7c+u/12b26LIVACsHNli3cFRK6kX+N6HZJDxsL7VPDvQVQuVnWsVq8/NWqU2o1ZbtWqvblvU877nze+xN17+ZlMSOalm1ca8dZotq01Ny/l9OVMiCizJsasasiNMbtd/EhY0b/+eXjyCSlAaKACOtvs2mGrZH33uP9gXbvqYVRoLdsa2y2zn5svM+k2rlom0720oqxektcscshQWxEippTjtuwDul8bAWsNlu/fhu+ScntXVUjsLHZsdztnP/9jfspc87wqrl7fYoDtly82ezczOSp++WvTQnZgasvRGd7VuhCYHo7ucTCHSfzgYsCEyPN9aAPR7w0WNQb3asv3Bdf/Gbvz6/1KULdlbXv+T9rarf9YaSlRzKd/bQHuhhSQjuhW926Qlpa722YWB1YUNzbyW7NFDd9vv/8nv2KHFJ2yoBlfpDWxrfbtZc9re946ftKsu+37lUBDYlHV7ZlPSEZ+4E4kA6UvXThDgKkjlio8Lju58YeIRNCmwgVKv2x72qnVbliIfuu7f2Vdv/aSVq4sKgJ+yt1z90zajoqb6FU/8vQxhkGTECIBEo2d4tmFg09bp161VPmJ7j91vv/ex37QDiw9Ys3nITt++zY7sXbCZ8g71xBfbG9/wHnvppa+zqm22lW7XtlemrN6XboV+rq/+BvwDIIN0AJoIUCd+MR8Aok5lupNjS011Lys2VHRV5PBqqaFkRKiSDxpWGcx8z2OpN+Xbms2qG573bU5/trGmiZ96f5sub7KZ6rxVNRnstdWyqw17+WVXWrU+bbObN9ue/U/bp7/wafv6t79iB7RKK9VamhSyIsCLEtAX0kHJnziYXoufB4R4DF/8IJXUKxDoaahLvYKHw6a5aZufnrOpxpT1On1rrbQ15qirsTmrladUYE0Za5KQ0I+/i7haTuA4nvbLBSa6lkuO69M7Rp4xvDyfqY2VfNlV8e1QzWEIbSTPJEy6FToUZa3pt54HVOQXUcx6WoSv9KzbhDZvV135JnvfD/6MrSxTfsP2PLXXPvGpj9lDu2+Xr4+I1tK2o26/qxbOgpDuHY8L9edQ7HpLj46CX9HyYxgoVxUVRImPdFKkUtKstKZWT8UVH+o4tO6UjsrUU+aEKks0kOKfbVwth/2gF+X1FPWgl6+RaaAQht9V+q7qofmxHzu/4PVEA0MG9NCdPB1aiozh6aGrftQx9PDyJ6CW647soxfyRstKvKRf1AunMExryqfG1rGpKo1whx3ep/3yc+wVL36rff8b3mdbNp1p1VrNji7ts098+g/sW49/UfmXrDNsah3RUtmSVgSBOzf5130OpkVA+vX6fev1pJ3SVSrycLWahrlILH3SyQPGCh8vZBT9+voN6XYIWSH7Wjc4DhhjnmVUH+lIOUOtQJzuWqTjoXSA1nfnpH3Wx0k3jgv9PFBSnjWe8oie9KdOGuhohi4TeWs80peqSf4kpPxIz7HbSPm8LGHSD14qK2FKo/FVrbAtK2tJiO0H6h00PJT6m9TuT7dXXflWu+ZVb7ctc6dZQ73S3t0P2yc/+Uf29bu/rI5Ecup9W+ouWl9BMJCtSjVJwYkSLcE+HFRYCQiYH7iPfeXAnpLJfkxzHegBSk5AN2UuAiCq58ZwpamcKq84dON+FzAZJxmRYzegm7jgueH1Uxe42g1iTDdsOIbVsnQs8rBWJl+SlXhRljq9NZ4mQsGjnvB8fwL25by+8rBP2YE++RIX/ZIOBHRRL09Ly20JFQAlAgD7a+gZTFm5P6f+d6ttbpxhV156jb35dW+zTdPzNj9Vt0MHn7QP//EH7baHbrWVwaJVpiVCAdwddqzT0TxuILnyI75jKUgLdz+Kps1qAHCcAoDEniEh4ZNvo0eIgCBi/DQlNNV1tbd4FtGnMWzjOMrBtvHTvizrCI9IX/15XtE9PfKUN35F+timHON5lYLrfOjj0Pv5XJZ+vi+a6DnP5bEvHIKKLrcyRlaQlEqc3+spldb5UDQpPG3TDrvyJa+yN736bVo3aMJYnrOe0v3Bn37QbrnrZnJb2+T4ihxPLzZUcOE/b9j8y2uv8o/rATQTRIhnQh0RYwsdZSsorYoEUrFUSVWq4D+bSAPxMrJyXI+sPKev209pUr507AbXPk5yZ2hwD5kuq5Dr+TbgISPKHcU8vaOOcTiNnjLH8ZIusq5m/mmiicOYGXRkc7Dn1HqpbhXJ2Tp9ur3+qrfY2173LqsOtHwctG3/4lN27V98wm64+Xpb7qknqMqxVZXrkSd5+FGYWrrK1C+WtcBqD8BSwBVIZMe1HkGzVLUsTRXULUmujFTS7Kgig9SkYhUjY5xnGcuaLFEeDqnqGKypLNCdi2ELWujg6aUbiKHRL3SEht4g+aHl+sPX7Gw8T3LZTkLSBVaErh+2kjycN8qDBk8Dt0zNJNtP6RTDQkeoZZ6GhbKGloaGH+Ki3K3YbGWrvf2a99rVL3+jNdst27Jzsz2652G79jPX2r0P3WPtYUsrQg0lHgAEl3qDYqnnPoWRdf0gIFuLCIOfIoexyyPIIUUOW4ArTGT0oyyanm2IcqRSAsoCi9OX0GMZ4+i0Io/Au7gcBUle0j2M4VjkW+WP5nMDTgZSecoivUMhCziOJ0jlYXPtq3kRBJzbGyjw0FBccdIcQsO4tZtaKXQq1u/W7f3v+Gn7wHt+3PY9vte2bdqklUTPPvTR/2a33fV1K9WVR/OBvpYXDCID5hQefJzNTdLj5z4Wlsv1mWLUodfiR7FCKUlwpGWQfkoM+hIKPwgl22e6p4ySw1QLecOKaihkyzH0jiYyTN+cp67N+dr0oAvRz3Uo8rHv071CP9JSOb/6JbrnILCR5d1k4lHTrsZMsFxLPJ/de66URzb0fKFfpI/yXB75lL6nFthFP6erS5ZMz0d6dGeCKZnluhxTk72VTAkVHzMKCI3t/Vmlm1GamssfqLtQp2HTM3Utzae0VNwsJ87ZO694t/3E23/MZrolay8dtFb3aQ0Hf2g333+TLWtpuKjl3nKX4KKqCgAtc8t99SyDjmipgXsbkB30R8SByqDC3HB+BEAvjsQrcYFBCIVz5sE7ZZSstJ/kICmXx3lsMB0XaYToQJNI+eXcgu65RvRbz4MuhziPthUy1/JBn4QhZ7QcMF2ESUja9Xqs5U006gRNlKJsmh29LnT3g2hJEj0PE8OUDCwPNJPQUrGr3uDt3/eD9pY3vtO2bNpu1VrFnjqw2/7s+j+yb957kw1rK9aYZUbBeQcFX1/jSBeZ3jKEQJJaRo9UzfHgigroGmMGCfrcoeA9Ewg5OQTNT1AU3X1f0ZyXBR1M3egaBh3I6UDwkA0tlweNkyIbwdpYuqZjYMgLiHKA0GFcniHn3YuJn5UC1WxZCTAfwPmgAsilubqSRYvWSqCvnuI1r36rvemNf822bN3pvdVTBx61P772v9udj9xoS7ZXfcEBKzeke7Viyx3m++ptFGHICFQAnLwT11dgzcDPBJATkBsQ+jgjgnke4ER0EIAPxvE43kYwKX3Qg5frPQqRbzWvd8VdbTmPkRzvzlfnj/PlLqH3CXKUZxAqv8a4emXWBt2GzdROt1dc/gbHLVou1jTkLCzttT//9Aft1rtusGq9qSXionU0Ky1Pb1KQRAAUqN8JAyBXPK/sdwqrhijkxTan52UFPYdcLyDPE7w8X/Bzes7fCCJPnn5U3jheQBwHzU9MubOLnsCRlk+LL1BpXSJJHVWGnywym6rNKE7mbKay0666/I326qvfYHNzc1aqtGz3U3faDX/5MfvaPZ9VT3DY5yFacRZzDiQW6D0AtA0g7zrB6D7zyn6nEEYJiDKA3LihB/xROrTA0XxAzgOgUzdgtPxRyGWNkzfKCx0BaBznuJY2IV2xLO0OSTS2DEuchsyGp4LP/97KwKYko9yfsU3Vs+yNV/91e+3lb7eaJpLb5nfY03t228c//lG7977bFWLL1u52NEGlp6GuUV+XdYLK8ysqFpWmEkDQnwlMygs9Ny4ALdLnZePAcCIwqlsevMEDI1/O2wii7NgGkHccL8oBoIN5nRINvaVDONkdXaAc7ecGHEdB5Yg401Be+VMDvVW6sx4Eb37te+3db/1R666IJhk1rf/+4EO/a1/7xue1iuhrSFBd1cv46qYIhHJVE6C8EqDfCVMYyGfLheIYjQlTGG8jCMOOMwbYbredj6xajcumTFIGTocfZYBALgeIY/KATBaBPA/0Xk/Lr+IKGJPLmPBF/igLOvu5TPaBqHPIoyx4oSOQ54EW8kZlQQO5TNzrlKzVobtv+D6L+JmZTeqqkcmVOtmlrl2uHnPBCmS/tCxs+TmCGdFmVaVqr2xz5V32pqvfZ1e8+I3WWaooOfcYLNn1n/lj+8Yd11urd9B6XHuoyM79FetoaVisAp59iIrGPoARAkcDKRklOWIjIM1ovjxvGD54eXocNwlDr4CQC+Z6B4TcjSDShx5sAaerTTVq02ql09Zu9m16WuP57LwdW1zyy7Yt/VYGTWv2tN8bCPvWlMNa/UXxj9qgf0R6r/gtYj31BL22sGnWblXtx9/7i/bjH/ibtn//EZvfPGvHlp62T17/Ibvv0dutOViyo82Diuqe1dSL+Kng7xaEAQNyQ4aj2B9tORvBOJmRLzcyAA/IeZNwXCsdxwNGZZ0IIl3kQ1a3q95ETqtVpvwuoH5/YEtLOLdrm9QLINWvvtbVszXk4YZW9TX1mlW14HpXy7uOZvYtq8z0/IqgxJjESNeytYSvvPIN9p73vt+W28tWmx3YoaVH7WOf+KDdcufXbKD8mHlh5ciJJ4HPFPIKA2FAtmAYAuPSAvMgOBGEjMg3CiE356HLRhjlA+iQ65HLIm1ep8gzCYJ/XL7iVi5RbapRt36vI4cP7Dln7rB9K7vtcP8pO9TZY4eaT9rB5m470HrcDnSEvSeE+21/Z78daD8pfMQOdp7wtAfbT1mzdMSaw2U72luyl1xxub313e+w+ua6dest23dsj93w5U/b3Q/dYU0tDyt1DT/tbn/YqZStW1qwP/z0b9pXvvZJq1ba9tZrft7e8fr/w+oaj7iH4ZlAXuHYgmFg9sPwHOdG2ghCDghEXmAj3kaAHqQNDEDOOOcDUcYkCH7kC73A0kDDlWjt8ortXXrY/vOH/r09eeQRq2lQv/CCizW2b5Hd60IuFmkOU+7aoMyTRH2N7A1fx6fLigCyOdNf9SGhXKlZW+PB1EzJOoMFu+Pur1mre9jmamdaZ3HGdmiV8MPvfr9ddsHlVur0BsO2ZhPfjQAIA4waLY7XGUS0wI0gnAHkadkPWQHBH8cbBdIEBkRwAuOcnwfNJICXlxv7pb7yCXtTS3ZsuM8+8qn/Zjfe9hfW19S+XNLw2NcEUM4va2LIiaJBuWMD+YXrKKX+FrlcfbiCx0oa+MtCVgxDrtvOaX/ag6GjXmXAE0jTCqDKilYL8yb32+LBJXvNFdfYj7/vp6jXZOW/E5C59ZMBhVwoIXLTHTZyoLbpFjMdVzWb1syWLcd+GxhpJyKtoS85LGFAiSOvaAN4SsPlL2QmnpRJ1489zyT0NLQoBkUZ2XXnPD6nYgsH587Gkbljx8Fo+jygWAWWKXPYs2m12KuvvsouOP88NT5N5vpN1QNnt6xfBpsKAHBF+21jwcDTmm2laVeOWbt6QLjPOrV9tmL7rVdZ0oRRs3zJLtUbttTuadYvXWoKLHX7bU0uF1vHkj/60mhFOj2THmC1MllFASrakfIdRd1Sc8H27H3C2t1lGVUTnC2zduDA0+qeNGNxQ6uFpCmPsOjGB5wPx0iMkDoGM4OrNE++WqaT4XOcZOT6AJF3HPiJmK7GYs3K5zUBO/eMC6zTGlijMuOY1umSJ0RjP5lCw+EPvQZJNmWELfJhB3uAQPBcO5FwKN17R6PynoNP2MLiUXXjXevKaVrXKL3kuJ3S7W3pQpJ08sJ5bkzIfQQA+jFkCE29QUXLXrL3Bx1TjNndT9xqN93xeTu8+5i94kWvsV/+6X9oJY0AQzqQZysAwlGd6ood6D9tn/vC9XbrN7+qFtmzxeWDNj1btaOLh2x6Rooqi2JQuTBWOvHhFVNlPSwKmcBGDlwD5c/PnJ0kcMm0NuT5h5q9+PkvtR961wdstrRV5p/y6/D1sqbZRRCgM1fvivM4qoD0KgIgIA8A9A7nB4S9oEfasBu0qGsuBwge9EkQeQOiLOR8+s6P2Ie/9Nu28GTTrrz41fYrP/Pr6vhGMjxbwH01rYWePXLfbnv0gb12dL96hKWKDVp129Q43brLmpkK+8LeEtgoULQVLYtWxF/SpKbAHmlFY9tbrm2AlVPG7krZVha79tgjT9pjDz9phw8ueA2qVrepusZTNxGGFFVYKZzil3qzlh2GZouzAoMevHA0+8Co04A8fWDQOKE1CTmpBsYxS+BxS+SA7+g8QCgGUImoCLThoGSbprbZK1/+WnvZC6+S03fYdGmLO/zw3qZ6rVkrt+ccK515Ha9hrbtZdO0LrTlrpRZp5qza2ZTSFrzjUTKRe4pY6kxbv1W288660F764ivs9B1nyvlq/QqCfp96FYbTRnb0Pko1dufnDSiMHLbIbRu2CnsBcRzpwaDFCapecSYTHEcbxUiTp+t2NaQI+7xjYARKrU5v2NXM4ztdBaA8EBXUdMx63G6i7nJh8bAM1bGZ2YbG1IqtDJgPkF5pJX+ozhaUCbGrIpaurljjF8mQ68+4YygnToKNeBNAOtbwrAqi3dN79dolm6kp8IZ1ORoOLRA9Ugl++7h0ZDnmj2NNcH44FD6Q86CF3WIbkKcPCNuOps0h1wFgGzp8+tsfsY986XfWDwEh9DuBXKHYl0ms0pdTNbmaq83bjk07ba6y2fpdzllvtfnyNm2Fle02n2N1u8ZfeNttU/U021Tboe0O8XbY7Gr6dHw8bhNK9inirPRZWdEKQ3MAngksq/VPN+T8csOarU5hQK+WD/fR7cvlPhyEDXFs1D+MHgBvEh9absNReo6T6IFRRmAOKrHYWwO0L3ZPHSZVAppGHb8bFpPy2FNdLYkxtdSpWkNGrg2hTfu2NtD+oG71vlIIq/1GopFGK9e6Zr0cV/tTvp2ILk9pThW1bt46c7rVSxqS6PoVpN22ejB1//Ra5eicVD13JF2CDqgnLTVaMjjq5JwXGHkiTUDkyyHPF0CeSQhEWo6jLOeNcXX5+HvFtaWTKwrluUEqBYwW5MYQjhYEra+l3GDQVQsxq5JHMlkyNapaj3Aa1G+NlgKsT3XI8l3jhg25xOk8yRWd0wWJJ8P2tKOt354+CVFVW9I5FjS/XVvddZKlugVf+4lWdsf71E8BWymr6xedYTO1ekRhE+1QF/3nTF5u1XFOymmxn+y61iOE/diOQsjJeTltEo7Kc/qYCFAqFCqOHJLjc2VjH8iF5rw8AJwm61U4weL3vsloGE4VrioNXSgFa5WbtkrG+RdHWZsbbb3RSY7fFaO87DtKv0lIHmSFPF+uxzHyvMwkl3JQi2Mf9UsNm+KqSl+pFCzoWeFOGvGlbgoCPwojIy0ZLxyZw6odin0wdwo88gE5H8jlBS/PdyLMIQJtEpTTSYz1mXLw58tGFM8LGkf39KyXZP30goI0YdKecc7FX1+C5fEQzd7X/X3RB1apqoXLY1wYkTckD74mW/CUhzRMLMehe9T3aVXSo0CZIaF0kNkTDz28nFQHbqDwJ32UkhoFAl5TqiO9K9yxzKlaCBI5zllATt8IcrtFnpPJ92zBCc8DUKGITCBXOCrMfiw9QnleRjCUwfw5AJkwPZErHgYiOLRPd8rShOHCHc19ceF45eKhS4IHTCdflEd0PyM2Blk5UL4Hmpyc7v2ndIJQaVQWZSYauqCottSl6BECYVMT0rl+ykN6rzN0pfcXMIBFC8vtkTtzHAawT9o8YELGJHw2Yc2zEwBlAkYViArnCgedpkVHP9CW15qxTVhx5DZ1f+jEMbnQHSPr01v0ZRDoPHPv4UA6nFHsj0N/9h7HqCXnGMN9ej6fhotuiedXZekFVQ5DjQ5Uj4QeNJQonXwr+Y5KP9TcYiDkOGyU2wNYTT8BI10OkX9c+sBnE/I54IYwqkA+LACheICqJ5PxxJHW+HL4sFyVESuJpu52ACoghsjxvl2VVnak057YJ4hKvK1DmB5fK5D9cSjZXpa/iWM9+gxBvIScI+dUtILRdRFJ9fK5RgoNEQpEquYC6aJZYQP9VFmprGHD3yayvu7sY5+85xyFPE3kD9wo37MNqleMeuMBf486P1cy6KF80DAqjk6GLxxBEIjWk3cJCJxQ4W0ktbqVuS+wKpqCoVQ4qVLV0hG+tiDXuU+Imr1XKulCCFjWvpcjXrXaEEqm0wmsxPPyCEINWyU5u6pZaJWtjhnza3IyjvY3b+mPCaCfXi3KYJ+657aIU7Ab4WgAxDE4Ln3gswkldYt+MahXWrCPXvfv7Ctf+5Qq3lo9E8jrososqwS5o0GOAzgGgtYpd61V6thKZ9EOHz4kelfr6o5ajTrTfleOlVxliXxKUGzpmtlXGTLEKESo5mVLSKJHF3JcQKe0q2VlwNhL62epynyAlC4mxyhKW6YMrBLixQtcn4fh/4uE48qZDCloyEq+yMt8hUDmMC3F+x648zNbbOfcuVYZTHm6URjVweunfYLq+js/Yh/5wm/b0T1Nu/z5r7a//zO/fuIbQmosiSQTAQAFxKQFgB6Kg8FvVY/ZUdtnN9/2Ffv8Fz+rltW1ZvuoTc9o/O+v6JguNinpXbfKYUz2Z9mdnnijQFdMHX2c9r47VdZ7MhjQJkCSezyQAxfibJwaMn1HkOpKqnQcwJEbnPJlB4LCZTF/KOwzmufkQHOVbk+9Cz0LF39ksy4nSMzO3HG+/cr7/63NDU/341FAH7eH9AlfsOX4swqAP/zC79ihvU27TAHwyycTAHEtIDdeCIUGxj4Q++3Ksu1dedw+8ck/sS9+6Qabnqtaq3PMGtMyVIUHFrmWrTzkJwAYixUEBADd7iRI5chZcnS4OvRgJj8xAChqgjNwPBNOcrp4UqadE0I4OhqIA4Z3OyBvcl1OBN1uR/KHNjs76zIXl5Zsyubt9//dtbapsrNINR7QPwIAQL8b7vyofVQ9QATA3zuVABiFPAAiIACOKaxb7tix4VH75u0321e/dqO1uovW6S77naudrnoALelcSSGnY3iWHRHyQwqACfYPchomEkBDFh70IBgHYm8YANTB0whcpzVw2ROAk1qUuC4N9dAP2kZ5N4KBltT1et16Pa7qdX2JPT09Y+effaH95Dv/ls3YliLl8UCZ4XwQfzB8fPYODQGf/61nFgDhYCAqFds80qBRYF/r+Z7m/C119wcPPa3WvySn99UDVKzVXtbEL02cFJsylZzPZFG9QPICT8aOibp1MGpYGVx5R6nrYXxwQE2BOAnG50vwTPNtDJibCZ8/mKO1KjbmOv8mzQG213dZdcBLfCdD+IRtTB6fcQBMmgQGhPMDnKeur6OobXWaVm9Urcb5XQWEUuvXs65+kixkVlsEgCNmgzc+AApNxE8/jtNgELRnBuiSZANRytr/SZBKBNEipR1HO1XguR7OPXQ1Ya5pBcNxq9e0fndg843NVplw5xM+CmAfpEFOCoCTHqBCcB4EAM5nn0JA9j2t/mrDqgKorpUEV9wUsd2yPwUz6Ko6/RlFsXAo5OqgsDqcEk1p/VWq47Ha46qg9ocpTx10umii1wccj0f4E9HfiiwcSj7yBunqY7Wfjsfp4siVSs9D+gJXr0yOpD1JpLxhl6umc9YYztuwXbV+pyxbztqm6W1y2njnA9HqR30yCU5phhKCAyIoAOiBQF+z2F6rYzN1rb1F6yy3ra41+vzUJpuqzKhX0Vq8F6g1MWeBQXUS1YECZKB1+zgcxn5VSDohNEfRJmDFt5FuPVaESYcCuSDUk/H67G+gi7BCPYp05MnzwRuX58RYldNla+nBPvaaqSoY1Zi8HIbJCYBPwi+5P4A1b62BXwuILpwts04XUAgJYXQhjEFsocV5/+MKEQ05zOOmZuriKb8mMvWq5gXcltTh1aha03ocy2BUhuKFaY3Nvnb8OuzxWNaYCEoBvzzsl4i1D61E9DNejkHO+XKmb6i0g15P2PWtlFVedZPUhTLEd3nSgXZW01BWVhpkj0N0Ykt+Ah1MsiirJ/2EvKJFMiOP86lDVq8cS9K1ynKXpaDMw+iJbeoyKnnDN3kLx+b4hH1oQPgifMiE1f2ln39zgN+a68ZDODeEgQEurOAHL4JCOVT5lirfEp0ngbWOlXcJCILDr6qpdoqnVSyzrarCbElziuinbAs549DL1rbCmT4FJNuyr0bQKwUtZwFr4rHlGPo4WYEVWTDXIUc/m0hZRT0pK8rjKuW4PI5K26ir95Ae7ksucg00pe51tCLg6elk+9wn4Yvwx8mCwqfYmwAIJKIoLMeIPiCnA85TpUt+aTehP8QRl19lBM4D9BQYXWFv0PL9vu8LxeNe9lNGlykjjUPxugV/wCtmNdHkNa7QnC7Dkp9A5awlW5cn+qCvPBMQncfqIkQGZfm2oHm9JfNEdVSXIUMJi60HjezGPQrpukRqdGFzALufcgDQHWwMa/xw8mghQQ9lIhKV0vwt3CD74vkLmZW9XNMgoKVghVPCNVVKyKvT/IkeaOoGThVLoJrQWCz4qcziHL7rwPWHxE866bjYOm4kUziqwzpUWVwvyGWdLHY0+/cHRLTlcXF/6xnjgGyHlcPWYfew+alCcVPoRhnXImzVsSOFA8FL8uRoYbrUq26KPPQW9O+pL9RCEB4LnfRjYch/0Ne+5DtFXL20PAHVXrTlkrCOi/KhDaSyb4v867ah50Rcr0OOiTeSFrsUZW2EFb84RvBpzsV8gFaPbWW7cXaP/VOF1IdvkI+CRscYMMYeEMh5AOqVcHiZhxu5LMy1dxlFyblun674CTXVUvsvsPhpcC1p7XuqyJW/sVcIM0wfb4jLw+lqoPOqhRzpqx3fcsxVxFEZ6zGlG4vI8iuOWTlKHzLH5nFUPtkDu6U3inKOQtvCZrxLIA+A6PqDdirgj4YtK2O/fMw+8ql/a1wNrFXb9jZOBH3f39K6VC4S5uNLjD3hfB/zR/h9jVu9Et0X3RgPKDD+qYVzs6h+ZU1wUpgomuna2GerCld4MpazgqcIaJNkjYNkqPxhDrTliqNf2aNo0VdP7RY86uT1nGDcqPM4cHnauqwiHVsQcVw0mgR5aejHkOVP+yhoazbly1pWZNQJ8LKE6BplAHFM2utv/5D90Y3/yQ492bRLL7rKfvVv/oaVmu2unwkcVJf8TOBNX/+UZqIte8trfs7e/rpfMr4dophcLQhgubGh88Xv1Fu2YIfts1/6tH3jlq/aSuuYtdpLNrepoe6sby2+j+LO5z+y3Uw60KyZ3gDGM4DxbtoYvGTpn+4ESjSAKsXFnDBwwGqedPisQ9gXhXAeNuV+hLN2nGe/9lP/2uZK2xN/BNAp1UWNuvATxwQPl4M//IXftoW9Lbviklfb3/vpX0tzABCICPK4LejeOoRhgFDMeYXzgdW82sJjXD/SOmJ79u+2fYef0gjftOos38hbsH1HHtP2qDWFbKE1B4v+/pqWsMlxwT9VTPJODVfzKmRbFvvpeI2X0I/ZlsSDH7RnFY/YUu+gddQr9+or1q0u22LvkO2V3R568l5ZNl0aHgfhJzAAf7gPtZ/uXxBNqEUF/lvvRMfiippnHONgYJLzAfJx+pcvYO6cOdM2l7dZZaVhpcW61Ttztrlyus10N9tMb4tNd7dqfw2nnbZZ201/5TjVFfZS2Ww5znnTBc+3nlb7WZpnDzfbpvJpvi0vTwkbNjvYYjunz7Kzt53vZy4nAX4Y9QU4CfyOoLb4HUUzc4C/vOlaq9Xa6v5/0d6pOYBGGz8rNioU57Md53x4PXXzHWvb0soxW1w6okDqWbN9TJHDHb5a2xJ+ikOf3DAh84sbKaDSlHHy+PjdgKjLKITxJvES+XjeswHI50YQ7BlnYrdvPl3B8RzNk6aLVOsBXwC53pH/U9/6kH3oi79li3vadqWGgF/+qV9Lk8BWFgBf/uq1Gi/WAiBuCUMQiOAcw/lhIGgUyEy10+1ZvV5Vmo7xQBAneTh7hsuZCOL85HRmuXkApOcE/mohGWy9M4MWMI733XE+E2auAmKlgL5o1Urd+K5QSZPAcTDudHAcX3fHh48LAG+HRdA4xMwXIDMOjqhCCLzg57woJArm4Yl6iQ8gacnVEa2nJZUUH7Qr1m1KRk+8wO70enQ6278iVGuq9NFVhlXZgRxDrwxIk3Qd5ZF3rMzvCLkqOqued9oGLTUgYalTTzyVyfuCTwS5n6KB8huF4trCmoP9Uedi5hsOHm3dQARH8ML5pHHaQEsP0SvSwb9EqnGrNFAlBg2rlbj0OyPUlsuow7qWm+ri/P5DsK68DD5/RTiUI4ttdahg4PKubxO9zNtDtF+xER40pz/LKPnWTbaql+cca+VZpw9oTBsskcPxOY76KodyukJ0vEAyJocmx4ZzAQTR1QC50wMBzlmUG0qr7bA69HN8fcZ1LnBoWOA0Kj0+Z+G43wRphCG5OVXsZ+DGoJ+1K/jxEcmgY5cNecKc58/7FLye7OBptY/Oq2lFX+WRNucV8jdC0kQZoR/ljuoGUu/ugC+myBpVDa869hYkjHRcLWI5GL4YbaRxbiB8BLKf+5Bjf8JZgEgRfb+AtShJQTC51QOhCAA9eJyQoUI9bQcVKckjXwxbRWUcdehO174jxQjZX/eJmRHksytgfswLkP2TMWN4CeElfvAiLbxI5/xMzig6r8i7iiFvFAteyst2Tdc8ndNlCW8iTsNWmgV5vjX068Jg4aPcDwGr9i98AeKjQHlMuZWmyCrfJudOgvxEyLgufxJQnW5J7V7IVy2plH8IUshlYday/lo3VgXip9e1KaO3sLRSGIfpQ4zkkUF47FfIvl9H8Kt8x/NI7zzycscJpzbhZzz2kQ8/30IPXqC/cRs++Ud469BPoY6Ur31o8Wo6bIAtXG/lcZ4aynGyMuS6QvgBCOfij1E/rTl+PHCe56QAgYEAhW0kWCmlKKd9VSlFuMdRlpwbEnjok1DhYRE+k8LXMtJWhpuAqp6jP+GrPeKZfadz3bzgQXf+KA+aJCWeduDTHZJHaG5c6aytH4OFHC/feegYvON1DEy6aVfpQodUjjbkB728TD/xue4zTl5CpcJ2cjIQDg5f5D7KecEfhY2bv8OawIBJwnIghTd29pVe4ZLQ6y0jaMu+3w6qg+KpQXUOXfHEL2SMInlQOmR7XBWyVM20LdLk6Vd5kccx6ZFopNC+jkO/oPvZ0IynbGs8ofM2wNCJlGkb9VuzAzyvl9uK4wnoadcgd+4k5wOjPgzgHM+GsHqLmABhJxoyAvzlSRrUuXsVLIMx+Kvh8zw+5/y5FuiGRRFFdkmTFu+9NdMai/y09a+B0qCE6jXX5GnLcfBIR/o1XpZPkxT/+KN4/nFHpfOPO2bb1Q8/ZjTy+L7qmD4gmfijiHxGHNJ6GehAXtFdBx8NkBPlpLqtlTMGVabf/j7GwdErBOQ892Fy4zrwVcBG4FfPijTR7YOrQieAUslVUli/qn4eBFrqUWkqD93f0MmMDzEU4deK6QUwMIY4Hj2g+IVxkdWnHMoQstXxGg899AseclbzYvzE42NMLr9wUHIygZYw8SJvclD6jFvijcVIW5SRUHlEczusBgAaKjy0jcAeKy+w8EEgkAcAtGioOX+cv/ym0CCnRPiDfymDXy4tHB9CAoHRAlbp+iXH68DfF9SRj5mESVEtY/g6Ll+x6vdr4tXlqSnRatavTtmKDNEsV6xTrVhPs95OuWMdW9aKYtHavcPSelmz4bZ1+stpwld0SnxGvV1uWreqqVa1pjw1aw/SY+lcW9dsgzfAqIyedUptpWnboKYJGF/gKC9Kl0Utz7h3UXoNatKbNawyyFH+VQbxSgM+7dq1dr9tbc1hWOW0+l1N+EqiaavkzPKVUGVqBlSM+wzsPtdgK5sxeexK185QKJl4vd/vWLerfY9cJqYdyZOOPklkNqWB0tfXCtjC7jgdxO7QAgOO91MKErnHaUwboSaiw3pH4nzWlhxvVFieB1DYIMplc0Oj32dHyGNTORbbck1rRXVta9tV8rYCplup2ZJ6hbb4nKI+1m/6S5EHtY4cJ4fXVmypfcBWOoetXNfEqaI5tBzB/Lo9lAFltJY8xl118r2X01adW8KO9OGrG72yHFXrKd2S8d78fqUlpxyzco339sqpWEf5uGnYnd+RktzZ21tRxaR1Vce1oXUVI11F+KDGtQ+x5WjK42ONqyse8f0eBSGdHebnhpiBgnRYlx51ya2x9qdsySSwOgQkAaB688JoBRxLRcpQ5+HOA0b9kffQOQTdoXCRUhV5OCGzARAxFBIQBYTAUAAY5aUAYD/opJFCBSKWm1+Q3umpnda1p0rXG01F+5LtOfqA3fHA1+wvvvxJ+1/X/4n9+Wf/3P7kkx8X7S7rVOR0GZdH0Hs1WjyPU1dsxqatwb363aHJxukDzCqLJ5LbRtC0/AMM37j3y3bjNz9nf/G1z9hHP/kR+/j1n7C//OaXbffhx6xVPSrnamE2rbCakpAZ4TTnLwi0tj3y1EP20FP32t2P3mJP7HtYSzo5sNe0Wp21RZrNJ6fQeOjhRNHwxjsJOAHDZ2SRdXjpaXtk9/328O4H7e777/LPzjZmZox3JvC0NN8A8DNPikY/IVfYDXPnjS23+6rtxwGsEXZ6P4Bk9crxfoBPSumWve216Y6guo+FKcI8Q1YIShAA43hMAOlNlVmMYm1Oq1Ar5+5PnM+8j4tDbVqYHFlXi2qpRT55bLd97sYb7Fu3305D9Dd2dZotrRbKNj0169jrDe3Ci55vb3nrO23T9Fa5pWuz3brNc5XMv50SQaUAr9KFrtiBpSftlm/dZHfc80178qm9MjhOaVhzqWVb6jPW6XRtx85d9pxdZ9nVr3qtPf/cF9iBAwdtvj5tp23eakeOHrKjK4ft45/+uN3/xIPWGrbsyhe+xt7/7r9h9UrdpjR89bt97dekq3pNqs5Q1uaroGUFdl115aNNZdu/8Kh9/DP/w3Y//rQ1F/u267Tn2nvf9SN2/rnnez0HGk4UAsoXNuPrUbRkVY333ahGo3YHwx9g+Cd6AF4W/aEv/JYdfXLFXnHJa4o3hbqIybAWZ2sFjYNRHs4lr+cveOkHI61jqRpQVcuvqsUtDw7ZN771JfvX//4f2h333mj1maYtq7t/8ulH7OlDe4X77J6H7rN7H33QjrYX7YavfM5+9Z/9A/vCHZ+TXMZNyVPrd7FSoKKus6JxfmjH7JE937I/+MPfsc984U+1f7ct947YQvOw7Tuyz44uL9ihpUVbaC3aY/sftC9841P2f//3f2bXfuUPbfa0is1tnvXhanbLNpvdsUW0WTva3Wft2hG764FbbP/hPVbn1K0Gno66cAyuSitI1XvyTkJ6QdWfcZwzifS6R5YP2YO7v237jz1pB449ZRe+4AJ7ztlnKE7kaDWQ4RBUXbgfS3OSJFHgJkt2A3K7573CRHBV1vy0cf9fQBSSZ8SBebTlPBRxZbywYlxKHNHJx8sP1EK76pY1xmuap98xu+3Or9q1n/6YTc8M7emnHrZHHr7Xtm/fbD/yIz9kv/Zr/8h+5Vf+of3s3/wFe97FF9nhY0dsZvO0j9+fvOHj9uX7FQT0MnX1GR3NATSOal4pk6/YQzL0X371s/bQY3faUvOQDwdTUw278oqr7Kd/8ufsl37x79q7//oP2VWvfpVV1dXvOGPOavNt+9Tn/sS+fseN0o37mbp2tNWUP2p2zvnn2Kbt9DQrdujYXnvg4W/LuXzCoa/5GWGtlkfrcztgBA0Fmvd0e+oJ1AvyxPT9j9xt+xZ222L7kFVnSnbuBedYVRPXheUlW1wmaNUdeqvXhC/chEzZHDuO2j1a+4ZB4P5I6WNbZnxC4CQg3Whh4XxglBeKUHn3umOK38Sj9au10mL9lK/GcDnprvu/aZ//y+vs4NE9tnf3E/b8515iv/p3f9X++S//C3v7q95pLzr3UnvRBS+zN73yLfbrf/uf2I/96Aes0dDQ0Fu0Q0d32xf+8lq7/b5bJJcJpWbU6lEGmjwyybvj3lsde5pxLy0t2Gte+Wr7Z7/+L+wX3/u37fte8lZ79QvfaNe86s32gff9uH3gx37UZufrttI6rCFiyT72px+xPUf2SvuGNaY222xpi52rbvqsM3dpqOzI4R27855bVM4xD5NGVSsI7XU1g8ShrKIICBnIz4wy5C2uLCjPbQo29VKKo4teeKGdfsbpKqNsjWkNcdMawrA7Pz8/zlw92W71YxoT7L5hABSA3ABfBm4E0YIBhOcFjCqQo4NY7AXNT2DolyYyvPNGS0XFxtNHn/RXyTy250GbmqnamTvOsze+8u32yotfbxrVtTTinMG08XYMJkU1Ua+57DX2o+/7Idu5fQtrBzt6cI/d99Bddrh51AYybGlaY6/oRzRm3/fIvfb0gadcpTe87s325te9zbbbLsma0iSIewFmbFNlm/W1TLjqglfaD//gD9u5Z56rcqoan1v25S98xbtzf8JZs5JtszvsjG1navJeMx57f/TJB2zP/sfV22hWTzevunJDjL9Q0usq1JKQ6wCay9tTh560J/Y+6pNBXqh5oXo0vlTC9LGrOYSmImlsTqZds6dbM9k9YJ29BfCCluMqsBtyhSc8EZTfFBp3mQJx2THnxaXH4JGS5Bgj9TTq0MSrqZUMtKziGoCmn/bQIxrX5bzGXMUOLxy2d7/1R+yyC6/RjP40TUK3yu2n23xph9UGs9bgUW/9eIPGi86/xF7+4hfbrJZhXbWqR554wJ5c4LPpzNW72nasreXUvQ/fZ/ObNyvgGva88y6xXbM4d85KS2pt7Xmb6TRsSkEw1eeR84ZdePrF9oLzX6h5acW2Tm+3W796m3HbVINFfqesYNliLzjvxZo4blM9S7bcWbC77vuWwkV6qEwaDd8CdLsL0ytvtI7XZJhF6m133uwXhpgkzs9vtnPPea74yV6k1+gkGRwolzpK6ordsTW2DcidGzy2APToESKNv9ySQtMhifBTMb5MgDSOrS8oEBjlRVBE62fXLynTk0CkfCnCbcoYaqW7bPs1ueM28aPLRzULP81e8oIr7bT586w0mLNKNz3zz51FNW4qkQN6rb6csEmBMW+XveDlcsy0Vo9V27d3vx1ZPOy6LA9XVFTJji4u2nKro9XAtCabaumbdliz29OyvuR3LLFSGWpoZmk/5Td3+O2stmvzBbZt5gxbOaIE7ZIdlGxeljXNa+i6VTt/50V23unP969/9jWM3XLbze5cX+LJyNQPkO80/qcAoLdoDhbUU90pw6iX6k3ZRQqkM08/V+6vCSta4fDNHyXHeG5WCSAtJtU/bLYRjPMVELRRKAIgJRoH+XmAEJgLzXmrzi+AMtMEWHno07SFFutiLmseOnLYnnjyCY23arEKgouf/3zbtmmXjKPBUU7l02n+jADTcDmqUVKXPeDhiLq1tLzaMb/TZkrzNlvZbLVyw3j1rEwgc1Nh1u4Vraunrd1VeQMNC52BnDbny0hurWqoGF+u9jTLLxNsQttkF51zmb37bT9qP/03fsHe9bZ3285tOzx4OQXcGDbs9Pmz7Jwdl2ilUbOZ+YY9pJXJ7oO7NaRpQCre6IUpknnp+DVfkIAHH9Xk79ATIg4VgJvtBc97mW2qbpfr60rG9QJxaPU0FCKhxHJPuhb2c9zAX6P+SP5NgF1G4YSXg92JRfS4I0cyTOJBxW+uq9OFnOdGngKgrzGVrMeOLdp+rbXTHUIlu+iSi9x5rNGVnFUQw26S472f5sd0rzJVpTSnYDnH3v9Dv2A//zP/yH7xJ/6OXbzrPOtrtr6phCN5gUPFztp1tlpkXS2/bd+86zY7pKWl+ntbsAPW1Ky8PI9cRYBarVbrKmLadmw7317ywqvsqitfa697/etsy7ZZ67Wb1tPKhZZaVppLLrxcq4l5m56f8VO+37j1G1Kz4pc0aPkYAfsTjpwoGioIvn7Ll61c0yRRK5XT1ctdct7LXBZP+5TVK2EfTMGlcaLeL49zRlEMP4WcxG4IuU8CnDYm41p4bADh3FGB4ESeVPXeSmQvt1CKqOA0MWfIKmot7Y46zjafPlPCSsm2nbZdWfSrq7LcSaR83qrdMkqm7rSi2fWAt2gMpqyqWfklz3uFXfjcKzUuX2pnzp7mzp+VQXvqVXZt32UvuORFtrBwTF31wL517232p1pqPt3ebXU5vl9ftl5Dy7uylnHqvltNTdQkt17earPTO7S+15KwoXapFctAs3zeX8TduR0NCxee/1I7fecZXs70zJTdeuutfqqZFzzSEHl3hV9C0I93ESwp5O574C6rTkmKAuCicy61nZvPVc/WMF76xIUeJqLcBUYAlLWaKXsPkFo1JkwNfM3Wo5D7IuYAQKL77jooLgcXzhkDZAqhIRihIXwjXvQ+/rwdBXlhpJUT6ZrVir1COlZqOVfdfY07A7pyvqZx5RVb6S9Yp7Si9T7nxTtyIkNFW1k0ZpZnFRwz6tK3WaO8zayl1tvm3f+zVtFcob/Yta3VLXbVFa+wnbt2apKpbnbG7Iu3fM7+/X/9V3btzR+zR5t3q7RFjS1qcQq4ar2h4YEXXFVssSmOehPeYdDScrM+W7Ka1uw9LefQt1qZsue/4MV+do+zfPsPHrC77rrb6jV6kRTTPXUH2IIVxTdvu8WWm6pPv2mzM7P24ksu15C2SbMO6avuriYb0tj7ihpv+autH3Gyq+TQu2wE4QvKDF8E3QWNQJlEY6FwaDg2tkAInwSJlxSn60IF3tKt6siJcrawo1bEwgg+393h15BBCQpyqAp+xqxarws1UFfq1kaGeo2mlkrILGufr4D0Oe+v4xrnkmU0a/JJ1YptmdHSTt3qxc95if3kj/yClTszdujpRXXvO+3Q0QP2kT/+H/Zf/sdv2r/5vV+3v/j6n9nuo/fbcuWwDRstZe/6K+1mp6ZtujprrSXGdTlWgcHTvtOzM16HF17yck1ONf+oanVT79k9D9ws3RSoSs2Fm45aNTd9caLo69+80cp19SOalO7Y/hx77lnPk2H4YKWCVfFHg6nWOINIANB6wHQewMdT7Lo6QxwPuZ+iIYav4BBPABuGWIJ0nZNBn7EX+yjCliVer6eqaMsxs1yWHQiH5p8l84GPk2Xq3tVV9zW9prUwmg1ktIGcOOBKoHAoW3Jphe/idtWChrw3SBO+ckdyqTTW45kCzcy76u6ZQg2Vv6eye3KEB4DMOl3tafLWVA9+RD34IY3t6s6nFSDqiv02DN4eplX/C898lf36z/8He9PlP2i2oPlBr2HbN8/a/v0P2X2P32wf/Ox/sv/zd37J/p8//7/sqw/+uT3VukMlHFW9ljQhrWnJd4aZlo2m5WNVPQ9jekm90hmzF9klZ73GZhsNm9vUtLse/Avbt/SQ9RWLTZTUkq4jqx+2vfbYU3dJ46Y1l4d26QuvsF2nne4rA07w8OQUVxGZS9Qki7MOAxmJy+VDgk4BwNCgDtIbB3bHwXlPnE/6RukA6zBuKBFD8oXwnLMhHN/aOQ4ERgtf5QkVQkVAFYo5MrZzCxj7qZujF+grwHzG76oyIdNkC9mQEEd6CaipxUCi1bFONp6V4w1aXEVjncx6WN0w10z48hetjOcQdm07137k3T9hP/tjv2SvuPQ1tqm+w7vfGU0G+O4+en315q/YRz72QfvEJ//Ibr/v65KTbtpErVQWrUaalSu+5KNXuPKlr/YXX3H6ebl50O57UMs8Va7CeSNfDQ7spptv1FCx4m//nNIq5NIXv7ywEY5ijY+zdEzFVOe0g4XAdJz+r7d7YNg8HA/kPnEQHRm+W2DGHQ+FLIe8QCAK5ZiCgud0DVbMXehy+LiST2zIJpqfDlYAKJW2DAUKAhmKU6VoxPhKF875g0qZ2zm6ity2ZvRNjZVNOUyuUjeJaiuau/UUAK3+rOSoq9Y40VHvwTcDGEiI9J5mYwQXwjdPb7NLL7rcfvjdP25/5+d+zT7w13/ernjB6+3c0y62XVvOdX6vPbDbbr/F/uyTf2o3336TtTVHKKlX4bo9F3d4rSxdM0s3TPrCS17sw0pPS0zqf+ddt1uTdw5hI1VluX/U7vjWbb4S6Ur2OWedb+edccG6VjqKG0E4mHRhdyB6BGCU5z5xi62HEwYA7gBCUGyBUASADnpBBRLQtNWESqNjbvj0h1F0TEfESRMPBjHT6VIqQADAVyjQU2goqSoAqoOWTN7R+hlHcBsJ8aThSY1eS3PrKWAGZbV8WZ3wqtTlJK0mNHL42MpoymS0pICZLW+3c7ZdYtdc+gP2/h/4OfulH/tVe9s1P2gvUXBs3aR1ufraQ8f22ceu/QN7aC9dt4aCKQ1Xw5a6ZfVU6jHqJc1NNGGc0Try0heqRffLWhbO2GNPPKS1/iPecxAEjz5+jx09dlg9Vt2WFlp29ZWvS8Eje4QNw35AbteNIM8DrLN9wQt0mWPEnjAAPB//BKMRNVpApAMQzHVttj7xEKYeTvmgedekka7Gmy80J8BlSrjc5Kui4ngAqIWom61omVVR71At8d48mXTY1TicyqrN1Gyx45N/v7uoXJtWt12To+hXeFXtsmSlWTXr66EmjOUe3yic0zxgswbqOWt0dtiu2efZ1Ze+wd77zg/Y1a94jc1vmlPv3rV9xx63z3/tOjvU2SP9FIQKNOY/BDWqcEqKHuslL7zM5me3qQWW7NjSEXtszz3SfkGpFu3eB79lXQVsc6Vtc9Nb7crLXu3DE5DbEBi14zgYlz7yBC+ng54+ZVkHeOEEMFkZhOLIKGTd+IPzUYZDln88/+U8mUuKqIPXXnoV+vTMtJfCOe/9B/bLcCyz1MoZKvy5MY0PNPEhr02fkrcJHIJGy7Phgn3jri/Zl7/1Jfv8TTfYU/ueVk61UC3pSgqYVm9BQdNR2hVN3I5pDFbQSIF+S2O7FgtMEefKM1bl+8GLZTt99ky7/LIr7XkXXWDlxtB2nr3Nbr3za/b0kSclV72O5DLBpQ6MWNyCwM2eu7afYy96wWXWllwi/t4Hb7ej7T12pPu4PbH7fmu3V2z5WNuuuvwa21Z7jurfkD9Sg3LnYJnMjhtBNMRRm4/KOo43JgJOIgAShPAoICBoFDZaoP6xJ8/SkkG63xQccOjup7XMmpnGsXKKmsVBraVT16mllLp/v4jkN/fJ8ZrIEQA9XqMqAV11y/uOPmyf/tJH7aPX/pb92XUfsb379iof+du23D1sn/vSdfbx6z5sn7juD+3x3fdporbovQhrbpZfQG/ZtbQpdeVDde3PmdtlF178PLX4vh1ePGBHlw/5zZvo1e42VUfP5nXhlX5a88id83aFWnZf41FVwfnQo9+2/Uces70HHrCF5QMqV8Ej3ve95vttcaVjDQVd2M5tVUDYcSM4bmzPbJ7zRmXl5QScMAAiU77UgxZXnigAGkpwjAKrV6VYFqoLT+e0k+LwWL+3O12NglO2fdvpdtYZ5/g5gPmZzXbP3feprS7I1Mta86vrrmiGX+PzKBrB1WK5e7Q6NW+Hjx6SyI66/ydsoXW/dSqPWGNuRQGlJaNm237fsSZt19/wCfv8jdfZJz71R3bPg7dpZt7RsvKYlatd9S5a29ONI176hd682GJuTkMDSzttOx1R2kzquJGl6pPKxYV0NW+Gm04YVlSb5z/vpTbL7Wntrtb/K/b0wcftjntu1kR10VZWVnzyd/7Oi23T1FbVRo5XsdgNG4YT0SEuJAUv+GF39gMD4LnNBWFnMCB4kY40/gvGJIgyIhOQKwAGL2Q5nfEbhKT+co3Hv5I15NRjy0tqdTP2okteovFdAaAZ+GMPPa5Z9G220DzgXTVPFq+syFlM4mXsJm8bl6jNWzYpRA7bt+/9uiZ+R2yp9ZjtfM6sbdk0r3F2SsaloL6dcdbpttg8altOm7O9+x+z5c4RG1Q0kSsrSJjZ07Fo8rmy1LJynbrgzLIdW5DTFpt2+OCCHKzpQDm98Zz79pmzzGjuUVVs0rC5Z6ckLvcuXPHy1/h9hrz48qHH7tdkcI8HDncGvVJzC/oKXvjM8OFRNwGwIYDdAoHc7kDw4ngcDwjaKJzExaD1wsLR4wrKef5iRHW1fmu04sbfrKmyaDXq2bWVETRrbmgUPnvXc+3s55xnpW7NTt+2yz784f9pj2rc5C6bld6iWnfbRwDFgZXmypqY7WP0t8f3Pmxfuenz6pmOqVtv27ln7bLTtu6QkcvW7DR9gnbFK16hfW4U79kjTz5st911iy/LOpUle/rwIwoOje31JWtsHdpj+x+wQ82nhFrL33O/lpubFB9zdt6uC23b3E5JZR5C21VL1VyCQPQPTtEu5NSBQuCll77KSgqWZa1P77jrDtXjITt8WCsATU5fcfmrJEOBosD2PBtAbtvcrqM9Arzgb8SbBCccAqRKsU1dyzhFch7gfA8AbYV+d7NK8pm9kvsJFTnfT8CoZWybO83e+Nq32Hxji7cyTgp95oZP2U23ftFapaNWmW3bseEB684u2MLwKes0luy2B79hv/t7vytZCqROw84/48X2ypddo+51i3Wbmqhp0ljCIS+90s47/yJbarbtwMIRu+7zn7Ev3/Jl233wMatuHtrUvPSua3yvLdqmXXU70txvX/rLz9tdd95txw6t2LH9bXvD1W+znZvP0dxOug04Q6eRqD/QSkNL1ArRLILqo3me7TztPDvn7It8ls/5gl6vZ81W2174/JfY6VvOUMNIy1GGnpMBbLrOrpnNg5fzA3NepB8HlX/8T3/jNzjryv1zdz34VXviyQfkzL5deN7ldvFzr/Sxyhtx5nwgLyTnBZ9FGN23GELijLGLjP7nXU9V4zsG4oTPadu367hqe57co/nBsh049LTt3vuEHTz6lJzytO1beML2HnnUHnzyLrvx6zf4beMHDu33L33PT2+39/y1v2GXnfs6zeZnfbhoaHLZ0tJrfnqzzW6dk5zDdlgBcHRpwZ4+sM/uf+h+O3Bknx1rHbbdByR37712x/3ftBtuvN6+fc+driQ3g7zyZa+zd735h+20GTlvRfOPcsOHta5mf6XaQN25gkBO4UIW1zsqU1O22D5m9z1yt9Ua6onaS/6KnPe86/1+som3opS7zCNkA+yzAYR9gVEnBi/snsO4Vs/xw/u+bd9+9BvWXOzZGaedq7q91iq//k/+6W8M5IBJAcD78gmCcG4UhkAKAnN6bIkaP7lDXs8vhRzFEpv5CbR0gyj5B3b22Wfb1q1b7Ik9j6rDbtvRxYP2mPS55+Hb7NsP3Gy33X2Tfeueb4j2kF+Ba9Rn7dwzL7Ef+P4ftiue/wYbrsxYo9vQ2Kx1usbppiaavPh5x+k7bWbrvN8PcPDwITuyeNSOKCD2H3za7rz7drvzvtvtm3d/w+5+8Nt2aOGArTRbNju1yV7+oqvsfe/4UTtnh5aEg7oNW6pvVXWhGrIRS80Kk2LVqFTlBBQVq2ppumJ33HubZvtH/ZzAWTvPtXd8/7s1899kM5UtVupgE9lwgwDArjmM2j0gt3s4PXc+PQbH4PgA+Mf/5Dd4Vm9iAKhyqp4XgDAgCohIgxcIOA0H+w++UMsrxgFyKt4cSF0ua+yUXL7S2dMqY9cZz7ELLjzPZjdPq5U1rVta9rX+cueQlv9HZeC+bT9tuz333OfZ97/hXfb6q99hL3juVXLQFpvqyfnEkybRXbWwimbxLdZp0vO07TvtnAvOszPPOcumZxrqlrkHYGDHFAzN7orKWbGZeS1J52bsskuvsDdc81Z1/d9vz1HXP1ypaUKqoKLe9N+qyoBH0kpNzg4rEDQ3KCngun1/yTNThYOap6ysHLPp6bq9+srX2aUXvlxKacZT3Wz9lno/Ll/QtU6AcPKoXXPciAfEcMEx8h56+s7jAqDU7vaHbYxfmvTlUC0nNOghKKIJYXkUQs+DAx6VUw7lg88/5fGTQykI/JYs9RCymzLx9Ir5Grui2TMngVa6i3Zk4ZB6gUMav4/5PfXcSTwzo1n+7CbbPLvdtm3eqUkYL53ivi5N+aRCmdm1ZHUpWC2sO+yoaJauaMMJ4p4t8iDIwQNarjWt1Wyaf9FULXtWS76p6WnbsXWnzakHqPFSKP0vdWUD7udmAiuxaXLLaqRvdSaFqgTfPWzRr8ux3JJ66NhTKueI6F3JO93vJOYSIaePh5KHOH/jhwSGE7Fb7sCw+Tj+OJ7bXcdBi234hI9GffTzv20H966sfTVM/h9yn0uvfGz8o2Fqverp1kEIBEKRHEJJIFcICF5Pxgo5o2kjfV6hCDI/DVuUPQ4mlZvvB4QBQ//4JA4QtNAv0oUcaKH/JN6JINIHRD4QXmBALncSb5QOBM8/HEkA7Fm2lxEAP8ujYS5vsrIhK4SEQahwYNBHjRVGGcfLaUAoHhiAQ3AMJ2Wm1TrzkxuTIPKHbID9USSY/PKsJm6UgT5ArjsY+wGRn/SRJiCXD06CPF/IYgstL/9keKEH9FOFyU1pFdYqlysyWiD0QCDS5PScF7LiOBCISgGUQW8BcibyRJUMGQFRBtu4iYX9cWUCcUya0JEyo1yOA4GNeCcDo3koH3lsc15grvNGvJMFf1GkivWDcSDRaasCgCjgVAoalzaXF/ygheGhh4FzQ0+CXFYOyALJz2lrtpE2x7wMAgWMwAgIWQB5csh5wCg/hzztqLyN8o2DU02fg5awGxuV+9FDwTAckFcACOMFP3ciOMoDghd00kcXHzSA9NDppvMyJ0GeFwg94loG+9CQG3rmEHQg7EOaQAAZUaeNeBvBaPoA6JQPPZcF5rqN8nIdThZOHADM3Mcok3jrFQ2EFjy2OS+UzBUPCF5Ani9PtxFEutjm8tAnb9mkISBAjoMfedCRoAm9AgHywt+IFzqMA9KGfUibp8/lQQvM6eN4yDtVUJ6NM62Zb82oQCgR+wH5/iiEkqPpA4FJZQB5hSdhQOTDsNHqw/Hj5OY0jsMpQNgIegRMlDUqB4BGnryu8DbKA7AfednmeYGcBuQygVH+KCi1/5SIPx/eVdbGAeBZioLyAmI7TjloowbMW91onjxf5B1NAwRtEiAfnCR3FOGHbqO80D16BDCncwwvIM8LRJ5JEPICJqUPes6LcnJa7Ocyj4N1rJT+hH2GP8enSueKgLmTJkFuLBCg9dCtbgRRwXGInHD0JIyyIn0E30YwWp/QOWQB7I+WBeT6jcM8H/vQKC/KjHKCB47rZYIORPpcZvBOBTY4GZkgVyKvNBC8SRCKgVQWBaPiG0GUMw6ReTKQl0OeE+ULPaNOkYcyQxa8XFZs87w55vkCRul5OSEv+HnecfJymwQ/eCcLWgZu7IxnCigVXWSs4QkAFGY2vxGEUcZhbohJGIH2TI0ymj6XlyP00bQ5wAudIk+uVwD1GoVJcjeiT+JtBBqUi70JELpFAXkh4xQPgJdHJxi0uOVpEmDYSTjOEYG5sXMI/kaAblGfXOeN5IUTI+8kBEK3gFHbBALQgx/5Yz/oQJ4Hej4nOVk44RCQKxqVYD9XZBxEegDF4iwc+U4EUdlTxYAwRn7m70QwKieMCyIjENlRB3hAnjfH0CFsBbKf2wJabtdIE3wgygk6AC3ygZGP7alAqd0b+IcjT+ZqYCgYCIRysQ1er9wyXtDU6aYHOPL07KP0RCjSnirE6084ecVVx1jDum78FTqOA38BQ8EmHb84jpNh/ADnMjlWeX6FMwoagciHPK+v5IVuiOYiKUNwGoZllyKPS0R/bXtd0YcEX92mG7Nebp27EBFX1Icy8mAarWfwr+dq4Bd+2w7vWbHL42pgX6lXlL6rAPjDT/+mXw2sVtqrAeCXWPvJaSEs9oFRRwZ/X+txu+mBz9ihIwe962bcj26cFjCq5CpINB9ZnsBNZa8Vf/IggRPLFHgATAB/tH0C0IVOyhm2oNy8bJyhPtR6A0KKGwqwoVox15sFvCmEN4VWy9MKgIrVKrPWqM7ay172Cts6u912VDf5N5bGAfaNcgHKpTwPgG9/xD70xd+2hd1N/3Lo3//pf5QuB/NO3o0CgMvBo0LBvOsBg4cS337iq/YfP/pPbWn5mPGOvKnGlL/oYfUysEf48TBUEf5FjOJ4FPzyZaHHKQH6CscB0uIDmePAn2ko9nPwfCcKgAlcdzc3Sq46nyUcvQCoYaLSsG57KOfPWL9XtZXFrr3vve+3N7/2bTZvW6zar7ucUYhAo+zwU/jo+rs+ah9WABzdnd4USgCc8FQwkDs5BOddTdBBAN6g17F+e1m4ZK2lI7Z87KBvu81j1m8tWXv56ETsrCxMxPbK+DwnROUbJw9sg+PyBI6kz/P5/vJ4pL6t5SNeNvXuto55emjwUrlF+Y6URZlH5HD1nN1F67UXrNc6YnPTQ5uuc/5kuQiW8RB+yP0RftIOf8VuESitTm/YVQud1ANwQwifcvPEEhjOp5Xj+JiUAPCCv9B52h7Ye6t6AM0DOrw6TTL052Nmpez5J4G/mSwVeRx4i5rA2xBUX0ktDo6HMNY4WDXgKIg8ud8QFNm8gTAf0M8bh3q41PpZDZGILpZ7C1MvoALV9Q9sdnre2k3eaFb2B2ied/7FNj+zxRrDObXcySup3PGUB6BD9AAMAXw4kncFl1pdBYCcOCkA4suhAbkxouVHQAAcExSDctd4IbsWbonu/3EulU/j0iSY1FUDqW7PLAI2EPvMAkCwoSbK5mL1zwPXSSJKHgHAI+wcp7GfsRsbsi+qbF4p1zQM9NRoNO3j7Sk6riiPf1JngkroSl3APADwyaeZA3zht2zhyWZ6WfTP/uN0T2BHLXJyAGg50k9LjTDE6BIlAoBCoXsAqAl3FMXpaqLyEPBC9CFWNvB/ETKTwY16ilCoPhE2krlR3kmOAHKZISNoHHq7Ko7ZeCD4nICHTXj5hfaLJ5GwWWulbzPTldQ7erAcD/giD4AICHxy3Z0fXhcA/0ABoDlVpuVYSJrn0QREAREYOD56BIAXQkzXeIZeeTV09Vra8kJG8XiHPxPLccj7nnnWYhzvlBE5gZPowRul5TiaNzt2fSehTMed32XlyREaOJrev7Gk2T1Y4mENLQEH3Z61lzr+ucA5OZ92I8u7jcdBOB0MWPWxSE5Pfw7yGY5MB5GRbtpnvtrvadZO6yaCuH8ubsqABp/9UecTFAMeqBvysei28i5rJSCscYt2V2PaslI1x2JJWC431WO0FPl8dLqbtpJTLonn2DohIgfkidLhkInTimR0FJi81ZvyE5ZKK0qvtBsgZaMPMgIrBZ0PbXMTLenS06vio7/r21LZ0Je1XRIuFvukaysP9xp0VF/sRJ3REbkrstER0ZatUW/b1LTspjoYn7aRvkO1pNz2ud03Aj/HwO3IJMfPSn8Sr4lL3UkOESjghkA29fs88YOiiiy09NIiaMai8viYSXrvBrXVn08gVYH04qoxmP08rfTmJRV0p35bN+oUNEeVBT3KnISUT1efjpHtFXM65wioj9uJiV4x2SuocqLKrtasRuMRsl+WPfy8Qz5+pH4dv2hf5ZSr0lH9pbbKIJb0KMod9cmoP8bxJ8GJXxZdOCUERpe/kVCA++T7PSk+KD5+oG2vX1GPojGM5+s2QPhDzXJ57g8ZA/LwxjDR/WURE5A0pCXfgGPKHfIqFmHwivKh+avKkMlTP6vlHo/o3EceM29kkV7H0J2HXPGirL72Ey/ZwHVBlnik4x0C8Abq6kHXjY9nCXkrGFi2GVmRZ88brh/PFAy6mqyrM+A5hPBH+CG24as8CFb9NcZlJ7wWMFbQSQDfuxkMZQjFF2e9eLeezwAU1eWqDCXaJEyfsKeSa3l4goRWTksYlyehjKn06UsbtHiQUZN84kknf6MgM2kdw/d8an0E7CTk0W90cfQegxbJMXQFEFvVD17CxBsoAHk/MTN+JsWOA5bAyTarsgK9nlwpVbBQD3SlDuhKL1rhsbdpydaxIPwB5n6KbQ6T/EZHdFKQFwbkBY4FsehbuPeDx7SiJ6fDQURXk6FxyOtVSeNvhok8GUI7GfTXtD5LGLrk6LpkmJ4GzlA0bdalo15eD9G18a3EJ74OVsskHXT9w3ZuQyHH2C7hen8A0fpzWsAkX2lYo4VsDBsVNglKlZ6/jaPUWFEvq8mLJjNlHVujbcOaJkANTbDGoAkH4vNdwLLSlqdIq2PlH4pm5K1r0jUOG5oAOhby6gmtlrAsXSpTmmxJJrLJA31Y1cQt8ozB8lSSa7WWDaqkR16UlcoNHsi+66JyKtOhvyaElKf9VL72qwUqffCHmigPNfH1joDX4VW71iu1ra+JIp+681fVGS+cWO+TGKpzevBWG+sYd5V6g3QxaNJXw+JEUAhE0Ghh46BbXvSXJB09dlTjYM8nQJTfK1YPaSI1HnjHIJM0n1CRTkWklYnKD9oJIOnmO97ayOGGGJG5uozVZG2cgRKQfm3JC6w2ACHTWuZSnMCKcuDDS/nQhTa9xmPO51jIW+0SCgaTU7Lw4kxeLzc9NWNzvFCrNiv78KYS5hRrurBKQ3bcbue6Cbxu4oPpRBDXApbtyouLM4Enuho47tnAUaCwKBAjsUS8a8/X7D/9yT+3pZVjfvWPJSTv2eHt4My+I/048MoU+zlQ3b76SIyZl0klQeYILGvHQbJVMtgoUD0eXp4Eq+X4/wRRimoiZ6wPjvjaaqwWRu+6Qh6vfucFEtoThcDRPnWArzkDY0NrpWdzfKdIyETxve/5IbvyRVdbqTtn1cGM2xVbAZTdU0MDwuHQ0It9yvTPxn0xnQiKAODdBt8R5E4IIzhNS5wen3zVWripdS/PzPfVnZWn1YvNaRJUV1c2AXtK1x2D0G1KFZqR0QMljy00m5YODbXEMThs9K0v2ePQy6Vrjf0RHHp+GSrDoA3ULZMm5xn5eMWs9O2rO4999O+zT56qnFWX8/lYJvn5gmhD9ROWGDqnerZjFy+3mLKDC/vtgUcesN17dxufwYkAC7uH7QFsHz45GSjHOfxnAuOcD0Dn+vXW6TNtc/0M+WW7ldvzVmrOWrk1ZxXtN3pbJmK9u3kiVjubPH+1wEpxDNbEHycPrPe3jqWDU8KZrrBz6tjoJL0akj+leoLso8s6VBlRB47rXvZW6bVtFWvkE1b7W6zcmbPuUs06wh1bzrWrLn+9XXzBy7Q+2KQeWgNzEQDYPT8pd6pQWml3h/1a9RkNAVHgqPNRrltetmO235a6S/7iB7i8CFIJfAiIiD1VyCM9wEsuDBCGGYVIMw78JM94lsNGhu0OZHwNO36CSGUjxu0hJJ9PslVulO+yoLMEpasv7gegz+fDED4MKMns9KwPAcucBi5P2YyGgS3z2/0q4ebaJj9tTDm5Hb185WdLOdEw43jcEFBqKgB630EAUEhg0CiQL3l3jJcrMs5R3TRWsY87uFY4CdTBFXvHg6qk/8khSRY0yg4PJtrxUDhhDFAa5+YnXdhxp40BmUb1UAvUPnOBKJuS0FOWWK1LlB46p3MQrPOT8wPTnEBy+12brsxpryJLKc+wqiCrai4wFF0yC+fndg9/nEoAaPKbHPNMII9ACqAg0I81q6oO+NbfnGNV/3lzl38Eql+zxnB2MtpkrDH56U9pO201vrUDar/an1awjs+TcG58WSCfousL2Z4Ckm9qoPoN57xs9KgLkTk1nPd6p7JnMj1iH32mhDpWWt402lD3zrsG6/BKm+T2up9J5HsF2I3X3vNZGXwejgfC+YGnAuUyl+2eIaBEKBLORwGn9RUA3brGvppVe1Xt1zTu6VhLmDoOhDcBq13Sj8daL+WvI4eXPvuLnwuZyFd5Y1HljysLrCpfua9lqrbjkNOwY1FyuTWrLqSu1W7DKkJkQqNc6l7paFug73tdNBleh5UivWRQPwVRSXKGbXpgpZeNed0R7xfk/cl5w3smjg8o58KAEBTdRxZoxwFpc6evCwiJ8XsAdOhjrI45k0v/wDqf40lYnPGVXCHlgIgVIhNEjveWUh0e/Ri0KO84zPicjvNrIJxXgMY/BAhZDgY6TZbHOpMQQKYnlRxwVA+Oc/QyM/7osd9oKt2QWfPuvu/5Goo57MMJgrB9bv/kL2UmSeaPmCRSEGn5pUpLnt9+BbOA1d1V+hpvFFxYIQiIAosj6amChUz+hkwAYSl5Rb1O8Mbh2rlTIWtoIS+IkhBhoiOTd/1y2ZlXyvvt1RhgjDxQCV0nn2iBvk8AKI9+fLaCL/0wNwlMxxrjyxugl6sypNs6zMsfw1uNoFS9DJM87qnky6p17qkQ0vKrioi+JtToDuR+OynIkofXPKDCieFwfkCiR9JTBIxbVY0qmthUVemKnCST+h0VfquxthNwWJZTA5UPGrLAoFtOl7yS1vGUk8vJMclRPk+viRLvBS704PY1Xkyd1ubiF+tzjvvKM0T/Cag+e105J4tD5eNFmkNs5HKg85p71UNYratxiV/iDhJCsd/SCmDZOu0ltfrkG/xFq4+Wv24IziD3r6cnaIs05PCdAGfAE52MI+yTBhWj1tPRvAXjypB87q3ftBbLQuPLvnzaeTx2hm1HPx4mWo+vjAu7GQ+5yI82G/nHIXmavaZ/rr4zaElOy7euk9Pa1lNZqQ8otpQtelvpxiH5V/U8ZVTeEu8n5MP0IDohK+lR4nYiacE6gxtAyuptao2KzW2a0f5az4u/wOSr450fkKcv2rfTtHxVRkKqgBCofwXlmQHvCexr/dhTNA8Y1DSWlbkXTJHN8ml1wByHtQKLY146uTouF/wS7/rXfmmVL70ZNIs8o1hSnnJD8a585DENQ2zLdeklrKmPrTKmSkQgx7zAsqbtOPT0jNFZOSePFEDrB+UMYZkxXjz0WmouWaerIOkqKMBOU8NC24e96KFHIZwfPozjSQC3GAL8eC0jLAIjGM8AmFu0NT43VQlVQ62KHqGvFpPaWIr1CThM2FLkj/JaBY992pHaS7E9EdJH8BkK0qc2Hvt9/fzzdpKLdoF+LDpX3yYh/c748jZGbIJl1Jes/bx3U21kt6np9Oo6rqGAfKdATlEAMEfIunAFIX5a9V2BOYQf2fgdTuFWpSt15SmtNKTOgn3kU//WvvzVa/0+t7e/7hftnf6iSG5U3DiSxkFT3eq+xadteWXZxx2ubsXVN5TYMLhgFUV6MK4Wrx3lG83rFS7SnChokRcGkiQvi0tP3uMiJjMeslyVEYMGQE3vWU7HpwK8JXSgIYyrff7Tlo9gciGIbxKwUuL1tDKY7/Ol0W1bt9rM7JzmA5xxXLszG0BHEPuiN7ygsQ9yNTB/LmDt0TDJ6SoAuBy8GgDX/IJfDq5JGQLAjVEYNwQDOR0IJR46cI/90V980LsyTEUA9PhaKBVTZHNZ2HOt/sP6/pfkFfJxmBN9nwguylstM+niz+/BS5Skn5Oy9KQb4UFHJkGADILUy3Y6hiu5rqQ/Doo1m3/X+BRBblUvI7uqLHRmi1s9IBQEVY0J/tbzypSOq1bX9g3f90Z7yfNfrvnirAK27k71OiBPNgeB1ToLqCv7HgB3FgGwp2lXXKwA+Klfs1KneDp40qlgnygLR4W6EQU5HQhFbn3iRvtXH/4V6/Tb4pMuPQ0Ej8uYVb/+nvKSG2nJMcJM3ihE+nEQMtbrl8omX9DGQd5iwKjXxvmUVk0nTdZODXB338NOLRbU0FjWFuA8/0xj1lrLfauXZ6yrFrpyrGPvf/9P2OuvfpPtKJ9t9f606xwQegMRGBxj7zjmuQAC4Niell1x0avsl08mAGIICKMAsZ8f51vg/n3fsg9e/x9tYfGoJjDpEiZ8goBs/gJpQciBN07OKHj6Yn8Uitz+Xyk9HS5iX0JXOeMgXbsXFPI9bejj/ycBbXnjFOOAHAQBzkcG4eD7KtO/ntpnSKjZdG3epmqbrFGds3f8wLvshRe91GZsi1aS3ICa/BD2iv1nNQDi/QAIioJCYBQSBQFBb1UWbF/rUVvWENDr9fzGBfKFgvGaGNIGhPzYniqQL8pflYtuwuBtBOvyCcgDRt3Ggd+86iFzPHgtJlSFoCF0VnsA70XYQmNhwPgv2f2a9bvqG4S7dp5ljdqsONwtnK4Ghq1yp0c9QvfvegDkPGjwB2Xm5kuqkiaA+rHAotJhLGbPsc//sBNpJlpN4JzJbBdGWSE7GboITv9/PIQ48pA3gHzkz2nrAXeJp15yHGCTsMtxoCzpWYbUAxAACUmvnlKNplGd1pYVa8N7A+4KHnTlUA2hnmvEJ2530UZ9s1EATKpZBmuVyAWHcDDngQ79ig1bXCCZ1TAyZzXj4kZDnq9rf86mh5ttarjJpm2zcItv/Vj0GdNsdxIOt2i7EW5dlQdCm13NNyKrwOC7TpZ08i26QC9kHY+bxE95xyO8bWNxWjgl3UD0TftbV2mz1dOt2lNr784Ip6zcU6tvqUfocNIj+QAY9cmpwgkDIKKMQiLKosDRAAgeUB5WbKoyr95Ds1i/iVHBIHNzda3vy476GvY0HGTHo1fj1qNkTcCyyuGqnnVrNuxWC6yJpxnzgDTj5CUkL9thp2YDGZlt0JNe6DiK5JUD1HufMmruOGzJvrLFoKUWrcYyaKu7Fw6FRrkq33oMBdryLABl1bSclsnH+SR8dSpwEj1AAgoIBKKgOI4t4LxiCcVdL9zrzurK85d56MEXPI7MBbUyLK79cJxok1B/Y2mrWND6aiW8gmWVX2zzfI5Fviifr3qR1/UoOmRtZCl0X4/Qye95tXVZooFxHDxobu2Cj1xMJt8l5Mxk8UCJnxZkWNHSudJQy+esp/74XL0WC8qLRPIrT4FA+IRtHgirvvL/gmBRfrE7EcYVEggtbihhdh/LPE8ryZy65RQsdelI564K5nQtNL/vneAWT3XykynpVG6iTUSlY8vDs+TzL57pmHzplPAaUq7vF2liX8OqY5QLPWRpuuKnYvFB1AG9+SBUpAE5ht7lDKKaM5+l8Ys76FCRi3Ts10H4bnFVYzuNmDpry/eG0if1pCNIvVWOl1fI9/kH92oUeiiVlae400rljJx3WHWw7J77J8ciAf8U3EWvrp+L3gjC+WQY7fKDHscBUWgysPa5760MKm1RUTem8yVTPP/GUMFzp0zA+Bahy/IvNycjujwdcnLFDYRRnZdOuKTyiryRTzJUsvPQY5UuTEExVKtTCnREzjpd0BcnKTdXOoV8pXwgh+N0Ln5B4yolVy/5lrGffB62PU26mhnlCCWTk8sEx1B6gNjFT1Nrwtwries8NTB6H0H4JOwdPjkVwOQngCQwnE9BQD7e59vYV2o5hCphAOVzYxVbjFmcY18LjoTw/GNKEzDl0T7pcZi2tDbkcf4+yoNeIqhUJh934oPSazwZqwig4HnZ8AgQ14HU6fpAyEvlJ4RGGr9qxz56qfykA4GgVY70ch0ow686pCDgg1Orl4XLKXC4KjGQk0M/7EBQSgPl0U95BjifEUIBgP3zAMhtfypwEgEwHkYLO04BKVYC1d0w4tObYXM+UcLo6vycpyzB8xkC+2MweJ6+QO6eQRaDeqRxOlv3Z+SnzIy3Dik/0R2LtCFvvYw1OSxw0zKX8wFCdWPcDwmW1X9XhM7Tml5eVKwI1cWkvJz9E3IWEJmuB92ybKkfZiIe1db5J8C+QjYZRKP8rgRARBkQTo6C4OWF53T2UiXTeXYudNBYMByzPpljIo9OgeOxKKkpDw5TOdIt7cMrnKj8vPgAPpjypXJSnkRPW/KEHkle0oHLLSW/7OtnMTyd0iO72E/lias1emmgCZyWvmBFx1UN9mx5ySM0XurkKBr0igLFHT/ghHCShZ7ojdMVD/qnuvgvhUUKDOiT7X6qcMIA4MueeWF5179hgTJqVZUHK45Ev5TV0AduxKuolUzC1KaUp0hf1uDJflUtrDbkc9EFTz1s8EmPSxJPZeU88pECHRiINRqUNMNjn/S1Mo5UuZ4v6ZnKRB85Fuf2QDlXy1lO0Vb6kignw/NvDnKspVyNbxwOxScQ+gSMnC8TEmj0E7yNDd3U6/sMk/LSDaFoSPDQi8gnmux4Iyv8MTocnAoo+AvnEmNSgMPUDca4FmOMErP8Sb4XrQjRFKZOD4TGJgVKgUVSZLk8pwOxFRT8jDIG1uT51bui0nlR6B/3CHrCdTzKKHjKt8orIPEQrgMtZROkjJ5sNQsEIUkRlYvzhIKC57IKnkNx7J/TdTkqh0xRCS+fRNhcDmZJTVuF5qzEw76RjX3V2umeaBWBfH89cFOVC/ROhsimdXir12RFk5ayQrTCXS8CjJ0MTq2UWXTeAopwLvX6K+G54RGFGNjFYlLDRIqPLVMWtLLWtcxwfQUgmk+s6Le15AkeX+ckfZebMrTPrBg+EyUmbT45gh59P3fZKA2TKm4V41r7gJm5tkPlSTNx6eAz9OAjV/oKfXIpWZTPHUJelmgDTS47vZbfpIEOaQmrFqd9+H57mezEPX3+BVmhmrLqnHRHB793sIb+ykPdXHt0qKlMFSQHD4VYtSfbMu2Lpaivjgo7Ydv+gI9tK4uqix/CJ/ggXSoPZ0/C9aDgIpaLHz2Afikd8ZQyFNzjfs6mbKHf0FBEKj/4BCoXYkiXLsmuIVInoefRlnTpbRxJlqPK8v6j4IWsKCvFZuIHb61BRT7xsKLnk1NYP2p/EuayQNejwJBHY/beo3AKXanb1unSC3rBRwzlcyGJpjfQsEIWeoQkL+oluVI+IdngE+2+N/bnirBV3kiXjmN/PUgNKUJFikQYl0eXHaFp/JuIUpwzU+zL/fppLPQRTSia8zRWwoO2ytPecbJylFy2nkfNgFE/5PES5RSo8DS+io8856kH4yPV3EBR0XoJZNaADkONp0zIfBaxypMDlIdO6zgdMqyolaZy6NKkG/VGR2GVlzdyBk/p0IGbONxZzG0KHZ2Hg4XIC73dHujmsgoeuSQv5Yuy4FFLWcLLQo/xurqt2RbotNV9yRsBb/8J2CangyxKKBdy4hyPSujRnZZEKtq7oEKiR33iQXGe/1K+XM5xWPCRqWwJsrK8txEpzTESj/JST5SMuGoQGSsMoX7bj4PHMQHjQeW/ovwRjFvYoncNPYA0Dqe80FNTLvI6PfGSjiHTKas01x2eMGw4jpfLm4ietkiTbV3WGMAKxW7mfBW0GpRwXOgEhB9KcyQaSruRnBLOLwCejDRWVoHeRRfJQx47zveyYKyVlfhQYBRVypBw4bdqiKALCRZvicXxOHTwrf4V40nUywEetCJt0iLTr6A5Bm2VF3YS8i/Pl+fNbJjrNooJClsV2ySQ4+NBy9nVXAIloXzl4jZrjVj6aexiwjYBfRJWIBM+zqwxAeLMnE9gfGKWMJ11S7xxsgJpwMgjPZMwzoQxSUS+D4HjeNTUeb5Scj+BmuYpn+pUIEEdPIIceUy2fEI6okdgOhVMSfpRbqGLdzTwqE/QpFtuC36kIS1lQXeq8mAnjjyP617kE40LP2zdvsFTHTlxPU7HQMpK+hZY0DTWuDdHgRNQ0ordFB/spsxelJAKU8HjkVOa/h19ZtFsCzqnQ5lpB9/TMOsWzR/k8HPm62XlqMW2AgcdmCsXp1f93LpkcTp5HS+dd/fZdsFjJbBaDuVneUibbgZPOkDnCZzQbxx6fQLRI2Rqm07xFvXJy6LOlA/dVxqFbvBcZrox3VcpogUf+ZQTqxVflkU+rWROZDuvB2XH1mkcSzcCYQS0tE+TF4AlXUVLnGpdEw1fBqUK9sutDbHnT7asSLmmH8cjr4Ny22kdW3bslZuS21MZkjwiI8e2La2mH1Z5JBbnY3icl8oiHbyh8zBkKosnbXraH0AT8nat9PTNinUKXl/5BsK++N0Sy7iUr1teGYudknSpJF3Qf1BB5oq1h0uer1+RDaQrGOlByuZxtEGJpxKSDuQjPeXzNrB+IWvVRoU8t1816R48L2vEVqPodlK9XBfKqoqOfiqfx+j8yy09LTM1pPhbUn1Cpa4R6HY7ttJSQVqzezRKZa5iueLPAF3pMTQcPErfCMMAERjj0qxDf+Qqw6C5QzEkx4VRxfNtpBuDHljF/rryQ36OwSvShs6BQc/TjcM8zyiOSx+4Lo30wfEgNB6Lo59njpWW2ur3u73hcKk1sMps2/7nx/+l3XTHtVadX7Gzz77azj7zapvVoFDzEw2nBkxoiDLmGAnTcUzi4q7gEwJyiuEJ8HFsYlbSraVdB8rDOtxlFUnQJQECJ+vj8yTPlvQnbV6nSZBYa/x8vjXKG4V0cmc8bFim1nVUJezuSfWP3wP77rQHnrrTDj52zF5+4dX2j37hN1IArLSVcKZlv/9n/1wB8EmrbFb31d9li4tbrNprWk0x9P91wPScUJlku42MStB54IzAJPpJgbIx/I4D5Pq3AiaBO/TUoV9vWXVuaMf2tuyVL7jGftmfDFIAdDQHGNabdt3X/ot94vO/Z72pQxr/z7Be9zlW1VhSMY1Jpwge695C2JHC2qYGEC2H/fEQzshbzOquWBtkVd61PDlA9XP8Dmm7lpIlHc4YLzl0zfUh7VqdJkGq66jOa8GWU9cDF+EmwYbBqvKCTTpXT0To3KjCmefWgYG95ZXvtJ/4az9vpcte9tINq/C/4XsbxvdB/xv+fwJm/y9ChEvcPvgfjwAAAABJRU5ErkJggg==;" vertex="1" parent="1">
          <mxGeometry x="42" y="360" width="58" height="78.39" as="geometry" />
        </mxCell>
        <mxCell id="mIDjUX9PuWNVgNelnrzM-31" value="" style="edgeStyle=none;curved=1;rounded=0;orthogonalLoop=1;jettySize=auto;html=1;endArrow=open;startSize=14;endSize=14;sourcePerimeterSpacing=8;targetPerimeterSpacing=8;" edge="1" parent="1" source="mIDjUX9PuWNVgNelnrzM-2" target="mIDjUX9PuWNVgNelnrzM-6">
          <mxGeometry relative="1" as="geometry">
            <mxPoint x="262" y="305" as="sourcePoint" />
            <mxPoint x="432" y="305" as="targetPoint" />
          </mxGeometry>
        </mxCell>
        <mxCell id="mIDjUX9PuWNVgNelnrzM-6" value="" style="shape=image;verticalLabelPosition=bottom;labelBackgroundColor=#ffffff;verticalAlign=top;aspect=fixed;imageAspect=0;image=data:image/svg+xml,PHN2ZyB4bWxuczpjYz0iaHR0cDovL2NyZWF0aXZlY29tbW9ucy5vcmcvbnMjIiB4bWxuczpkYz0iaHR0cDovL3B1cmwub3JnL2RjL2VsZW1lbnRzLzEuMS8iIHhtbG5zOmlua3NjYXBlPSJodHRwOi8vd3d3Lmlua3NjYXBlLm9yZy9uYW1lc3BhY2VzL2lua3NjYXBlIiB4bWxuczpyZGY9Imh0dHA6Ly93d3cudzMub3JnLzE5OTkvMDIvMjItcmRmLXN5bnRheC1ucyMiIHhtbG5zOnNvZGlwb2RpPSJodHRwOi8vc29kaXBvZGkuc291cmNlZm9yZ2UubmV0L0RURC9zb2RpcG9kaS0wLmR0ZCIgeG1sbnM6c3ZnPSJodHRwOi8vd3d3LnczLm9yZy8yMDAwL3N2ZyIgeG1sbnM9Imh0dHA6Ly93d3cudzMub3JnLzIwMDAvc3ZnIiB4bWxuczp4bGluaz0iaHR0cDovL3d3dy53My5vcmcvMTk5OS94bGluayIgdmVyc2lvbj0iMS4xIiBpZD0ic3ZnNzc5MjQiIGlua3NjYXBlOnZlcnNpb249IjAuOTIuMyAoMjQwNTU0NiwgMjAxOC0wMy0xMSkiIHNvZGlwb2RpOmRvY25hbWU9ImRhdGFfcGlwZWxpbmVzLnN2ZyIgeD0iMHB4IiB5PSIwcHgiIHZpZXdCb3g9IjAgMCA2Mi4zNyA0MC40MiIgc3R5bGU9ImVuYWJsZS1iYWNrZ3JvdW5kOm5ldyAwIDAgNjIuMzcgNDAuNDI7IiB4bWw6c3BhY2U9InByZXNlcnZlIj4mI3hhOzxzb2RpcG9kaTpuYW1lZHZpZXcgYm9yZGVyY29sb3I9IiM2NjY2NjYiIGJvcmRlcm9wYWNpdHk9IjEiIGZpdC1tYXJnaW4tYm90dG9tPSIwIiBmaXQtbWFyZ2luLWxlZnQ9IjAiIGZpdC1tYXJnaW4tcmlnaHQ9IjAiIGZpdC1tYXJnaW4tdG9wPSIwIiBncmlkdG9sZXJhbmNlPSIxMCIgZ3VpZGV0b2xlcmFuY2U9IjEwIiBpZD0ibmFtZWR2aWV3Nzc5MjYiIGlua3NjYXBlOmN1cnJlbnQtbGF5ZXI9InN2Zzc3OTI0IiBpbmtzY2FwZTpjeD0iNDUuMjI3NTg0IiBpbmtzY2FwZTpjeT0iMjAuMzQ0ODU2IiBpbmtzY2FwZTpwYWdlb3BhY2l0eT0iMCIgaW5rc2NhcGU6cGFnZXNoYWRvdz0iMiIgaW5rc2NhcGU6d2luZG93LWhlaWdodD0iMTAxNyIgaW5rc2NhcGU6d2luZG93LW1heGltaXplZD0iMSIgaW5rc2NhcGU6d2luZG93LXdpZHRoPSIxOTIwIiBpbmtzY2FwZTp3aW5kb3cteD0iLTgiIGlua3NjYXBlOndpbmRvdy15PSItOCIgaW5rc2NhcGU6em9vbT0iMTEuMzc2MzExIiBvYmplY3R0b2xlcmFuY2U9IjEwIiBwYWdlY29sb3I9IiNmZmZmZmYiIHNob3dncmlkPSJmYWxzZSI+JiN4YTsJPC9zb2RpcG9kaTpuYW1lZHZpZXc+JiN4YTs8ZyBpZD0iZzc3OTIyIj4mI3hhOwk8dGl0bGUgaWQ9InRpdGxlNzc5MDIiPlBhZ2UtMTwvdGl0bGU+JiN4YTsJPGcgaWQ9Imdyb3VwNTAwMS0xIj4mI3hhOwkJPHRpdGxlIGlkPSJ0aXRsZTc3OTA0Ij5EYXRhIFBpcGVsaW5lcy40OTQ8L3RpdGxlPiYjeGE7CQk8ZyBpZD0ic2hhcGU1MDAyLTIiIHRyYW5zZm9ybT0idHJhbnNsYXRlKDkuMjAwOTgsLTQuNTg4MDYpIj4mI3hhOwkJCTx0aXRsZSBpZD0idGl0bGU3NzkwNiI+U2hlZXQuNTAwMjwvdGl0bGU+JiN4YTsJCQk8cGF0aCBpZD0icGF0aDc3OTA4IiBpbmtzY2FwZTpjb25uZWN0b3ItY3VydmF0dXJlPSIwIiBzdHlsZT0iZmlsbDojMDA3MDhFOyIgZD0iTTAsOS4yMXYzMS4yMWg0Ny41NFY5LjIxSDB6Ii8+JiN4YTsJCTwvZz4mI3hhOwkJPGcgaWQ9InNoYXBlNTAwMy00Ij4mI3hhOwkJCTx0aXRsZSBpZD0idGl0bGU3NzkxMSI+U2hlZXQuNTAwMzwvdGl0bGU+JiN4YTsJCQk8cGF0aCBpZD0icGF0aDc3OTEzIiBpbmtzY2FwZTpjb25uZWN0b3ItY3VydmF0dXJlPSIwIiBzdHlsZT0iZmlsbDojMDA5MEI3OyIgZD0iTTAsNS44NUMwLDM0LjYsMCwzNC42LDAsMzQuNiAgICAgYzAsMy41MSwyLjM2LDUuODIsNS44OCw1LjgyYzMuMTYsMCw1Ljg4LTIuMzEsNS44OC01LjgyYzAtMjguNzUsMC0yOC43NSwwLTI4Ljc1QzExLjc2LDIuNzUsOS4wNCwwLDUuODgsMEMyLjM2LDAsMCwyLjc1LDAsNS44NSAgICAgeiIvPiYjeGE7CQk8L2c+JiN4YTsJCTxnIGlkPSJzaGFwZTUwMDQtNiIgdHJhbnNmb3JtPSJ0cmFuc2xhdGUoNTEuMTE2NikiPiYjeGE7CQkJPHRpdGxlIGlkPSJ0aXRsZTc3OTE2Ij5TaGVldC41MDA0PC90aXRsZT4mI3hhOwkJCTxwYXRoIGlkPSJwYXRoNzc5MTgiIGlua3NjYXBlOmNvbm5lY3Rvci1jdXJ2YXR1cmU9IjAiIHN0eWxlPSJmaWxsOiMwMDkwQjc7IiBkPSJNMCw1Ljg1QzAsMzQuNiwwLDM0LjYsMCwzNC42ICAgICBjMCwzLjUxLDIuNjUsNS44Miw1LjYyLDUuODJjMy4wMSwwLDUuNjMtMi4zMSw1LjYzLTUuODJjMC0yOC43NSwwLTI4Ljc1LDAtMjguNzVDMTEuMjUsMi43NSw4LjYzLDAsNS42MiwwQzIuNjUsMCwwLDIuNzUsMCw1Ljg1ICAgICB6Ii8+JiN4YTsJCTwvZz4mI3hhOwk8L2c+JiN4YTs8L2c+JiN4YTs8L3N2Zz4=;" vertex="1" parent="1">
          <mxGeometry x="310.0000000000001" y="285" width="62" height="40" as="geometry" />
        </mxCell>
        <mxCell id="mIDjUX9PuWNVgNelnrzM-33" value="" style="edgeStyle=none;curved=1;rounded=0;orthogonalLoop=1;jettySize=auto;html=1;endArrow=open;startSize=14;endSize=14;sourcePerimeterSpacing=8;targetPerimeterSpacing=8;" edge="1" parent="1" source="mIDjUX9PuWNVgNelnrzM-11" target="mIDjUX9PuWNVgNelnrzM-32">
          <mxGeometry relative="1" as="geometry">
            <mxPoint x="739" y="305" as="sourcePoint" />
            <mxPoint x="902" y="305" as="targetPoint" />
          </mxGeometry>
        </mxCell>
        <mxCell id="mIDjUX9PuWNVgNelnrzM-32" value="" style="shape=image;verticalLabelPosition=bottom;labelBackgroundColor=#ffffff;verticalAlign=top;aspect=fixed;imageAspect=0;image=data:image/svg+xml,PHN2ZyB4bWxuczpjYz0iaHR0cDovL2NyZWF0aXZlY29tbW9ucy5vcmcvbnMjIiB4bWxuczpkYz0iaHR0cDovL3B1cmwub3JnL2RjL2VsZW1lbnRzLzEuMS8iIHhtbG5zOmlua3NjYXBlPSJodHRwOi8vd3d3Lmlua3NjYXBlLm9yZy9uYW1lc3BhY2VzL2lua3NjYXBlIiB4bWxuczpyZGY9Imh0dHA6Ly93d3cudzMub3JnLzE5OTkvMDIvMjItcmRmLXN5bnRheC1ucyMiIHhtbG5zOnNvZGlwb2RpPSJodHRwOi8vc29kaXBvZGkuc291cmNlZm9yZ2UubmV0L0RURC9zb2RpcG9kaS0wLmR0ZCIgeG1sbnM6c3ZnPSJodHRwOi8vd3d3LnczLm9yZy8yMDAwL3N2ZyIgeG1sbnM9Imh0dHA6Ly93d3cudzMub3JnLzIwMDAvc3ZnIiB4bWxuczp4bGluaz0iaHR0cDovL3d3dy53My5vcmcvMTk5OS94bGluayIgdmVyc2lvbj0iMS4xIiBpZD0ic3ZnNzc5MjQiIGlua3NjYXBlOnZlcnNpb249IjAuOTIuMyAoMjQwNTU0NiwgMjAxOC0wMy0xMSkiIHNvZGlwb2RpOmRvY25hbWU9ImRhdGFfcGlwZWxpbmVzLnN2ZyIgeD0iMHB4IiB5PSIwcHgiIHZpZXdCb3g9IjAgMCA2Mi4zNyA0MC40MiIgc3R5bGU9ImVuYWJsZS1iYWNrZ3JvdW5kOm5ldyAwIDAgNjIuMzcgNDAuNDI7IiB4bWw6c3BhY2U9InByZXNlcnZlIj4mI3hhOzxzb2RpcG9kaTpuYW1lZHZpZXcgYm9yZGVyY29sb3I9IiM2NjY2NjYiIGJvcmRlcm9wYWNpdHk9IjEiIGZpdC1tYXJnaW4tYm90dG9tPSIwIiBmaXQtbWFyZ2luLWxlZnQ9IjAiIGZpdC1tYXJnaW4tcmlnaHQ9IjAiIGZpdC1tYXJnaW4tdG9wPSIwIiBncmlkdG9sZXJhbmNlPSIxMCIgZ3VpZGV0b2xlcmFuY2U9IjEwIiBpZD0ibmFtZWR2aWV3Nzc5MjYiIGlua3NjYXBlOmN1cnJlbnQtbGF5ZXI9InN2Zzc3OTI0IiBpbmtzY2FwZTpjeD0iNDUuMjI3NTg0IiBpbmtzY2FwZTpjeT0iMjAuMzQ0ODU2IiBpbmtzY2FwZTpwYWdlb3BhY2l0eT0iMCIgaW5rc2NhcGU6cGFnZXNoYWRvdz0iMiIgaW5rc2NhcGU6d2luZG93LWhlaWdodD0iMTAxNyIgaW5rc2NhcGU6d2luZG93LW1heGltaXplZD0iMSIgaW5rc2NhcGU6d2luZG93LXdpZHRoPSIxOTIwIiBpbmtzY2FwZTp3aW5kb3cteD0iLTgiIGlua3NjYXBlOndpbmRvdy15PSItOCIgaW5rc2NhcGU6em9vbT0iMTEuMzc2MzExIiBvYmplY3R0b2xlcmFuY2U9IjEwIiBwYWdlY29sb3I9IiNmZmZmZmYiIHNob3dncmlkPSJmYWxzZSI+JiN4YTsJPC9zb2RpcG9kaTpuYW1lZHZpZXc+JiN4YTs8ZyBpZD0iZzc3OTIyIj4mI3hhOwk8dGl0bGUgaWQ9InRpdGxlNzc5MDIiPlBhZ2UtMTwvdGl0bGU+JiN4YTsJPGcgaWQ9Imdyb3VwNTAwMS0xIj4mI3hhOwkJPHRpdGxlIGlkPSJ0aXRsZTc3OTA0Ij5EYXRhIFBpcGVsaW5lcy40OTQ8L3RpdGxlPiYjeGE7CQk8ZyBpZD0ic2hhcGU1MDAyLTIiIHRyYW5zZm9ybT0idHJhbnNsYXRlKDkuMjAwOTgsLTQuNTg4MDYpIj4mI3hhOwkJCTx0aXRsZSBpZD0idGl0bGU3NzkwNiI+U2hlZXQuNTAwMjwvdGl0bGU+JiN4YTsJCQk8cGF0aCBpZD0icGF0aDc3OTA4IiBpbmtzY2FwZTpjb25uZWN0b3ItY3VydmF0dXJlPSIwIiBzdHlsZT0iZmlsbDojMDA3MDhFOyIgZD0iTTAsOS4yMXYzMS4yMWg0Ny41NFY5LjIxSDB6Ii8+JiN4YTsJCTwvZz4mI3hhOwkJPGcgaWQ9InNoYXBlNTAwMy00Ij4mI3hhOwkJCTx0aXRsZSBpZD0idGl0bGU3NzkxMSI+U2hlZXQuNTAwMzwvdGl0bGU+JiN4YTsJCQk8cGF0aCBpZD0icGF0aDc3OTEzIiBpbmtzY2FwZTpjb25uZWN0b3ItY3VydmF0dXJlPSIwIiBzdHlsZT0iZmlsbDojMDA5MEI3OyIgZD0iTTAsNS44NUMwLDM0LjYsMCwzNC42LDAsMzQuNiAgICAgYzAsMy41MSwyLjM2LDUuODIsNS44OCw1LjgyYzMuMTYsMCw1Ljg4LTIuMzEsNS44OC01LjgyYzAtMjguNzUsMC0yOC43NSwwLTI4Ljc1QzExLjc2LDIuNzUsOS4wNCwwLDUuODgsMEMyLjM2LDAsMCwyLjc1LDAsNS44NSAgICAgeiIvPiYjeGE7CQk8L2c+JiN4YTsJCTxnIGlkPSJzaGFwZTUwMDQtNiIgdHJhbnNmb3JtPSJ0cmFuc2xhdGUoNTEuMTE2NikiPiYjeGE7CQkJPHRpdGxlIGlkPSJ0aXRsZTc3OTE2Ij5TaGVldC41MDA0PC90aXRsZT4mI3hhOwkJCTxwYXRoIGlkPSJwYXRoNzc5MTgiIGlua3NjYXBlOmNvbm5lY3Rvci1jdXJ2YXR1cmU9IjAiIHN0eWxlPSJmaWxsOiMwMDkwQjc7IiBkPSJNMCw1Ljg1QzAsMzQuNiwwLDM0LjYsMCwzNC42ICAgICBjMCwzLjUxLDIuNjUsNS44Miw1LjYyLDUuODJjMy4wMSwwLDUuNjMtMi4zMSw1LjYzLTUuODJjMC0yOC43NSwwLTI4Ljc1LDAtMjguNzVDMTEuMjUsMi43NSw4LjYzLDAsNS42MiwwQzIuNjUsMCwwLDIuNzUsMCw1Ljg1ICAgICB6Ii8+JiN4YTsJCTwvZz4mI3hhOwk8L2c+JiN4YTs8L2c+JiN4YTs8L3N2Zz4=;" vertex="1" parent="1">
          <mxGeometry x="790.0000000000001" y="285" width="62" height="40" as="geometry" />
        </mxCell>
        <mxCell id="mIDjUX9PuWNVgNelnrzM-35" value="" style="edgeStyle=none;curved=1;rounded=0;orthogonalLoop=1;jettySize=auto;html=1;endArrow=open;startSize=14;endSize=14;sourcePerimeterSpacing=8;targetPerimeterSpacing=8;" edge="1" parent="1" source="mIDjUX9PuWNVgNelnrzM-15" target="mIDjUX9PuWNVgNelnrzM-34">
          <mxGeometry relative="1" as="geometry">
            <mxPoint x="907" y="519" as="sourcePoint" />
            <mxPoint x="723" y="519" as="targetPoint" />
          </mxGeometry>
        </mxCell>
        <mxCell id="mIDjUX9PuWNVgNelnrzM-34" value="" style="shape=image;verticalLabelPosition=bottom;labelBackgroundColor=#ffffff;verticalAlign=top;aspect=fixed;imageAspect=0;image=data:image/svg+xml,PHN2ZyB4bWxuczpjYz0iaHR0cDovL2NyZWF0aXZlY29tbW9ucy5vcmcvbnMjIiB4bWxuczpkYz0iaHR0cDovL3B1cmwub3JnL2RjL2VsZW1lbnRzLzEuMS8iIHhtbG5zOmlua3NjYXBlPSJodHRwOi8vd3d3Lmlua3NjYXBlLm9yZy9uYW1lc3BhY2VzL2lua3NjYXBlIiB4bWxuczpyZGY9Imh0dHA6Ly93d3cudzMub3JnLzE5OTkvMDIvMjItcmRmLXN5bnRheC1ucyMiIHhtbG5zOnNvZGlwb2RpPSJodHRwOi8vc29kaXBvZGkuc291cmNlZm9yZ2UubmV0L0RURC9zb2RpcG9kaS0wLmR0ZCIgeG1sbnM6c3ZnPSJodHRwOi8vd3d3LnczLm9yZy8yMDAwL3N2ZyIgeG1sbnM9Imh0dHA6Ly93d3cudzMub3JnLzIwMDAvc3ZnIiB4bWxuczp4bGluaz0iaHR0cDovL3d3dy53My5vcmcvMTk5OS94bGluayIgdmVyc2lvbj0iMS4xIiBpZD0ic3ZnNzc5MjQiIGlua3NjYXBlOnZlcnNpb249IjAuOTIuMyAoMjQwNTU0NiwgMjAxOC0wMy0xMSkiIHNvZGlwb2RpOmRvY25hbWU9ImRhdGFfcGlwZWxpbmVzLnN2ZyIgeD0iMHB4IiB5PSIwcHgiIHZpZXdCb3g9IjAgMCA2Mi4zNyA0MC40MiIgc3R5bGU9ImVuYWJsZS1iYWNrZ3JvdW5kOm5ldyAwIDAgNjIuMzcgNDAuNDI7IiB4bWw6c3BhY2U9InByZXNlcnZlIj4mI3hhOzxzb2RpcG9kaTpuYW1lZHZpZXcgYm9yZGVyY29sb3I9IiM2NjY2NjYiIGJvcmRlcm9wYWNpdHk9IjEiIGZpdC1tYXJnaW4tYm90dG9tPSIwIiBmaXQtbWFyZ2luLWxlZnQ9IjAiIGZpdC1tYXJnaW4tcmlnaHQ9IjAiIGZpdC1tYXJnaW4tdG9wPSIwIiBncmlkdG9sZXJhbmNlPSIxMCIgZ3VpZGV0b2xlcmFuY2U9IjEwIiBpZD0ibmFtZWR2aWV3Nzc5MjYiIGlua3NjYXBlOmN1cnJlbnQtbGF5ZXI9InN2Zzc3OTI0IiBpbmtzY2FwZTpjeD0iNDUuMjI3NTg0IiBpbmtzY2FwZTpjeT0iMjAuMzQ0ODU2IiBpbmtzY2FwZTpwYWdlb3BhY2l0eT0iMCIgaW5rc2NhcGU6cGFnZXNoYWRvdz0iMiIgaW5rc2NhcGU6d2luZG93LWhlaWdodD0iMTAxNyIgaW5rc2NhcGU6d2luZG93LW1heGltaXplZD0iMSIgaW5rc2NhcGU6d2luZG93LXdpZHRoPSIxOTIwIiBpbmtzY2FwZTp3aW5kb3cteD0iLTgiIGlua3NjYXBlOndpbmRvdy15PSItOCIgaW5rc2NhcGU6em9vbT0iMTEuMzc2MzExIiBvYmplY3R0b2xlcmFuY2U9IjEwIiBwYWdlY29sb3I9IiNmZmZmZmYiIHNob3dncmlkPSJmYWxzZSI+JiN4YTsJPC9zb2RpcG9kaTpuYW1lZHZpZXc+JiN4YTs8ZyBpZD0iZzc3OTIyIj4mI3hhOwk8dGl0bGUgaWQ9InRpdGxlNzc5MDIiPlBhZ2UtMTwvdGl0bGU+JiN4YTsJPGcgaWQ9Imdyb3VwNTAwMS0xIj4mI3hhOwkJPHRpdGxlIGlkPSJ0aXRsZTc3OTA0Ij5EYXRhIFBpcGVsaW5lcy40OTQ8L3RpdGxlPiYjeGE7CQk8ZyBpZD0ic2hhcGU1MDAyLTIiIHRyYW5zZm9ybT0idHJhbnNsYXRlKDkuMjAwOTgsLTQuNTg4MDYpIj4mI3hhOwkJCTx0aXRsZSBpZD0idGl0bGU3NzkwNiI+U2hlZXQuNTAwMjwvdGl0bGU+JiN4YTsJCQk8cGF0aCBpZD0icGF0aDc3OTA4IiBpbmtzY2FwZTpjb25uZWN0b3ItY3VydmF0dXJlPSIwIiBzdHlsZT0iZmlsbDojMDA3MDhFOyIgZD0iTTAsOS4yMXYzMS4yMWg0Ny41NFY5LjIxSDB6Ii8+JiN4YTsJCTwvZz4mI3hhOwkJPGcgaWQ9InNoYXBlNTAwMy00Ij4mI3hhOwkJCTx0aXRsZSBpZD0idGl0bGU3NzkxMSI+U2hlZXQuNTAwMzwvdGl0bGU+JiN4YTsJCQk8cGF0aCBpZD0icGF0aDc3OTEzIiBpbmtzY2FwZTpjb25uZWN0b3ItY3VydmF0dXJlPSIwIiBzdHlsZT0iZmlsbDojMDA5MEI3OyIgZD0iTTAsNS44NUMwLDM0LjYsMCwzNC42LDAsMzQuNiAgICAgYzAsMy41MSwyLjM2LDUuODIsNS44OCw1LjgyYzMuMTYsMCw1Ljg4LTIuMzEsNS44OC01LjgyYzAtMjguNzUsMC0yOC43NSwwLTI4Ljc1QzExLjc2LDIuNzUsOS4wNCwwLDUuODgsMEMyLjM2LDAsMCwyLjc1LDAsNS44NSAgICAgeiIvPiYjeGE7CQk8L2c+JiN4YTsJCTxnIGlkPSJzaGFwZTUwMDQtNiIgdHJhbnNmb3JtPSJ0cmFuc2xhdGUoNTEuMTE2NikiPiYjeGE7CQkJPHRpdGxlIGlkPSJ0aXRsZTc3OTE2Ij5TaGVldC41MDA0PC90aXRsZT4mI3hhOwkJCTxwYXRoIGlkPSJwYXRoNzc5MTgiIGlua3NjYXBlOmNvbm5lY3Rvci1jdXJ2YXR1cmU9IjAiIHN0eWxlPSJmaWxsOiMwMDkwQjc7IiBkPSJNMCw1Ljg1QzAsMzQuNiwwLDM0LjYsMCwzNC42ICAgICBjMCwzLjUxLDIuNjUsNS44Miw1LjYyLDUuODJjMy4wMSwwLDUuNjMtMi4zMSw1LjYzLTUuODJjMC0yOC43NSwwLTI4Ljc1LDAtMjguNzVDMTEuMjUsMi43NSw4LjYzLDAsNS42MiwwQzIuNjUsMCwwLDIuNzUsMCw1Ljg1ICAgICB6Ii8+JiN4YTsJCTwvZz4mI3hhOwk8L2c+JiN4YTs8L2c+JiN4YTs8L3N2Zz4=;" vertex="1" parent="1">
          <mxGeometry x="790.0000000000001" y="499.5" width="62" height="40" as="geometry" />
        </mxCell>
      </root>
    </mxGraphModel>
  </diagram>
</mxfile>
